<?xml version="1.0" encoding="us-ascii" standalone="no"?><svg xmlns="http://www.w3.org/2000/svg" xmlns:xlink="http://www.w3.org/1999/xlink" contentStyleType="text/css" height="169px" preserveAspectRatio="none" style="width:489px;height:169px;background:#FFFFFF;" version="1.1" viewBox="0 0 489 169" width="489px" zoomAndPan="magnify"><defs/><g><!--entity Frontend--><g id="elem_Frontend"><ellipse cx="39" cy="55" fill="#F1F1F1" rx="8" ry="8" style="stroke:#181818;stroke-width:0.5;"/><path d="M39,63 L39,90 M26,71 L52,71 M39,90 L26,105 M39,90 L52,105 " fill="none" style="stroke:#181818;stroke-width:0.5;"/><text fill="#000000" font-family="sans-serif" font-size="14" lengthAdjust="spacing" textLength="66" x="6" y="119.4951">Frontend</text></g><g id="elem_Login"><ellipse cx="188.6869" cy="20.5634" fill="#F1F1F1" rx="39.1869" ry="14.5634" style="stroke:#181818;stroke-width:0.5;"/><text fill="#000000" font-family="sans-serif" font-size="14" lengthAdjust="spacing" textLength="39" x="167.0666" y="24.0876">Login</text></g><g id="elem_Register"><ellipse cx="188.5868" cy="84.7397" fill="#F1F1F1" rx="55.5868" ry="14.7397" style="stroke:#181818;stroke-width:0.5;"/><text fill="#000000" font-family="sans-serif" font-size="14" lengthAdjust="spacing" textLength="61" x="155.0868" y="88.4873">Register</text></g><g id="elem_Logout"><ellipse cx="188.3761" cy="148.6644" fill="#F1F1F1" rx="47.3761" ry="14.6644" style="stroke:#181818;stroke-width:0.5;"/><text fill="#000000" font-family="sans-serif" font-size="14" lengthAdjust="spacing" textLength="50" x="160.3761" y="152.4119">Logout</text></g><g id="elem_Token"><ellipse cx="417.4626" cy="52.6925" fill="#F1F1F1" rx="66.4626" ry="15.6925" style="stroke:#181818;stroke-width:0.5;"/><text fill="#000000" font-family="sans-serif" font-size="14" lengthAdjust="spacing" textLength="83" x="372.9626" y="56.4401">Send token</text></g><!--link Frontend to Login--><g id="link_Frontend_Login"><path d="M72.0053,70.613 C99.1184,58.849 131.9508,44.6022 156.8908,33.7812 " fill="none" id="Frontend-to-Login" style="stroke:#181818;stroke-width:1.0;"/><polygon fill="#181818" points="162.395,31.393,152.5465,31.3058,157.8081,33.3832,155.7308,38.6448,162.395,31.393" style="stroke:#181818;stroke-width:1.0;"/></g><!--link Frontend to Register--><g id="link_Frontend_Register"><path d="M72.0053,84.5 C89.7983,84.5 106.425,84.5 126.927,84.5 " fill="none" id="Frontend-to-Register" style="stroke:#181818;stroke-width:1.0;"/><polygon fill="#181818" points="132.927,84.5,123.927,80.5,127.927,84.5,123.927,88.5,132.927,84.5" style="stroke:#181818;stroke-width:1.0;"/></g><!--link Frontend to Logout--><g id="link_Frontend_Logout"><path d="M72.0053,98.387 C98.4406,109.8573 130.0408,123.5688 154.9958,134.3965 " fill="none" id="Frontend-to-Logout" style="stroke:#181818;stroke-width:1.0;"/><polygon fill="#181818" points="160.5,136.7847,153.8358,129.5329,155.9132,134.7945,150.6515,136.8718,160.5,136.7847" style="stroke:#181818;stroke-width:1.0;"/></g><!--link Register to Token--><g id="link_Register_Token"><path d="M243.23,87.1719 C267.175,87.4682 295.641,86.587 321,82.5 C341.932,79.1265 358.9462,74.158 376.9442,67.784 " fill="none" id="Register-to-Token" style="stroke:#181818;stroke-width:1.0;stroke-dasharray:7.0,7.0;"/><polygon fill="#181818" points="382.6,65.781,372.781,65.015,377.8868,67.4502,375.4516,72.556,382.6,65.781" style="stroke:#181818;stroke-width:1.0;"/><text fill="#000000" font-family="sans-serif" font-size="13" lengthAdjust="spacing" textLength="45" x="275" y="78.5669">include</text></g><!--link Login to Token--><g id="link_Login_Token"><path d="M225.218,25.535 C261.427,30.639 312.0428,37.7744 354.2808,43.7294 " fill="none" id="Login-to-Token" style="stroke:#181818;stroke-width:1.0;stroke-dasharray:7.0,7.0;"/><polygon fill="#181818" points="360.222,44.567,351.8686,39.3497,355.271,43.869,350.7517,47.2714,360.222,44.567" style="stroke:#181818;stroke-width:1.0;"/><text fill="#000000" font-family="sans-serif" font-size="13" lengthAdjust="spacing" textLength="45" x="275" y="29.5669">include</text></g><!--SRC=[ROun3i8m34LtdyBgtXw0eICJ4t21A371ehAbnBa_QKgeAjY-_Vp_zq8FGrDC79-6WHDvOnK0vqqJdfEAaGGecRpBXCD58yk0BcDJExXIv6oK6kl3mQV5kh7A7TrgGVtXHLlkVLK0lHh7SVvq7LQz0dykrt3uuccQjyWJilYb18AMzWUy0G00]--></g></svg>