<?xml version="1.0" encoding="us-ascii" standalone="no"?><svg xmlns="http://www.w3.org/2000/svg" xmlns:xlink="http://www.w3.org/1999/xlink" contentStyleType="text/css" height="169px" preserveAspectRatio="none" style="width:454px;height:169px;background:#FFFFFF;" version="1.1" viewBox="0 0 454 169" width="454px" zoomAndPan="magnify"><defs/><g><!--entity User--><g id="elem_User"><ellipse cx="21.5" cy="55" fill="#F1F1F1" rx="8" ry="8" style="stroke:#181818;stroke-width:0.5;"/><path d="M21.5,63 L21.5,90 M8.5,71 L34.5,71 M21.5,90 L8.5,105 M21.5,90 L34.5,105 " fill="none" style="stroke:#181818;stroke-width:0.5;"/><text fill="#000000" font-family="sans-serif" font-size="14" lengthAdjust="spacing" textLength="31" x="6" y="119.4951">User</text></g><g id="elem_Login"><ellipse cx="153.6869" cy="20.5634" fill="#F1F1F1" rx="39.1869" ry="14.5634" style="stroke:#181818;stroke-width:0.5;"/><text fill="#000000" font-family="sans-serif" font-size="14" lengthAdjust="spacing" textLength="39" x="132.0666" y="24.0876">Login</text></g><g id="elem_Register"><ellipse cx="153.5868" cy="84.7397" fill="#F1F1F1" rx="55.5868" ry="14.7397" style="stroke:#181818;stroke-width:0.5;"/><text fill="#000000" font-family="sans-serif" font-size="14" lengthAdjust="spacing" textLength="61" x="120.0868" y="88.4873">Register</text></g><g id="elem_Logout"><ellipse cx="153.3761" cy="148.6644" fill="#F1F1F1" rx="47.3761" ry="14.6644" style="stroke:#181818;stroke-width:0.5;"/><text fill="#000000" font-family="sans-serif" font-size="14" lengthAdjust="spacing" textLength="50" x="125.3761" y="152.4119">Logout</text></g><g id="elem_Token"><ellipse cx="382.4626" cy="52.6925" fill="#F1F1F1" rx="66.4626" ry="15.6925" style="stroke:#181818;stroke-width:0.5;"/><text fill="#000000" font-family="sans-serif" font-size="14" lengthAdjust="spacing" textLength="83" x="337.9626" y="56.4401">Send token</text></g><!--link User to Login--><g id="link_User_Login"><path d="M37.1053,75.417 C45.682,70.2226 56.807,63.7226 67,58.5 C86.661,48.426 104.0365,40.6673 121.1865,33.4173 " fill="none" id="User-to-Login" style="stroke:#181818;stroke-width:1.0;"/><polygon fill="#181818" points="126.713,31.081,116.8658,30.9011,122.1076,33.0279,119.9808,38.2697,126.713,31.081" style="stroke:#181818;stroke-width:1.0;"/></g><!--link User to Register--><g id="link_User_Register"><path d="M37.1599,84.5 C51.9678,84.5 69.7568,84.5 91.8944,84.5 " fill="none" id="User-to-Register" style="stroke:#181818;stroke-width:1.0;"/><polygon fill="#181818" points="97.8944,84.5,88.8944,80.5,92.8944,84.5,88.8944,88.5,97.8944,84.5" style="stroke:#181818;stroke-width:1.0;"/></g><!--link User to Logout--><g id="link_User_Logout"><path d="M37.1599,91.7172 C59.0729,102.5051 95.2703,120.3254 122.063,133.5154 " fill="none" id="User-to-Logout" style="stroke:#181818;stroke-width:1.0;"/><polygon fill="#181818" points="127.446,136.1655,121.1381,128.6017,122.9601,133.9571,117.6047,135.7791,127.446,136.1655" style="stroke:#181818;stroke-width:1.0;"/></g><!--link Register to Token--><g id="link_Register_Token"><path d="M208.23,87.1719 C232.175,87.4682 260.641,86.587 286,82.5 C306.932,79.1265 323.9462,74.158 341.9442,67.784 " fill="none" id="Register-to-Token" style="stroke:#181818;stroke-width:1.0;stroke-dasharray:7.0,7.0;"/><polygon fill="#181818" points="347.6,65.781,337.781,65.015,342.8868,67.4502,340.4516,72.556,347.6,65.781" style="stroke:#181818;stroke-width:1.0;"/><text fill="#000000" font-family="sans-serif" font-size="13" lengthAdjust="spacing" textLength="45" x="240" y="78.5669">include</text></g><!--link Login to Token--><g id="link_Login_Token"><path d="M190.218,25.535 C226.427,30.639 277.0428,37.7744 319.2808,43.7294 " fill="none" id="Login-to-Token" style="stroke:#181818;stroke-width:1.0;stroke-dasharray:7.0,7.0;"/><polygon fill="#181818" points="325.222,44.567,316.8686,39.3497,320.271,43.869,315.7517,47.2714,325.222,44.567" style="stroke:#181818;stroke-width:1.0;"/><text fill="#000000" font-family="sans-serif" font-size="13" lengthAdjust="spacing" textLength="45" x="240" y="29.5669">include</text></g><!--SRC=[ROsx3SCm34HxJa6ujmT8uGbIvJE0834A4KC2I6h_M79amq2wEppotK8lGyie7D-6WOMySKu0pbiMV2e952Nlb72uviXfGAVOqW5k55cDfB5UJd-vM7zSuu7kbCAw_w7D-wW9eCxYECw_dRrsDPukgX1sD4tpfhaW9x-KGD0iVy0N]--></g></svg>