<?xml version="1.0" encoding="us-ascii" standalone="no"?><svg xmlns="http://www.w3.org/2000/svg" xmlns:xlink="http://www.w3.org/1999/xlink" contentStyleType="text/css" height="210px" preserveAspectRatio="none" style="width:492px;height:210px;background:#FFFFFF;" version="1.1" viewBox="0 0 492 210" width="492px" zoomAndPan="magnify"><defs/><g><!--entity Frontend--><g id="elem_Frontend"><ellipse cx="41" cy="14" fill="#F1F1F1" rx="8" ry="8" style="stroke:#181818;stroke-width:0.5;"/><path d="M41,22 L41,49 M28,30 L54,30 M41,49 L28,64 M41,49 L54,64 " fill="none" style="stroke:#181818;stroke-width:0.5;"/><text fill="#000000" font-family="sans-serif" font-size="14" lengthAdjust="spacing" textLength="66" x="8" y="78.4951">Frontend</text></g><!--entity WebServer--><g id="elem_WebServer"><polygon fill="#F1F1F1" points="137,30.5,147,20.5,257,20.5,257,56.7969,247,66.7969,137,66.7969,137,30.5" style="stroke:#181818;stroke-width:0.5;"/><line style="stroke:#181818;stroke-width:0.5;" x1="247" x2="257" y1="30.5" y2="20.5"/><line style="stroke:#181818;stroke-width:0.5;" x1="137" x2="247" y1="30.5" y2="30.5"/><line style="stroke:#181818;stroke-width:0.5;" x1="247" x2="247" y1="30.5" y2="66.7969"/><text fill="#000000" font-family="sans-serif" font-size="14" lengthAdjust="spacing" textLength="80" x="152" y="53.4951">WebServer</text></g><!--entity TimeRegisterAPI--><g id="elem_TimeRegisterAPI"><rect fill="#F1F1F1" height="62.5938" rx="2.5" ry="2.5" style="stroke:#181818;stroke-width:0.5;" width="160" x="292" y="12"/><rect fill="#F1F1F1" height="10" style="stroke:#181818;stroke-width:0.5;" width="15" x="432" y="17"/><rect fill="#F1F1F1" height="2" style="stroke:#181818;stroke-width:0.5;" width="4" x="430" y="19"/><rect fill="#F1F1F1" height="2" style="stroke:#181818;stroke-width:0.5;" width="4" x="430" y="23"/><text fill="#000000" font-family="sans-serif" font-size="14" font-style="italic" lengthAdjust="spacing" textLength="81" x="326.5" y="44.9951">&#171;API REST&#187;</text><text fill="#000000" font-family="sans-serif" font-size="14" lengthAdjust="spacing" textLength="120" x="307" y="61.292">TimeRegisterAPI</text></g><!--entity Laravel--><g id="elem_Laravel"><rect fill="#F1F1F1" height="46.2969" rx="2.5" ry="2.5" style="stroke:#181818;stroke-width:0.5;" width="91" x="261.5" y="158.5"/><rect fill="#F1F1F1" height="10" style="stroke:#181818;stroke-width:0.5;" width="15" x="332.5" y="163.5"/><rect fill="#F1F1F1" height="2" style="stroke:#181818;stroke-width:0.5;" width="4" x="330.5" y="165.5"/><rect fill="#F1F1F1" height="2" style="stroke:#181818;stroke-width:0.5;" width="4" x="330.5" y="169.5"/><text fill="#000000" font-family="sans-serif" font-size="14" lengthAdjust="spacing" textLength="51" x="276.5" y="191.4951">Laravel</text></g><!--entity MariaDB--><g id="elem_MariaDB"><rect fill="#F1F1F1" height="46.2969" rx="2.5" ry="2.5" style="stroke:#181818;stroke-width:0.5;" width="99" x="387.5" y="158.5"/><rect fill="#F1F1F1" height="10" style="stroke:#181818;stroke-width:0.5;" width="15" x="466.5" y="163.5"/><rect fill="#F1F1F1" height="2" style="stroke:#181818;stroke-width:0.5;" width="4" x="464.5" y="165.5"/><rect fill="#F1F1F1" height="2" style="stroke:#181818;stroke-width:0.5;" width="4" x="464.5" y="169.5"/><text fill="#000000" font-family="sans-serif" font-size="14" lengthAdjust="spacing" textLength="59" x="402.5" y="191.4951">MariaDB</text></g><!--entity Nginx--><g id="elem_Nginx"><rect fill="#F1F1F1" height="46.2969" rx="2.5" ry="2.5" style="stroke:#181818;stroke-width:0.5;" width="80" x="7" y="158.5"/><rect fill="#F1F1F1" height="10" style="stroke:#181818;stroke-width:0.5;" width="15" x="67" y="163.5"/><rect fill="#F1F1F1" height="2" style="stroke:#181818;stroke-width:0.5;" width="4" x="65" y="165.5"/><rect fill="#F1F1F1" height="2" style="stroke:#181818;stroke-width:0.5;" width="4" x="65" y="169.5"/><text fill="#000000" font-family="sans-serif" font-size="14" lengthAdjust="spacing" textLength="40" x="22" y="191.4951">Nginx</text></g><!--entity Linux_SO--><g id="elem_Linux_SO"><rect fill="#F1F1F1" height="46.2969" rx="2.5" ry="2.5" style="stroke:#181818;stroke-width:0.5;" width="104" x="122" y="158.5"/><rect fill="#F1F1F1" height="10" style="stroke:#181818;stroke-width:0.5;" width="15" x="206" y="163.5"/><rect fill="#F1F1F1" height="2" style="stroke:#181818;stroke-width:0.5;" width="4" x="204" y="165.5"/><rect fill="#F1F1F1" height="2" style="stroke:#181818;stroke-width:0.5;" width="4" x="204" y="169.5"/><text fill="#000000" font-family="sans-serif" font-size="14" lengthAdjust="spacing" textLength="64" x="137" y="191.4951">Linux_SO</text></g><!--link Frontend to WebServer--><g id="link_Frontend_WebServer"><path d="M74.0836,43.5 C92.329,43.5 109.548,43.5 130.882,43.5 " fill="none" id="Frontend-to-WebServer" style="stroke:#181818;stroke-width:1.0;"/><polygon fill="#181818" points="136.882,43.5,127.882,39.5,131.882,43.5,127.882,47.5,136.882,43.5" style="stroke:#181818;stroke-width:1.0;"/><text fill="#000000" font-family="sans-serif" font-size="13" lengthAdjust="spacing" textLength="26" x="92.5" y="36.5669">http</text></g><!--link WebServer to TimeRegisterAPI--><g id="link_WebServer_TimeRegisterAPI"><path d="M257.156,43.5 C268.671,43.5 274.185,43.5 285.699,43.5 " fill="none" id="WebServer-to-TimeRegisterAPI" style="stroke:#181818;stroke-width:1.0;"/><polygon fill="#181818" points="291.699,43.5,282.699,39.5,286.699,43.5,282.699,47.5,291.699,43.5" style="stroke:#181818;stroke-width:1.0;"/></g><!--link TimeRegisterAPI to Laravel--><g id="link_TimeRegisterAPI_Laravel"><path d="M342.584,75.071 C333.722,85.833 324.815,98.504 319,111.5 C312.395,126.2612 309.9883,138.3362 308.6483,152.2709 " fill="none" id="TimeRegisterAPI-to-Laravel" style="stroke:#181818;stroke-width:1.0;stroke-dasharray:7.0,7.0;"/><polygon fill="#181818" points="308.074,158.2433,312.9171,149.6675,308.5526,153.2663,304.9539,148.9017,308.074,158.2433" style="stroke:#181818;stroke-width:1.0;"/><text fill="#000000" font-family="sans-serif" font-size="13" lengthAdjust="spacing" textLength="72" x="320" y="124.5669">Framework</text></g><!--link TimeRegisterAPI to MariaDB--><g id="link_TimeRegisterAPI_MariaDB"><path d="M386.587,75.021 C398.64,100.239 412.8846,130.043 423.7176,152.7086 " fill="none" id="TimeRegisterAPI-to-MariaDB" style="stroke:#181818;stroke-width:1.0;stroke-dasharray:7.0,7.0;"/><polygon fill="#181818" points="426.305,158.1221,426.0329,148.277,424.1489,153.6109,418.815,151.7268,426.305,158.1221" style="stroke:#181818;stroke-width:1.0;"/><text fill="#000000" font-family="sans-serif" font-size="13" lengthAdjust="spacing" textLength="62" x="411" y="124.5669">Database</text></g><!--link WebServer to Nginx--><g id="link_WebServer_Nginx"><path d="M172.566,66.653 C144.673,91.943 103.7575,129.0399 75.8685,154.3259 " fill="none" id="WebServer-to-Nginx" style="stroke:#181818;stroke-width:1.0;"/><polygon fill="#181818" points="71.4235,158.356,80.7778,155.2741,75.1277,154.9976,75.4042,149.3475,71.4235,158.356" style="stroke:#181818;stroke-width:1.0;"/></g><!--link WebServer to Linux_SO--><g id="link_WebServer_Linux_SO"><path d="M193.253,66.653 C188.976,91.943 183.0214,127.154 178.7454,152.44 " fill="none" id="WebServer-to-Linux_SO" style="stroke:#181818;stroke-width:1.0;"/><polygon fill="#181818" points="177.745,158.356,183.1896,150.1489,178.5787,153.426,175.3016,148.815,177.745,158.356" style="stroke:#181818;stroke-width:1.0;"/></g><!--link WebServer to MariaDB--><g id="link_WebServer_MariaDB"><path d="M221.295,66.702 C242.288,85.047 274.047,110.8529 305,128.5 C330.891,143.2609 356.1405,153.6812 381.5365,162.68 " fill="none" id="WebServer-to-MariaDB" style="stroke:#181818;stroke-width:1.0;"/><polygon fill="#181818" points="387.192,164.684,380.0448,157.9078,382.4791,163.014,377.3728,165.4484,387.192,164.684" style="stroke:#181818;stroke-width:1.0;"/></g><!--link WebServer to Laravel--><g id="link_WebServer_Laravel"><path d="M205.575,66.728 C213.16,84.609 225.434,109.7552 241,128.5 C250.226,139.6104 257.3967,146.2913 268.5967,154.7386 " fill="none" id="WebServer-to-Laravel" style="stroke:#181818;stroke-width:1.0;"/><polygon fill="#181818" points="273.387,158.3515,268.6102,149.7386,269.3951,155.3407,263.793,156.1256,273.387,158.3515" style="stroke:#181818;stroke-width:1.0;"/></g><!--SRC=[ROzD2eCm44RtEKKke0Se8bYiKEWVAdHPeWusj4vaJDNZDxOD1kicYs_UVFCIbLeHJqYX1gmOgWhu5OeCg0TYfMfQXO2QvxA156hPQQ3eikT1CBtfBil3qC4EWaGFJoSv2f8YtZh9gPOukZiIN-CjEpDcDRWNpX9ym-zQjsmEF9BrNHjcASMMWL-f0VtGQfcgX4G3WwB7FskudwpXOg558Jfmpqvbvkh7dwyCx4VMPhPvRUqhzmO0]--></g></svg>