<?xml version="1.0" encoding="us-ascii" standalone="no"?><svg xmlns="http://www.w3.org/2000/svg" xmlns:xlink="http://www.w3.org/1999/xlink" contentStyleType="text/css" height="210px" preserveAspectRatio="none" style="width:445px;height:210px;background:#FFFFFF;" version="1.1" viewBox="0 0 445 210" width="445px" zoomAndPan="magnify"><defs/><g><!--entity Frontend--><g id="elem_Frontend"><ellipse cx="39" cy="14" fill="#F1F1F1" rx="8" ry="8" style="stroke:#181818;stroke-width:0.5;"/><path d="M39,22 L39,49 M26,30 L52,30 M39,49 L26,64 M39,49 L52,64 " fill="none" style="stroke:#181818;stroke-width:0.5;"/><text fill="#000000" font-family="sans-serif" font-size="14" lengthAdjust="spacing" textLength="66" x="6" y="78.4951">Frontend</text></g><!--entity WebServer--><g id="elem_WebServer"><polygon fill="#F1F1F1" points="135,30.5,145,20.5,255,20.5,255,56.7969,245,66.7969,135,66.7969,135,30.5" style="stroke:#181818;stroke-width:0.5;"/><line style="stroke:#181818;stroke-width:0.5;" x1="245" x2="255" y1="30.5" y2="20.5"/><line style="stroke:#181818;stroke-width:0.5;" x1="135" x2="245" y1="30.5" y2="30.5"/><line style="stroke:#181818;stroke-width:0.5;" x1="245" x2="245" y1="30.5" y2="66.7969"/><text fill="#000000" font-family="sans-serif" font-size="14" lengthAdjust="spacing" textLength="80" x="150" y="53.4951">WebServer</text></g><!--entity Laravel--><g id="elem_Laravel"><rect fill="#F1F1F1" height="46.2969" rx="2.5" ry="2.5" style="stroke:#181818;stroke-width:0.5;" width="91" x="348.5" y="20.5"/><rect fill="#F1F1F1" height="10" style="stroke:#181818;stroke-width:0.5;" width="15" x="419.5" y="25.5"/><rect fill="#F1F1F1" height="2" style="stroke:#181818;stroke-width:0.5;" width="4" x="417.5" y="27.5"/><rect fill="#F1F1F1" height="2" style="stroke:#181818;stroke-width:0.5;" width="4" x="417.5" y="31.5"/><text fill="#000000" font-family="sans-serif" font-size="14" lengthAdjust="spacing" textLength="51" x="363.5" y="53.4951">Laravel</text></g><!--entity MariaDB--><g id="elem_MariaDB"><rect fill="#F1F1F1" height="46.2969" rx="2.5" ry="2.5" style="stroke:#181818;stroke-width:0.5;" width="99" x="305.5" y="158.5"/><rect fill="#F1F1F1" height="10" style="stroke:#181818;stroke-width:0.5;" width="15" x="384.5" y="163.5"/><rect fill="#F1F1F1" height="2" style="stroke:#181818;stroke-width:0.5;" width="4" x="382.5" y="165.5"/><rect fill="#F1F1F1" height="2" style="stroke:#181818;stroke-width:0.5;" width="4" x="382.5" y="169.5"/><text fill="#000000" font-family="sans-serif" font-size="14" lengthAdjust="spacing" textLength="59" x="320.5" y="191.4951">MariaDB</text></g><!--entity Nginx--><g id="elem_Nginx"><rect fill="#F1F1F1" height="46.2969" rx="2.5" ry="2.5" style="stroke:#181818;stroke-width:0.5;" width="80" x="36" y="158.5"/><rect fill="#F1F1F1" height="10" style="stroke:#181818;stroke-width:0.5;" width="15" x="96" y="163.5"/><rect fill="#F1F1F1" height="2" style="stroke:#181818;stroke-width:0.5;" width="4" x="94" y="165.5"/><rect fill="#F1F1F1" height="2" style="stroke:#181818;stroke-width:0.5;" width="4" x="94" y="169.5"/><text fill="#000000" font-family="sans-serif" font-size="14" lengthAdjust="spacing" textLength="40" x="51" y="191.4951">Nginx</text></g><!--entity Linux_SO--><g id="elem_Linux_SO"><rect fill="#F1F1F1" height="46.2969" rx="2.5" ry="2.5" style="stroke:#181818;stroke-width:0.5;" width="104" x="151" y="158.5"/><rect fill="#F1F1F1" height="10" style="stroke:#181818;stroke-width:0.5;" width="15" x="235" y="163.5"/><rect fill="#F1F1F1" height="2" style="stroke:#181818;stroke-width:0.5;" width="4" x="233" y="165.5"/><rect fill="#F1F1F1" height="2" style="stroke:#181818;stroke-width:0.5;" width="4" x="233" y="169.5"/><text fill="#000000" font-family="sans-serif" font-size="14" lengthAdjust="spacing" textLength="64" x="166" y="191.4951">Linux_SO</text></g><!--link Frontend to WebServer--><g id="link_Frontend_WebServer"><path d="M72.0836,43.5 C90.329,43.5 107.548,43.5 128.882,43.5 " fill="none" id="Frontend-to-WebServer" style="stroke:#181818;stroke-width:1.0;"/><polygon fill="#181818" points="134.882,43.5,125.882,39.5,129.882,43.5,125.882,47.5,134.882,43.5" style="stroke:#181818;stroke-width:1.0;"/><text fill="#000000" font-family="sans-serif" font-size="13" lengthAdjust="spacing" textLength="26" x="90.5" y="36.5669">http</text></g><!--link WebServer to Laravel--><g id="link_WebServer_Laravel"><path d="M255.247,43.5 C285.218,43.5 314.849,43.5 342.499,43.5 " fill="none" id="WebServer-to-Laravel" style="stroke:#181818;stroke-width:1.0;"/><polygon fill="#181818" points="348.499,43.5,339.499,39.5,343.499,43.5,339.499,47.5,348.499,43.5" style="stroke:#181818;stroke-width:1.0;"/><text fill="#000000" font-family="sans-serif" font-size="13" lengthAdjust="spacing" textLength="57" x="273.25" y="36.5669">API REST</text></g><!--link Laravel to MariaDB--><g id="link_Laravel_MariaDB"><path d="M387.647,66.653 C380.395,91.943 370.2549,127.3025 363.0039,152.5885 " fill="none" id="Laravel-to-MariaDB" style="stroke:#181818;stroke-width:1.0;stroke-dasharray:7.0,7.0;"/><polygon fill="#181818" points="361.35,158.356,367.6759,150.8073,362.7282,153.5497,359.9858,148.6021,361.35,158.356" style="stroke:#181818;stroke-width:1.0;"/><text fill="#000000" font-family="sans-serif" font-size="13" lengthAdjust="spacing" textLength="23" x="375" y="124.5669">use</text></g><!--link WebServer to Nginx--><g id="link_WebServer_Nginx"><path d="M175.616,66.653 C153.487,91.943 121.452,128.5545 99.327,153.8405 " fill="none" id="WebServer-to-Nginx" style="stroke:#181818;stroke-width:1.0;stroke-dasharray:7.0,7.0;"/><polygon fill="#181818" points="95.376,158.356,104.3128,154.2168,98.6685,154.5931,98.2922,148.9488,95.376,158.356" style="stroke:#181818;stroke-width:1.0;"/><text fill="#000000" font-family="sans-serif" font-size="13" lengthAdjust="spacing" textLength="23" x="136" y="124.5669">has</text></g><!--link WebServer to Linux_SO--><g id="link_WebServer_Linux_SO"><path d="M196.303,66.653 C197.791,91.943 199.8578,127.0803 201.3448,152.3663 " fill="none" id="WebServer-to-Linux_SO" style="stroke:#181818;stroke-width:1.0;stroke-dasharray:7.0,7.0;"/><polygon fill="#181818" points="201.697,158.356,205.1617,149.1367,201.4035,153.3646,197.1755,149.6063,201.697,158.356" style="stroke:#181818;stroke-width:1.0;"/><text fill="#000000" font-family="sans-serif" font-size="13" lengthAdjust="spacing" textLength="23" x="200" y="124.5669">has</text></g><!--link WebServer to MariaDB--><g id="link_WebServer_MariaDB"><path d="M221.063,66.653 C250.816,91.943 294.6284,129.1841 324.3764,154.4701 " fill="none" id="WebServer-to-MariaDB" style="stroke:#181818;stroke-width:1.0;stroke-dasharray:7.0,7.0;"/><polygon fill="#181818" points="328.948,158.356,324.6812,149.4794,325.1383,155.1177,319.5,155.5749,328.948,158.356" style="stroke:#181818;stroke-width:1.0;"/><text fill="#000000" font-family="sans-serif" font-size="13" lengthAdjust="spacing" textLength="23" x="290" y="124.5669">has</text></g><!--SRC=[TOvB2i8m48RtESLSe3c0Yq951S4NHd0fiHdQW9sKQLfxVACOaeLk_-z_LRLt31jsv96C86SGhdXNo1Eog5tNEqBoiDEi9tnaobwprQjbfXmQItEUiJJEDtKK8lP3KQPsM43hVI-IKB1jMXyytxNWg4vREA_LHKH9oZ9E1pmEcEMbSKyA_7FaNQ-77pJU-cj8zO6_0000]--></g></svg>