<?xml version="1.0" encoding="us-ascii" standalone="no"?><svg xmlns="http://www.w3.org/2000/svg" xmlns:xlink="http://www.w3.org/1999/xlink" contentStyleType="text/css" height="333px" preserveAspectRatio="none" style="width:524px;height:333px;background:#FFFFFF;" version="1.1" viewBox="0 0 524 333" width="524px" zoomAndPan="magnify"><defs/><g><!--entity Frontend--><g id="elem_Frontend"><ellipse cx="39" cy="14" fill="#F1F1F1" rx="8" ry="8" style="stroke:#181818;stroke-width:0.5;"/><path d="M39,22 L39,49 M26,30 L52,30 M39,49 L26,64 M39,49 L52,64 " fill="none" style="stroke:#181818;stroke-width:0.5;"/><text fill="#000000" font-family="sans-serif" font-size="14" lengthAdjust="spacing" textLength="66" x="6" y="78.4951">Frontend</text></g><!--entity WebServer--><g id="elem_WebServer"><polygon fill="#F1F1F1" points="135,30.5,145,20.5,255,20.5,255,56.7969,245,66.7969,135,66.7969,135,30.5" style="stroke:#181818;stroke-width:0.5;"/><line style="stroke:#181818;stroke-width:0.5;" x1="245" x2="255" y1="30.5" y2="20.5"/><line style="stroke:#181818;stroke-width:0.5;" x1="135" x2="245" y1="30.5" y2="30.5"/><line style="stroke:#181818;stroke-width:0.5;" x1="245" x2="245" y1="30.5" y2="66.7969"/><text fill="#000000" font-family="sans-serif" font-size="14" lengthAdjust="spacing" textLength="80" x="150" y="53.4951">WebServer</text></g><!--entity TimeRegisterAPI--><g id="elem_TimeRegisterAPI"><rect fill="#F1F1F1" height="46.2969" rx="2.5" ry="2.5" style="stroke:#181818;stroke-width:0.5;" width="160" x="352" y="20.5"/><rect fill="#F1F1F1" height="10" style="stroke:#181818;stroke-width:0.5;" width="15" x="492" y="25.5"/><rect fill="#F1F1F1" height="2" style="stroke:#181818;stroke-width:0.5;" width="4" x="490" y="27.5"/><rect fill="#F1F1F1" height="2" style="stroke:#181818;stroke-width:0.5;" width="4" x="490" y="31.5"/><text fill="#000000" font-family="sans-serif" font-size="14" lengthAdjust="spacing" textLength="120" x="367" y="53.4951">TimeRegisterAPI</text></g><!--entity Laravel--><g id="elem_Laravel"><rect fill="#F1F1F1" height="46.2969" rx="2.5" ry="2.5" style="stroke:#181818;stroke-width:0.5;" width="91" x="405.5" y="158.5"/><rect fill="#F1F1F1" height="10" style="stroke:#181818;stroke-width:0.5;" width="15" x="476.5" y="163.5"/><rect fill="#F1F1F1" height="2" style="stroke:#181818;stroke-width:0.5;" width="4" x="474.5" y="165.5"/><rect fill="#F1F1F1" height="2" style="stroke:#181818;stroke-width:0.5;" width="4" x="474.5" y="169.5"/><text fill="#000000" font-family="sans-serif" font-size="14" lengthAdjust="spacing" textLength="51" x="420.5" y="191.4951">Laravel</text></g><!--entity MariaDB--><g id="elem_MariaDB"><rect fill="#F1F1F1" height="46.2969" rx="2.5" ry="2.5" style="stroke:#181818;stroke-width:0.5;" width="99" x="145.5" y="281.5"/><rect fill="#F1F1F1" height="10" style="stroke:#181818;stroke-width:0.5;" width="15" x="224.5" y="286.5"/><rect fill="#F1F1F1" height="2" style="stroke:#181818;stroke-width:0.5;" width="4" x="222.5" y="288.5"/><rect fill="#F1F1F1" height="2" style="stroke:#181818;stroke-width:0.5;" width="4" x="222.5" y="292.5"/><text fill="#000000" font-family="sans-serif" font-size="14" lengthAdjust="spacing" textLength="59" x="160.5" y="314.4951">MariaDB</text></g><!--entity Nginx--><g id="elem_Nginx"><rect fill="#F1F1F1" height="46.2969" rx="2.5" ry="2.5" style="stroke:#181818;stroke-width:0.5;" width="80" x="151" y="158.5"/><rect fill="#F1F1F1" height="10" style="stroke:#181818;stroke-width:0.5;" width="15" x="211" y="163.5"/><rect fill="#F1F1F1" height="2" style="stroke:#181818;stroke-width:0.5;" width="4" x="209" y="165.5"/><rect fill="#F1F1F1" height="2" style="stroke:#181818;stroke-width:0.5;" width="4" x="209" y="169.5"/><text fill="#000000" font-family="sans-serif" font-size="14" lengthAdjust="spacing" textLength="40" x="166" y="191.4951">Nginx</text></g><!--entity Linux_SO--><g id="elem_Linux_SO"><rect fill="#F1F1F1" height="46.2969" rx="2.5" ry="2.5" style="stroke:#181818;stroke-width:0.5;" width="104" x="266" y="158.5"/><rect fill="#F1F1F1" height="10" style="stroke:#181818;stroke-width:0.5;" width="15" x="350" y="163.5"/><rect fill="#F1F1F1" height="2" style="stroke:#181818;stroke-width:0.5;" width="4" x="348" y="165.5"/><rect fill="#F1F1F1" height="2" style="stroke:#181818;stroke-width:0.5;" width="4" x="348" y="169.5"/><text fill="#000000" font-family="sans-serif" font-size="14" lengthAdjust="spacing" textLength="64" x="281" y="191.4951">Linux_SO</text></g><!--link Frontend to WebServer--><g id="link_Frontend_WebServer"><path d="M72.0836,43.5 C90.329,43.5 107.548,43.5 128.882,43.5 " fill="none" id="Frontend-to-WebServer" style="stroke:#181818;stroke-width:1.0;"/><polygon fill="#181818" points="134.882,43.5,125.882,39.5,129.882,43.5,125.882,47.5,134.882,43.5" style="stroke:#181818;stroke-width:1.0;"/><text fill="#000000" font-family="sans-serif" font-size="13" lengthAdjust="spacing" textLength="26" x="90.5" y="36.5669">http</text></g><!--link WebServer to TimeRegisterAPI--><g id="link_WebServer_TimeRegisterAPI"><path d="M255.111,43.5 C284.459,43.5 314.175,43.5 345.81,43.5 " fill="none" id="WebServer-to-TimeRegisterAPI" style="stroke:#181818;stroke-width:1.0;"/><polygon fill="#181818" points="351.81,43.5,342.81,39.5,346.81,43.5,342.81,47.5,351.81,43.5" style="stroke:#181818;stroke-width:1.0;"/><text fill="#000000" font-family="sans-serif" font-size="13" lengthAdjust="spacing" textLength="57" x="275" y="36.5669">API REST</text></g><!--link TimeRegisterAPI to Laravel--><g id="link_TimeRegisterAPI_Laravel"><path d="M435.095,66.653 C438.628,91.943 443.544,127.1277 447.076,152.4137 " fill="none" id="TimeRegisterAPI-to-Laravel" style="stroke:#181818;stroke-width:1.0;"/><polygon fill="#181818" points="447.906,158.356,450.6225,148.8892,447.2143,153.4041,442.6994,149.9959,447.906,158.356" style="stroke:#181818;stroke-width:1.0;"/><text fill="#000000" font-family="sans-serif" font-size="13" lengthAdjust="spacing" textLength="72" x="444" y="124.5669">Framework</text></g><!--link Laravel to MariaDB--><g id="link_Laravel_MariaDB"><path d="M405.232,204.132 C359.067,225.953 293.5766,256.9069 247.0926,278.8779 " fill="none" id="Laravel-to-MariaDB" style="stroke:#181818;stroke-width:1.0;stroke-dasharray:7.0,7.0;"/><polygon fill="#181818" points="241.668,281.4419,251.5142,281.2123,246.1885,279.3053,248.0956,273.9796,241.668,281.4419" style="stroke:#181818;stroke-width:1.0;"/><text fill="#000000" font-family="sans-serif" font-size="13" lengthAdjust="spacing" textLength="23" x="339" y="247.5669">use</text></g><!--link WebServer to Nginx--><g id="link_WebServer_Nginx"><path d="M194.348,66.653 C193.605,91.943 192.5715,127.0726 191.8275,152.3586 " fill="none" id="WebServer-to-Nginx" style="stroke:#181818;stroke-width:1.0;stroke-dasharray:7.0,7.0;"/><polygon fill="#181818" points="191.651,158.356,195.914,149.4775,191.7981,153.3582,187.9174,149.2423,191.651,158.356" style="stroke:#181818;stroke-width:1.0;"/><text fill="#000000" font-family="sans-serif" font-size="13" lengthAdjust="spacing" textLength="23" x="194" y="124.5669">has</text></g><!--link WebServer to Linux_SO--><g id="link_WebServer_Linux_SO"><path d="M215.036,66.653 C237.908,91.943 271.0794,128.62 293.9484,153.906 " fill="none" id="WebServer-to-Linux_SO" style="stroke:#181818;stroke-width:1.0;stroke-dasharray:7.0,7.0;"/><polygon fill="#181818" points="297.973,158.356,294.9027,148.9979,294.6191,154.6477,288.9694,154.3641,297.973,158.356" style="stroke:#181818;stroke-width:1.0;"/><text fill="#000000" font-family="sans-serif" font-size="13" lengthAdjust="spacing" textLength="23" x="268" y="124.5669">has</text></g><!--link WebServer to MariaDB--><g id="link_WebServer_MariaDB"><path d="M170.829,66.661 C149.643,87.862 120.356,121.942 108,158.5 C101.4538,177.868 100.7887,185.37 108,204.5 C119.703,235.5452 141.5495,259.2249 162.2065,277.3552 " fill="none" id="WebServer-to-MariaDB" style="stroke:#181818;stroke-width:1.0;stroke-dasharray:7.0,7.0;"/><polygon fill="#181818" points="166.716,281.3131,162.5904,272.37,162.9581,278.0149,157.3132,278.3826,166.716,281.3131" style="stroke:#181818;stroke-width:1.0;"/><text fill="#000000" font-family="sans-serif" font-size="13" lengthAdjust="spacing" textLength="23" x="109" y="186.0669">has</text></g><!--SRC=[TO_D2eCm48JlUOgyW3v03uAb5GhzGuKUIwgBXjQDhElFupUM1eEqbnpccydCnWKRaWaPPC1Ie2b1tk2H0Gr0eZ1DQn2GPQuRIA7I7GF5ruD7ZehK02zFEIdIQhVrb7EbSV8p6llfdbs4SCqoY9PUkP4rSoiM8I1TrMmzgntMER_fFil56WMb6T56lWEjDI7Lm6ZeAPmMXf6RQtdVWTSPpddBF-FdIQhxGTqfVmtBzvQ_0G00]--></g></svg>