<?xml version="1.0" encoding="us-ascii" standalone="no"?><svg xmlns="http://www.w3.org/2000/svg" xmlns:xlink="http://www.w3.org/1999/xlink" contentStyleType="text/css" height="451px" preserveAspectRatio="none" style="width:368px;height:451px;background:#FFFFFF;" version="1.1" viewBox="0 0 368 451" width="368px" zoomAndPan="magnify"><defs/><g><!--class TimeRegister--><g id="elem_TimeRegister"><rect codeLine="1" fill="#F1F1F1" height="48" id="TimeRegister" rx="2.5" ry="2.5" style="stroke:#181818;stroke-width:0.5;" width="129" x="165.5" y="7"/><ellipse cx="180.5" cy="23" fill="#ADD1B2" rx="11" ry="11" style="stroke:#181818;stroke-width:1.0;"/><path d="M182.8438,18.6719 C181.9063,18.2344 181.3125,18.0938 180.4375,18.0938 C177.8125,18.0938 175.8125,20.1719 175.8125,22.8906 L175.8125,24.0156 C175.8125,26.5938 177.9219,28.4844 180.8125,28.4844 C182.0313,28.4844 183.1875,28.1875 183.9375,27.6406 C184.5156,27.2344 184.8438,26.7813 184.8438,26.3906 C184.8438,25.9375 184.4531,25.5469 183.9844,25.5469 C183.7656,25.5469 183.5625,25.625 183.375,25.8125 C182.9219,26.2969 182.9219,26.2969 182.7344,26.3906 C182.3125,26.6563 181.625,26.7813 180.8594,26.7813 C178.8125,26.7813 177.5156,25.6875 177.5156,23.9844 L177.5156,22.8906 C177.5156,21.1094 178.7656,19.7969 180.5,19.7969 C181.0781,19.7969 181.6875,19.9531 182.1563,20.2031 C182.6406,20.4844 182.8125,20.7031 182.9063,21.1094 C182.9688,21.5156 183,21.6406 183.1406,21.7656 C183.2813,21.9063 183.5156,22.0156 183.7344,22.0156 C184,22.0156 184.2656,21.875 184.4375,21.6563 C184.5469,21.5 184.5781,21.3125 184.5781,20.8906 L184.5781,19.4688 C184.5781,19.0313 184.5625,18.9063 184.4688,18.75 C184.3125,18.4844 184.0313,18.3438 183.7344,18.3438 C183.4375,18.3438 183.2344,18.4375 183.0156,18.75 L182.8438,18.6719 Z " fill="#000000"/><text fill="#000000" font-family="sans-serif" font-size="14" lengthAdjust="spacing" textLength="97" x="194.5" y="27.8467">TimeRegister</text><line style="stroke:#181818;stroke-width:0.5;" x1="166.5" x2="293.5" y1="39" y2="39"/><line style="stroke:#181818;stroke-width:0.5;" x1="166.5" x2="293.5" y1="47" y2="47"/></g><!--class User--><g id="elem_User"><rect codeLine="2" fill="#F1F1F1" height="48" id="User" rx="2.5" ry="2.5" style="stroke:#181818;stroke-width:0.5;" width="63" x="198.5" y="115"/><ellipse cx="213.5" cy="131" fill="#ADD1B2" rx="11" ry="11" style="stroke:#181818;stroke-width:1.0;"/><path d="M215.8438,126.6719 C214.9063,126.2344 214.3125,126.0938 213.4375,126.0938 C210.8125,126.0938 208.8125,128.1719 208.8125,130.8906 L208.8125,132.0156 C208.8125,134.5938 210.9219,136.4844 213.8125,136.4844 C215.0313,136.4844 216.1875,136.1875 216.9375,135.6406 C217.5156,135.2344 217.8438,134.7813 217.8438,134.3906 C217.8438,133.9375 217.4531,133.5469 216.9844,133.5469 C216.7656,133.5469 216.5625,133.625 216.375,133.8125 C215.9219,134.2969 215.9219,134.2969 215.7344,134.3906 C215.3125,134.6563 214.625,134.7813 213.8594,134.7813 C211.8125,134.7813 210.5156,133.6875 210.5156,131.9844 L210.5156,130.8906 C210.5156,129.1094 211.7656,127.7969 213.5,127.7969 C214.0781,127.7969 214.6875,127.9531 215.1563,128.2031 C215.6406,128.4844 215.8125,128.7031 215.9063,129.1094 C215.9688,129.5156 216,129.6406 216.1406,129.7656 C216.2813,129.9063 216.5156,130.0156 216.7344,130.0156 C217,130.0156 217.2656,129.875 217.4375,129.6563 C217.5469,129.5 217.5781,129.3125 217.5781,128.8906 L217.5781,127.4688 C217.5781,127.0313 217.5625,126.9063 217.4688,126.75 C217.3125,126.4844 217.0313,126.3438 216.7344,126.3438 C216.4375,126.3438 216.2344,126.4375 216.0156,126.75 L215.8438,126.6719 Z " fill="#000000"/><text fill="#000000" font-family="sans-serif" font-size="14" lengthAdjust="spacing" textLength="31" x="227.5" y="135.8467">User</text><line style="stroke:#181818;stroke-width:0.5;" x1="199.5" x2="260.5" y1="147" y2="147"/><line style="stroke:#181818;stroke-width:0.5;" x1="199.5" x2="260.5" y1="155" y2="155"/></g><!--class Project--><g id="elem_Project"><rect codeLine="3" fill="#F1F1F1" height="48" id="Project" rx="2.5" ry="2.5" style="stroke:#181818;stroke-width:0.5;" width="84" x="108" y="396"/><ellipse cx="123" cy="412" fill="#ADD1B2" rx="11" ry="11" style="stroke:#181818;stroke-width:1.0;"/><path d="M125.3438,407.6719 C124.4063,407.2344 123.8125,407.0938 122.9375,407.0938 C120.3125,407.0938 118.3125,409.1719 118.3125,411.8906 L118.3125,413.0156 C118.3125,415.5938 120.4219,417.4844 123.3125,417.4844 C124.5313,417.4844 125.6875,417.1875 126.4375,416.6406 C127.0156,416.2344 127.3438,415.7813 127.3438,415.3906 C127.3438,414.9375 126.9531,414.5469 126.4844,414.5469 C126.2656,414.5469 126.0625,414.625 125.875,414.8125 C125.4219,415.2969 125.4219,415.2969 125.2344,415.3906 C124.8125,415.6563 124.125,415.7813 123.3594,415.7813 C121.3125,415.7813 120.0156,414.6875 120.0156,412.9844 L120.0156,411.8906 C120.0156,410.1094 121.2656,408.7969 123,408.7969 C123.5781,408.7969 124.1875,408.9531 124.6563,409.2031 C125.1406,409.4844 125.3125,409.7031 125.4063,410.1094 C125.4688,410.5156 125.5,410.6406 125.6406,410.7656 C125.7813,410.9063 126.0156,411.0156 126.2344,411.0156 C126.5,411.0156 126.7656,410.875 126.9375,410.6563 C127.0469,410.5 127.0781,410.3125 127.0781,409.8906 L127.0781,408.4688 C127.0781,408.0313 127.0625,407.9063 126.9688,407.75 C126.8125,407.4844 126.5313,407.3438 126.2344,407.3438 C125.9375,407.3438 125.7344,407.4375 125.5156,407.75 L125.3438,407.6719 Z " fill="#000000"/><text fill="#000000" font-family="sans-serif" font-size="14" lengthAdjust="spacing" textLength="52" x="137" y="416.8467">Project</text><line style="stroke:#181818;stroke-width:0.5;" x1="109" x2="191" y1="428" y2="428"/><line style="stroke:#181818;stroke-width:0.5;" x1="109" x2="191" y1="436" y2="436"/></g><!--class Category--><g id="elem_Category"><rect codeLine="4" fill="#F1F1F1" height="48" id="Category" rx="2.5" ry="2.5" style="stroke:#181818;stroke-width:0.5;" width="98" x="250" y="396"/><ellipse cx="265" cy="412" fill="#ADD1B2" rx="11" ry="11" style="stroke:#181818;stroke-width:1.0;"/><path d="M267.3438,407.6719 C266.4063,407.2344 265.8125,407.0938 264.9375,407.0938 C262.3125,407.0938 260.3125,409.1719 260.3125,411.8906 L260.3125,413.0156 C260.3125,415.5938 262.4219,417.4844 265.3125,417.4844 C266.5313,417.4844 267.6875,417.1875 268.4375,416.6406 C269.0156,416.2344 269.3438,415.7813 269.3438,415.3906 C269.3438,414.9375 268.9531,414.5469 268.4844,414.5469 C268.2656,414.5469 268.0625,414.625 267.875,414.8125 C267.4219,415.2969 267.4219,415.2969 267.2344,415.3906 C266.8125,415.6563 266.125,415.7813 265.3594,415.7813 C263.3125,415.7813 262.0156,414.6875 262.0156,412.9844 L262.0156,411.8906 C262.0156,410.1094 263.2656,408.7969 265,408.7969 C265.5781,408.7969 266.1875,408.9531 266.6563,409.2031 C267.1406,409.4844 267.3125,409.7031 267.4063,410.1094 C267.4688,410.5156 267.5,410.6406 267.6406,410.7656 C267.7813,410.9063 268.0156,411.0156 268.2344,411.0156 C268.5,411.0156 268.7656,410.875 268.9375,410.6563 C269.0469,410.5 269.0781,410.3125 269.0781,409.8906 L269.0781,408.4688 C269.0781,408.0313 269.0625,407.9063 268.9688,407.75 C268.8125,407.4844 268.5313,407.3438 268.2344,407.3438 C267.9375,407.3438 267.7344,407.4375 267.5156,407.75 L267.3438,407.6719 Z " fill="#000000"/><text fill="#000000" font-family="sans-serif" font-size="14" lengthAdjust="spacing" textLength="66" x="279" y="416.8467">Category</text><line style="stroke:#181818;stroke-width:0.5;" x1="251" x2="347" y1="428" y2="428"/><line style="stroke:#181818;stroke-width:0.5;" x1="251" x2="347" y1="436" y2="436"/></g><!--class Interval--><g id="elem_Interval"><rect codeLine="5" fill="#F1F1F1" height="113.1875" id="Interval" rx="2.5" ry="2.5" style="stroke:#181818;stroke-width:0.5;" width="172" x="144" y="223"/><ellipse cx="198.25" cy="239" fill="#ADD1B2" rx="11" ry="11" style="stroke:#181818;stroke-width:1.0;"/><path d="M200.5938,234.6719 C199.6563,234.2344 199.0625,234.0938 198.1875,234.0938 C195.5625,234.0938 193.5625,236.1719 193.5625,238.8906 L193.5625,240.0156 C193.5625,242.5938 195.6719,244.4844 198.5625,244.4844 C199.7813,244.4844 200.9375,244.1875 201.6875,243.6406 C202.2656,243.2344 202.5938,242.7813 202.5938,242.3906 C202.5938,241.9375 202.2031,241.5469 201.7344,241.5469 C201.5156,241.5469 201.3125,241.625 201.125,241.8125 C200.6719,242.2969 200.6719,242.2969 200.4844,242.3906 C200.0625,242.6563 199.375,242.7813 198.6094,242.7813 C196.5625,242.7813 195.2656,241.6875 195.2656,239.9844 L195.2656,238.8906 C195.2656,237.1094 196.5156,235.7969 198.25,235.7969 C198.8281,235.7969 199.4375,235.9531 199.9063,236.2031 C200.3906,236.4844 200.5625,236.7031 200.6563,237.1094 C200.7188,237.5156 200.75,237.6406 200.8906,237.7656 C201.0313,237.9063 201.2656,238.0156 201.4844,238.0156 C201.75,238.0156 202.0156,237.875 202.1875,237.6563 C202.2969,237.5 202.3281,237.3125 202.3281,236.8906 L202.3281,235.4688 C202.3281,235.0313 202.3125,234.9063 202.2188,234.75 C202.0625,234.4844 201.7813,234.3438 201.4844,234.3438 C201.1875,234.3438 200.9844,234.4375 200.7656,234.75 L200.5938,234.6719 Z " fill="#000000"/><text fill="#000000" font-family="sans-serif" font-size="14" lengthAdjust="spacing" textLength="55" x="218.75" y="243.8467">Interval</text><line style="stroke:#181818;stroke-width:0.5;" x1="145" x2="315" y1="255" y2="255"/><text fill="#000000" font-family="sans-serif" font-size="14" lengthAdjust="spacing" textLength="71" x="150" y="271.9951">startTime</text><text fill="#000000" font-family="sans-serif" font-size="14" lengthAdjust="spacing" textLength="63" x="150" y="288.292">endTime</text><line style="stroke:#181818;stroke-width:0.5;" x1="145" x2="315" y1="295.5938" y2="295.5938"/><text fill="#000000" font-family="sans-serif" font-size="14" lengthAdjust="spacing" textLength="160" x="150" y="312.5889">begin(project Project)</text><text fill="#000000" font-family="sans-serif" font-size="14" lengthAdjust="spacing" textLength="37" x="150" y="328.8857">end()</text></g><!--class Customer--><g id="elem_Customer"><rect codeLine="12" fill="#F1F1F1" height="48" id="Customer" rx="2.5" ry="2.5" style="stroke:#181818;stroke-width:0.5;" width="102" x="7" y="255.5"/><ellipse cx="22" cy="271.5" fill="#ADD1B2" rx="11" ry="11" style="stroke:#181818;stroke-width:1.0;"/><path d="M24.3438,267.1719 C23.4063,266.7344 22.8125,266.5938 21.9375,266.5938 C19.3125,266.5938 17.3125,268.6719 17.3125,271.3906 L17.3125,272.5156 C17.3125,275.0938 19.4219,276.9844 22.3125,276.9844 C23.5313,276.9844 24.6875,276.6875 25.4375,276.1406 C26.0156,275.7344 26.3438,275.2813 26.3438,274.8906 C26.3438,274.4375 25.9531,274.0469 25.4844,274.0469 C25.2656,274.0469 25.0625,274.125 24.875,274.3125 C24.4219,274.7969 24.4219,274.7969 24.2344,274.8906 C23.8125,275.1563 23.125,275.2813 22.3594,275.2813 C20.3125,275.2813 19.0156,274.1875 19.0156,272.4844 L19.0156,271.3906 C19.0156,269.6094 20.2656,268.2969 22,268.2969 C22.5781,268.2969 23.1875,268.4531 23.6563,268.7031 C24.1406,268.9844 24.3125,269.2031 24.4063,269.6094 C24.4688,270.0156 24.5,270.1406 24.6406,270.2656 C24.7813,270.4063 25.0156,270.5156 25.2344,270.5156 C25.5,270.5156 25.7656,270.375 25.9375,270.1563 C26.0469,270 26.0781,269.8125 26.0781,269.3906 L26.0781,267.9688 C26.0781,267.5313 26.0625,267.4063 25.9688,267.25 C25.8125,266.9844 25.5313,266.8438 25.2344,266.8438 C24.9375,266.8438 24.7344,266.9375 24.5156,267.25 L24.3438,267.1719 Z " fill="#000000"/><text fill="#000000" font-family="sans-serif" font-size="14" lengthAdjust="spacing" textLength="70" x="36" y="276.3467">Customer</text><line style="stroke:#181818;stroke-width:0.5;" x1="8" x2="108" y1="287.5" y2="287.5"/><line style="stroke:#181818;stroke-width:0.5;" x1="8" x2="108" y1="295.5" y2="295.5"/></g><!--link TimeRegister to User--><g id="link_TimeRegister_User"><path codeLine="14" d="M230,67 C230,84.658 230,90.941 230,108.678 " fill="none" id="TimeRegister-User" style="stroke:#181818;stroke-width:1.0;"/><polygon fill="#181818" points="230,55,226,61,230,67,234,61,230,55" style="stroke:#181818;stroke-width:1.0;"/><polygon fill="#181818" points="230,114.678,234,105.678,230,109.678,226,105.678,230,114.678" style="stroke:#181818;stroke-width:1.0;"/><text fill="#000000" font-family="sans-serif" font-size="13" lengthAdjust="spacing" textLength="8" x="221.025" y="104.0045">n</text></g><!--link User to Customer--><g id="link_User_Customer"><path codeLine="15" d="M191.3992,170.6371 C170.5172,187.2361 151.167,202.688 126,223 C112.837,233.623 102.9494,241.6693 90.7097,251.6803 " fill="none" id="User-Customer" style="stroke:#181818;stroke-width:1.0;"/><polygon fill="#181818" points="200.793,163.17,193.6071,163.7723,191.3992,170.6371,198.5851,170.0348,200.793,163.17" style="stroke:#181818;stroke-width:1.0;"/><polygon fill="#181818" points="86.0653,255.479,95.5643,252.8772,89.9356,252.3134,90.4994,246.6847,86.0653,255.479" style="stroke:#181818;stroke-width:1.0;"/><text fill="#000000" font-family="sans-serif" font-size="13" lengthAdjust="spacing" textLength="8" x="84.232" y="244.4857">n</text></g><!--link Customer to Project--><g id="link_Customer_Project"><path codeLine="16" d="M80.0385,313.6777 C97.0212,339.2437 114.2281,365.1483 131.2311,390.7448 " fill="none" id="Customer-Project" style="stroke:#181818;stroke-width:1.0;"/><polygon fill="#181818" points="73.3987,303.682,73.3867,310.8931,80.0385,313.6777,80.0505,306.4666,73.3987,303.682" style="stroke:#181818;stroke-width:1.0;"/><polygon fill="#181818" points="134.551,395.7426,132.903,386.0326,131.7844,391.5777,126.2393,390.4591,134.551,395.7426" style="stroke:#181818;stroke-width:1.0;"/><text fill="#000000" font-family="sans-serif" font-size="13" lengthAdjust="spacing" textLength="8" x="121.8103" y="385.0848">n</text></g><!--link User to Interval--><g id="link_User_Interval"><path codeLine="17" d="M230,175.182 C230,191.507 230,196.084 230,216.937 " fill="none" id="User-Interval" style="stroke:#181818;stroke-width:1.0;"/><polygon fill="#181818" points="230,163.182,226,169.182,230,175.182,234,169.182,230,163.182" style="stroke:#181818;stroke-width:1.0;"/><polygon fill="#181818" points="230,222.937,234,213.937,230,217.937,226,213.937,230,222.937" style="stroke:#181818;stroke-width:1.0;"/><text fill="#000000" font-family="sans-serif" font-size="13" lengthAdjust="spacing" textLength="8" x="221.4875" y="211.7923">n</text></g><!--link User to Category--><g id="link_User_Category"><path codeLine="18" d="M272.4622,161.2706 C297.1972,175.1326 319.172,192.194 334,223 C361.81,280.775 333.6355,352.3727 314.5245,390.3779 " fill="none" id="User-Category" style="stroke:#181818;stroke-width:1.0;"/><polygon fill="#181818" points="261.994,155.404,265.2726,161.8267,272.4622,161.2706,269.1836,154.8479,261.994,155.404" style="stroke:#181818;stroke-width:1.0;"/><polygon fill="#181818" points="311.829,395.7383,319.4459,389.4947,314.0753,391.2713,312.2986,385.9006,311.829,395.7383" style="stroke:#181818;stroke-width:1.0;"/><text fill="#000000" font-family="sans-serif" font-size="13" lengthAdjust="spacing" textLength="8" x="305.9811" y="385.0795">n</text></g><!--link Interval to Project--><g id="link_Interval_Project"><path codeLine="19" d="M191.9198,346.4261 C179.8348,367.3479 175.7492,374.4226 166.3082,390.7664 " fill="none" id="Interval-Project" style="stroke:#181818;stroke-width:1.0;"/><polygon fill="#181818" points="197.922,336.035,191.4572,339.2298,191.9198,346.4261,198.3846,343.2312,197.922,336.035" style="stroke:#181818;stroke-width:1.0;"/><polygon fill="#181818" points="163.307,395.9619,171.2724,390.1695,165.808,391.6323,164.3451,386.1679,163.307,395.9619" style="stroke:#181818;stroke-width:1.0;"/><text fill="#000000" font-family="sans-serif" font-size="13" lengthAdjust="spacing" textLength="8" x="157.6919" y="384.9642">1</text></g><!--link Interval to Category--><g id="link_Interval_Category"><path codeLine="20" d="M263.018,346.7759 C273.441,367.6977 276.7043,374.2477 284.8473,390.5915 " fill="none" id="Interval-Category" style="stroke:#181818;stroke-width:1.0;"/><polygon fill="none" points="257.667,336.035,256.7622,343.1891,263.018,346.7759,263.9228,339.6218,257.667,336.035" style="stroke:#181818;stroke-width:1.0;"/><polygon fill="#181818" points="287.523,395.9619,287.0897,386.1226,285.2933,391.4866,279.9292,389.6902,287.523,395.9619" style="stroke:#181818;stroke-width:1.0;"/><text fill="#000000" font-family="sans-serif" font-size="13" lengthAdjust="spacing" textLength="8" x="275.557" y="384.9642">n</text></g><!--SRC=[Iyv9B2vM2CdCJGrAJSyiBaajuae62uKMmva1HVbPgSab2b2kSs99Qdf-KIMKwva7r5IMcADGpQMWK5oIM5G2CWt8JirBWRAIW4RdQHH0ZO4QfmbHeg79LSi5Cxcqk2G_5sWl5xA35BHqK_BBytJj59Job23k0X6emd2jC0QgDDHEB1fXpiTc9ioZS2zgWMGC4SR19VAnwGC0]--></g></svg>