<?xml version="1.0" encoding="us-ascii" standalone="no"?><svg xmlns="http://www.w3.org/2000/svg" xmlns:xlink="http://www.w3.org/1999/xlink" contentStyleType="text/css" height="451px" preserveAspectRatio="none" style="width:326px;height:451px;background:#FFFFFF;" version="1.1" viewBox="0 0 326 451" width="326px" zoomAndPan="magnify"><defs/><g><!--class TimeRegister--><g id="elem_TimeRegister"><rect codeLine="1" fill="#F1F1F1" height="48" id="TimeRegister" rx="2.5" ry="2.5" style="stroke:#181818;stroke-width:0.5;" width="129" x="99.5" y="7"/><ellipse cx="114.5" cy="23" fill="#ADD1B2" rx="11" ry="11" style="stroke:#181818;stroke-width:1.0;"/><path d="M116.8438,18.6719 C115.9063,18.2344 115.3125,18.0938 114.4375,18.0938 C111.8125,18.0938 109.8125,20.1719 109.8125,22.8906 L109.8125,24.0156 C109.8125,26.5938 111.9219,28.4844 114.8125,28.4844 C116.0313,28.4844 117.1875,28.1875 117.9375,27.6406 C118.5156,27.2344 118.8438,26.7813 118.8438,26.3906 C118.8438,25.9375 118.4531,25.5469 117.9844,25.5469 C117.7656,25.5469 117.5625,25.625 117.375,25.8125 C116.9219,26.2969 116.9219,26.2969 116.7344,26.3906 C116.3125,26.6563 115.625,26.7813 114.8594,26.7813 C112.8125,26.7813 111.5156,25.6875 111.5156,23.9844 L111.5156,22.8906 C111.5156,21.1094 112.7656,19.7969 114.5,19.7969 C115.0781,19.7969 115.6875,19.9531 116.1563,20.2031 C116.6406,20.4844 116.8125,20.7031 116.9063,21.1094 C116.9688,21.5156 117,21.6406 117.1406,21.7656 C117.2813,21.9063 117.5156,22.0156 117.7344,22.0156 C118,22.0156 118.2656,21.875 118.4375,21.6563 C118.5469,21.5 118.5781,21.3125 118.5781,20.8906 L118.5781,19.4688 C118.5781,19.0313 118.5625,18.9063 118.4688,18.75 C118.3125,18.4844 118.0313,18.3438 117.7344,18.3438 C117.4375,18.3438 117.2344,18.4375 117.0156,18.75 L116.8438,18.6719 Z " fill="#000000"/><text fill="#000000" font-family="sans-serif" font-size="14" lengthAdjust="spacing" textLength="97" x="128.5" y="27.8467">TimeRegister</text><line style="stroke:#181818;stroke-width:0.5;" x1="100.5" x2="227.5" y1="39" y2="39"/><line style="stroke:#181818;stroke-width:0.5;" x1="100.5" x2="227.5" y1="47" y2="47"/></g><!--class User--><g id="elem_User"><rect codeLine="2" fill="#F1F1F1" height="48" id="User" rx="2.5" ry="2.5" style="stroke:#181818;stroke-width:0.5;" width="63" x="132.5" y="115"/><ellipse cx="147.5" cy="131" fill="#ADD1B2" rx="11" ry="11" style="stroke:#181818;stroke-width:1.0;"/><path d="M149.8438,126.6719 C148.9063,126.2344 148.3125,126.0938 147.4375,126.0938 C144.8125,126.0938 142.8125,128.1719 142.8125,130.8906 L142.8125,132.0156 C142.8125,134.5938 144.9219,136.4844 147.8125,136.4844 C149.0313,136.4844 150.1875,136.1875 150.9375,135.6406 C151.5156,135.2344 151.8438,134.7813 151.8438,134.3906 C151.8438,133.9375 151.4531,133.5469 150.9844,133.5469 C150.7656,133.5469 150.5625,133.625 150.375,133.8125 C149.9219,134.2969 149.9219,134.2969 149.7344,134.3906 C149.3125,134.6563 148.625,134.7813 147.8594,134.7813 C145.8125,134.7813 144.5156,133.6875 144.5156,131.9844 L144.5156,130.8906 C144.5156,129.1094 145.7656,127.7969 147.5,127.7969 C148.0781,127.7969 148.6875,127.9531 149.1563,128.2031 C149.6406,128.4844 149.8125,128.7031 149.9063,129.1094 C149.9688,129.5156 150,129.6406 150.1406,129.7656 C150.2813,129.9063 150.5156,130.0156 150.7344,130.0156 C151,130.0156 151.2656,129.875 151.4375,129.6563 C151.5469,129.5 151.5781,129.3125 151.5781,128.8906 L151.5781,127.4688 C151.5781,127.0313 151.5625,126.9063 151.4688,126.75 C151.3125,126.4844 151.0313,126.3438 150.7344,126.3438 C150.4375,126.3438 150.2344,126.4375 150.0156,126.75 L149.8438,126.6719 Z " fill="#000000"/><text fill="#000000" font-family="sans-serif" font-size="14" lengthAdjust="spacing" textLength="31" x="161.5" y="135.8467">User</text><line style="stroke:#181818;stroke-width:0.5;" x1="133.5" x2="194.5" y1="147" y2="147"/><line style="stroke:#181818;stroke-width:0.5;" x1="133.5" x2="194.5" y1="155" y2="155"/></g><!--class Project--><g id="elem_Project"><rect codeLine="3" fill="#F1F1F1" height="48" id="Project" rx="2.5" ry="2.5" style="stroke:#181818;stroke-width:0.5;" width="84" x="214" y="363.5"/><ellipse cx="229" cy="379.5" fill="#ADD1B2" rx="11" ry="11" style="stroke:#181818;stroke-width:1.0;"/><path d="M231.3438,375.1719 C230.4063,374.7344 229.8125,374.5938 228.9375,374.5938 C226.3125,374.5938 224.3125,376.6719 224.3125,379.3906 L224.3125,380.5156 C224.3125,383.0938 226.4219,384.9844 229.3125,384.9844 C230.5313,384.9844 231.6875,384.6875 232.4375,384.1406 C233.0156,383.7344 233.3438,383.2813 233.3438,382.8906 C233.3438,382.4375 232.9531,382.0469 232.4844,382.0469 C232.2656,382.0469 232.0625,382.125 231.875,382.3125 C231.4219,382.7969 231.4219,382.7969 231.2344,382.8906 C230.8125,383.1563 230.125,383.2813 229.3594,383.2813 C227.3125,383.2813 226.0156,382.1875 226.0156,380.4844 L226.0156,379.3906 C226.0156,377.6094 227.2656,376.2969 229,376.2969 C229.5781,376.2969 230.1875,376.4531 230.6563,376.7031 C231.1406,376.9844 231.3125,377.2031 231.4063,377.6094 C231.4688,378.0156 231.5,378.1406 231.6406,378.2656 C231.7813,378.4063 232.0156,378.5156 232.2344,378.5156 C232.5,378.5156 232.7656,378.375 232.9375,378.1563 C233.0469,378 233.0781,377.8125 233.0781,377.3906 L233.0781,375.9688 C233.0781,375.5313 233.0625,375.4063 232.9688,375.25 C232.8125,374.9844 232.5313,374.8438 232.2344,374.8438 C231.9375,374.8438 231.7344,374.9375 231.5156,375.25 L231.3438,375.1719 Z " fill="#000000"/><text fill="#000000" font-family="sans-serif" font-size="14" lengthAdjust="spacing" textLength="52" x="243" y="384.3467">Project</text><line style="stroke:#181818;stroke-width:0.5;" x1="215" x2="297" y1="395.5" y2="395.5"/><line style="stroke:#181818;stroke-width:0.5;" x1="215" x2="297" y1="403.5" y2="403.5"/></g><!--class Interval--><g id="elem_Interval"><rect codeLine="4" fill="#F1F1F1" height="113.1875" id="Interval" rx="2.5" ry="2.5" style="stroke:#181818;stroke-width:0.5;" width="172" x="7" y="331"/><ellipse cx="61.25" cy="347" fill="#ADD1B2" rx="11" ry="11" style="stroke:#181818;stroke-width:1.0;"/><path d="M63.5938,342.6719 C62.6563,342.2344 62.0625,342.0938 61.1875,342.0938 C58.5625,342.0938 56.5625,344.1719 56.5625,346.8906 L56.5625,348.0156 C56.5625,350.5938 58.6719,352.4844 61.5625,352.4844 C62.7813,352.4844 63.9375,352.1875 64.6875,351.6406 C65.2656,351.2344 65.5938,350.7813 65.5938,350.3906 C65.5938,349.9375 65.2031,349.5469 64.7344,349.5469 C64.5156,349.5469 64.3125,349.625 64.125,349.8125 C63.6719,350.2969 63.6719,350.2969 63.4844,350.3906 C63.0625,350.6563 62.375,350.7813 61.6094,350.7813 C59.5625,350.7813 58.2656,349.6875 58.2656,347.9844 L58.2656,346.8906 C58.2656,345.1094 59.5156,343.7969 61.25,343.7969 C61.8281,343.7969 62.4375,343.9531 62.9063,344.2031 C63.3906,344.4844 63.5625,344.7031 63.6563,345.1094 C63.7188,345.5156 63.75,345.6406 63.8906,345.7656 C64.0313,345.9063 64.2656,346.0156 64.4844,346.0156 C64.75,346.0156 65.0156,345.875 65.1875,345.6563 C65.2969,345.5 65.3281,345.3125 65.3281,344.8906 L65.3281,343.4688 C65.3281,343.0313 65.3125,342.9063 65.2188,342.75 C65.0625,342.4844 64.7813,342.3438 64.4844,342.3438 C64.1875,342.3438 63.9844,342.4375 63.7656,342.75 L63.5938,342.6719 Z " fill="#000000"/><text fill="#000000" font-family="sans-serif" font-size="14" lengthAdjust="spacing" textLength="55" x="81.75" y="351.8467">Interval</text><line style="stroke:#181818;stroke-width:0.5;" x1="8" x2="178" y1="363" y2="363"/><text fill="#000000" font-family="sans-serif" font-size="14" lengthAdjust="spacing" textLength="71" x="13" y="379.9951">startTime</text><text fill="#000000" font-family="sans-serif" font-size="14" lengthAdjust="spacing" textLength="63" x="13" y="396.292">endTime</text><line style="stroke:#181818;stroke-width:0.5;" x1="8" x2="178" y1="403.5938" y2="403.5938"/><text fill="#000000" font-family="sans-serif" font-size="14" lengthAdjust="spacing" textLength="160" x="13" y="420.5889">begin(project Project)</text><text fill="#000000" font-family="sans-serif" font-size="14" lengthAdjust="spacing" textLength="37" x="13" y="436.8857">end()</text></g><!--class Customer--><g id="elem_Customer"><rect codeLine="11" fill="#F1F1F1" height="48" id="Customer" rx="2.5" ry="2.5" style="stroke:#181818;stroke-width:0.5;" width="102" x="217" y="223"/><ellipse cx="232" cy="239" fill="#ADD1B2" rx="11" ry="11" style="stroke:#181818;stroke-width:1.0;"/><path d="M234.3438,234.6719 C233.4063,234.2344 232.8125,234.0938 231.9375,234.0938 C229.3125,234.0938 227.3125,236.1719 227.3125,238.8906 L227.3125,240.0156 C227.3125,242.5938 229.4219,244.4844 232.3125,244.4844 C233.5313,244.4844 234.6875,244.1875 235.4375,243.6406 C236.0156,243.2344 236.3438,242.7813 236.3438,242.3906 C236.3438,241.9375 235.9531,241.5469 235.4844,241.5469 C235.2656,241.5469 235.0625,241.625 234.875,241.8125 C234.4219,242.2969 234.4219,242.2969 234.2344,242.3906 C233.8125,242.6563 233.125,242.7813 232.3594,242.7813 C230.3125,242.7813 229.0156,241.6875 229.0156,239.9844 L229.0156,238.8906 C229.0156,237.1094 230.2656,235.7969 232,235.7969 C232.5781,235.7969 233.1875,235.9531 233.6563,236.2031 C234.1406,236.4844 234.3125,236.7031 234.4063,237.1094 C234.4688,237.5156 234.5,237.6406 234.6406,237.7656 C234.7813,237.9063 235.0156,238.0156 235.2344,238.0156 C235.5,238.0156 235.7656,237.875 235.9375,237.6563 C236.0469,237.5 236.0781,237.3125 236.0781,236.8906 L236.0781,235.4688 C236.0781,235.0313 236.0625,234.9063 235.9688,234.75 C235.8125,234.4844 235.5313,234.3438 235.2344,234.3438 C234.9375,234.3438 234.7344,234.4375 234.5156,234.75 L234.3438,234.6719 Z " fill="#000000"/><text fill="#000000" font-family="sans-serif" font-size="14" lengthAdjust="spacing" textLength="70" x="246" y="243.8467">Customer</text><line style="stroke:#181818;stroke-width:0.5;" x1="218" x2="318" y1="255" y2="255"/><line style="stroke:#181818;stroke-width:0.5;" x1="218" x2="318" y1="263" y2="263"/></g><!--link TimeRegister to User--><g id="link_TimeRegister_User"><path codeLine="13" d="M164,67 C164,84.658 164,90.941 164,108.678 " fill="none" id="TimeRegister-User" style="stroke:#181818;stroke-width:1.0;"/><polygon fill="#181818" points="164,55,160,61,164,67,168,61,164,55" style="stroke:#181818;stroke-width:1.0;"/><polygon fill="#181818" points="164,114.678,168,105.678,164,109.678,160,105.678,164,114.678" style="stroke:#181818;stroke-width:1.0;"/><text fill="#000000" font-family="sans-serif" font-size="13" lengthAdjust="spacing" textLength="8" x="155.025" y="104.0045">n</text></g><!--link User to Project--><g id="link_User_Project"><path codeLine="14" d="M171.6652,174.823 C177.7032,201.319 186.131,234.134 200,271 C212.398,303.955 227.9896,334.9382 240.2806,357.8804 " fill="none" id="User-Project" style="stroke:#181818;stroke-width:1.0;"/><polygon fill="#181818" points="168.999,163.123,166.4321,169.8618,171.6652,174.823,174.2321,168.0843,168.999,163.123" style="stroke:#181818;stroke-width:1.0;"/><polygon fill="#181818" points="243.114,363.1692,242.3897,353.347,240.7528,358.7618,235.338,357.1249,243.114,363.1692" style="stroke:#181818;stroke-width:1.0;"/><text fill="#000000" font-family="sans-serif" font-size="13" lengthAdjust="spacing" textLength="8" x="230.998" y="352.4935">n</text></g><!--link User to Customer--><g id="link_User_Customer"><path codeLine="15" d="M194.9701,171.5657 C212.2951,189.2237 223.5129,200.6582 240.9159,218.3952 " fill="none" id="User-Customer" style="stroke:#181818;stroke-width:1.0;"/><polygon fill="#181818" points="186.566,163,187.9128,170.0842,194.9701,171.5657,193.6233,164.4815,186.566,163" style="stroke:#181818;stroke-width:1.0;"/><polygon fill="#181818" points="245.118,222.678,241.67,213.4524,241.6162,219.109,235.9596,219.0553,245.118,222.678" style="stroke:#181818;stroke-width:1.0;"/><text fill="#000000" font-family="sans-serif" font-size="13" lengthAdjust="spacing" textLength="8" x="230.5655" y="212.0045">n</text></g><!--link Customer to Project--><g id="link_Customer_Project"><path codeLine="16" d="M264.9552,283.1372 C262.7402,308.7032 260.751,331.6684 258.533,357.265 " fill="none" id="Customer-Project" style="stroke:#181818;stroke-width:1.0;"/><polygon fill="#181818" points="265.991,271.182,261.488,276.8143,264.9552,283.1372,269.4582,277.5049,265.991,271.182" style="stroke:#181818;stroke-width:1.0;"/><polygon fill="#181818" points="258.015,363.2426,262.777,354.6215,258.4466,358.2613,254.8069,353.9309,258.015,363.2426" style="stroke:#181818;stroke-width:1.0;"/><text fill="#000000" font-family="sans-serif" font-size="13" lengthAdjust="spacing" textLength="8" x="249.5312" y="352.5848">n</text></g><!--link User to Interval--><g id="link_User_Interval"><path codeLine="17" d="M152.8394,174.618 C147.5244,191.226 143.966,202.719 138,223 C127.491,258.729 117.9429,293.2774 109.3919,324.9494 " fill="none" id="User-Interval" style="stroke:#181818;stroke-width:1.0;"/><polygon fill="#181818" points="156.497,163.189,150.8585,167.6843,152.8394,174.618,158.4779,170.1227,156.497,163.189" style="stroke:#181818;stroke-width:1.0;"/><polygon fill="#181818" points="107.828,330.742,114.0356,323.0957,109.1313,325.9148,106.3122,321.0105,107.828,330.742" style="stroke:#181818;stroke-width:1.0;"/><text fill="#000000" font-family="sans-serif" font-size="13" lengthAdjust="spacing" textLength="8" x="101.1471" y="319.9741">n</text></g><!--link Interval to Project--><g id="link_Interval_Project"><path codeLine="18" d="M191.275,387.5 C202.764,387.5 196.253,387.5 207.742,387.5 " fill="none" id="Interval-Project" style="stroke:#181818;stroke-width:1.0;"/><polygon fill="#181818" points="179.275,387.5,185.275,391.5,191.275,387.5,185.275,383.5,179.275,387.5" style="stroke:#181818;stroke-width:1.0;"/><polygon fill="#181818" points="213.742,387.5,204.742,383.5,208.742,387.5,204.742,391.5,213.742,387.5" style="stroke:#181818;stroke-width:1.0;"/><text fill="#000000" font-family="sans-serif" font-size="13" lengthAdjust="spacing" textLength="8" x="198.0805" y="383.3357">1</text></g><!--SRC=[Iyv9B2vM2CdCJGrAJSyiBaajuae62uKMmva1HVbPgSab2b2kPnvGLLbYZa8rbu92SKbYKGb8Ev2TcfS2PIK1pShJA83gW-hNX2ZHqEIgvO8QvLnQN9AV2xI82za52bgwAVdbURfs2afvIX27W0XKOQYXM6JWXi8On6g4UOmBxaCja8mXN0y0]--></g></svg>