<?xml version="1.0" encoding="us-ascii" standalone="no"?><svg xmlns="http://www.w3.org/2000/svg" xmlns:xlink="http://www.w3.org/1999/xlink" contentStyleType="text/css" height="451px" preserveAspectRatio="none" style="width:283px;height:451px;background:#FFFFFF;" version="1.1" viewBox="0 0 283 451" width="283px" zoomAndPan="magnify"><defs/><g><!--class TimeRegister--><g id="elem_TimeRegister"><rect codeLine="1" fill="#F1F1F1" height="48" id="TimeRegister" rx="2.5" ry="2.5" style="stroke:#181818;stroke-width:0.5;" width="129" x="57" y="7"/><ellipse cx="72" cy="23" fill="#ADD1B2" rx="11" ry="11" style="stroke:#181818;stroke-width:1.0;"/><path d="M74.3438,18.6719 C73.4063,18.2344 72.8125,18.0938 71.9375,18.0938 C69.3125,18.0938 67.3125,20.1719 67.3125,22.8906 L67.3125,24.0156 C67.3125,26.5938 69.4219,28.4844 72.3125,28.4844 C73.5313,28.4844 74.6875,28.1875 75.4375,27.6406 C76.0156,27.2344 76.3438,26.7813 76.3438,26.3906 C76.3438,25.9375 75.9531,25.5469 75.4844,25.5469 C75.2656,25.5469 75.0625,25.625 74.875,25.8125 C74.4219,26.2969 74.4219,26.2969 74.2344,26.3906 C73.8125,26.6563 73.125,26.7813 72.3594,26.7813 C70.3125,26.7813 69.0156,25.6875 69.0156,23.9844 L69.0156,22.8906 C69.0156,21.1094 70.2656,19.7969 72,19.7969 C72.5781,19.7969 73.1875,19.9531 73.6563,20.2031 C74.1406,20.4844 74.3125,20.7031 74.4063,21.1094 C74.4688,21.5156 74.5,21.6406 74.6406,21.7656 C74.7813,21.9063 75.0156,22.0156 75.2344,22.0156 C75.5,22.0156 75.7656,21.875 75.9375,21.6563 C76.0469,21.5 76.0781,21.3125 76.0781,20.8906 L76.0781,19.4688 C76.0781,19.0313 76.0625,18.9063 75.9688,18.75 C75.8125,18.4844 75.5313,18.3438 75.2344,18.3438 C74.9375,18.3438 74.7344,18.4375 74.5156,18.75 L74.3438,18.6719 Z " fill="#000000"/><text fill="#000000" font-family="sans-serif" font-size="14" lengthAdjust="spacing" textLength="97" x="86" y="27.8467">TimeRegister</text><line style="stroke:#181818;stroke-width:0.5;" x1="58" x2="185" y1="39" y2="39"/><line style="stroke:#181818;stroke-width:0.5;" x1="58" x2="185" y1="47" y2="47"/></g><!--class User--><g id="elem_User"><rect codeLine="2" fill="#F1F1F1" height="48" id="User" rx="2.5" ry="2.5" style="stroke:#181818;stroke-width:0.5;" width="63" x="90" y="115"/><ellipse cx="105" cy="131" fill="#ADD1B2" rx="11" ry="11" style="stroke:#181818;stroke-width:1.0;"/><path d="M107.3438,126.6719 C106.4063,126.2344 105.8125,126.0938 104.9375,126.0938 C102.3125,126.0938 100.3125,128.1719 100.3125,130.8906 L100.3125,132.0156 C100.3125,134.5938 102.4219,136.4844 105.3125,136.4844 C106.5313,136.4844 107.6875,136.1875 108.4375,135.6406 C109.0156,135.2344 109.3438,134.7813 109.3438,134.3906 C109.3438,133.9375 108.9531,133.5469 108.4844,133.5469 C108.2656,133.5469 108.0625,133.625 107.875,133.8125 C107.4219,134.2969 107.4219,134.2969 107.2344,134.3906 C106.8125,134.6563 106.125,134.7813 105.3594,134.7813 C103.3125,134.7813 102.0156,133.6875 102.0156,131.9844 L102.0156,130.8906 C102.0156,129.1094 103.2656,127.7969 105,127.7969 C105.5781,127.7969 106.1875,127.9531 106.6563,128.2031 C107.1406,128.4844 107.3125,128.7031 107.4063,129.1094 C107.4688,129.5156 107.5,129.6406 107.6406,129.7656 C107.7813,129.9063 108.0156,130.0156 108.2344,130.0156 C108.5,130.0156 108.7656,129.875 108.9375,129.6563 C109.0469,129.5 109.0781,129.3125 109.0781,128.8906 L109.0781,127.4688 C109.0781,127.0313 109.0625,126.9063 108.9688,126.75 C108.8125,126.4844 108.5313,126.3438 108.2344,126.3438 C107.9375,126.3438 107.7344,126.4375 107.5156,126.75 L107.3438,126.6719 Z " fill="#000000"/><text fill="#000000" font-family="sans-serif" font-size="14" lengthAdjust="spacing" textLength="31" x="119" y="135.8467">User</text><line style="stroke:#181818;stroke-width:0.5;" x1="91" x2="152" y1="147" y2="147"/><line style="stroke:#181818;stroke-width:0.5;" x1="91" x2="152" y1="155" y2="155"/></g><!--class Project--><g id="elem_Project"><rect codeLine="3" fill="#F1F1F1" height="48" id="Project" rx="2.5" ry="2.5" style="stroke:#181818;stroke-width:0.5;" width="84" x="129.5" y="363.5"/><ellipse cx="144.5" cy="379.5" fill="#ADD1B2" rx="11" ry="11" style="stroke:#181818;stroke-width:1.0;"/><path d="M146.8438,375.1719 C145.9063,374.7344 145.3125,374.5938 144.4375,374.5938 C141.8125,374.5938 139.8125,376.6719 139.8125,379.3906 L139.8125,380.5156 C139.8125,383.0938 141.9219,384.9844 144.8125,384.9844 C146.0313,384.9844 147.1875,384.6875 147.9375,384.1406 C148.5156,383.7344 148.8438,383.2813 148.8438,382.8906 C148.8438,382.4375 148.4531,382.0469 147.9844,382.0469 C147.7656,382.0469 147.5625,382.125 147.375,382.3125 C146.9219,382.7969 146.9219,382.7969 146.7344,382.8906 C146.3125,383.1563 145.625,383.2813 144.8594,383.2813 C142.8125,383.2813 141.5156,382.1875 141.5156,380.4844 L141.5156,379.3906 C141.5156,377.6094 142.7656,376.2969 144.5,376.2969 C145.0781,376.2969 145.6875,376.4531 146.1563,376.7031 C146.6406,376.9844 146.8125,377.2031 146.9063,377.6094 C146.9688,378.0156 147,378.1406 147.1406,378.2656 C147.2813,378.4063 147.5156,378.5156 147.7344,378.5156 C148,378.5156 148.2656,378.375 148.4375,378.1563 C148.5469,378 148.5781,377.8125 148.5781,377.3906 L148.5781,375.9688 C148.5781,375.5313 148.5625,375.4063 148.4688,375.25 C148.3125,374.9844 148.0313,374.8438 147.7344,374.8438 C147.4375,374.8438 147.2344,374.9375 147.0156,375.25 L146.8438,375.1719 Z " fill="#000000"/><text fill="#000000" font-family="sans-serif" font-size="14" lengthAdjust="spacing" textLength="52" x="158.5" y="384.3467">Project</text><line style="stroke:#181818;stroke-width:0.5;" x1="130.5" x2="212.5" y1="395.5" y2="395.5"/><line style="stroke:#181818;stroke-width:0.5;" x1="130.5" x2="212.5" y1="403.5" y2="403.5"/></g><!--class Interval--><g id="elem_Interval"><rect codeLine="4" fill="#F1F1F1" height="113.1875" id="Interval" rx="2.5" ry="2.5" style="stroke:#181818;stroke-width:0.5;" width="87" x="7" y="331"/><ellipse cx="22" cy="347" fill="#ADD1B2" rx="11" ry="11" style="stroke:#181818;stroke-width:1.0;"/><path d="M24.3438,342.6719 C23.4063,342.2344 22.8125,342.0938 21.9375,342.0938 C19.3125,342.0938 17.3125,344.1719 17.3125,346.8906 L17.3125,348.0156 C17.3125,350.5938 19.4219,352.4844 22.3125,352.4844 C23.5313,352.4844 24.6875,352.1875 25.4375,351.6406 C26.0156,351.2344 26.3438,350.7813 26.3438,350.3906 C26.3438,349.9375 25.9531,349.5469 25.4844,349.5469 C25.2656,349.5469 25.0625,349.625 24.875,349.8125 C24.4219,350.2969 24.4219,350.2969 24.2344,350.3906 C23.8125,350.6563 23.125,350.7813 22.3594,350.7813 C20.3125,350.7813 19.0156,349.6875 19.0156,347.9844 L19.0156,346.8906 C19.0156,345.1094 20.2656,343.7969 22,343.7969 C22.5781,343.7969 23.1875,343.9531 23.6563,344.2031 C24.1406,344.4844 24.3125,344.7031 24.4063,345.1094 C24.4688,345.5156 24.5,345.6406 24.6406,345.7656 C24.7813,345.9063 25.0156,346.0156 25.2344,346.0156 C25.5,346.0156 25.7656,345.875 25.9375,345.6563 C26.0469,345.5 26.0781,345.3125 26.0781,344.8906 L26.0781,343.4688 C26.0781,343.0313 26.0625,342.9063 25.9688,342.75 C25.8125,342.4844 25.5313,342.3438 25.2344,342.3438 C24.9375,342.3438 24.7344,342.4375 24.5156,342.75 L24.3438,342.6719 Z " fill="#000000"/><text fill="#000000" font-family="sans-serif" font-size="14" lengthAdjust="spacing" textLength="55" x="36" y="351.8467">Interval</text><line style="stroke:#181818;stroke-width:0.5;" x1="8" x2="93" y1="363" y2="363"/><text fill="#000000" font-family="sans-serif" font-size="14" lengthAdjust="spacing" textLength="71" x="13" y="379.9951">startTime</text><text fill="#000000" font-family="sans-serif" font-size="14" lengthAdjust="spacing" textLength="63" x="13" y="396.292">endTime</text><line style="stroke:#181818;stroke-width:0.5;" x1="8" x2="93" y1="403.5938" y2="403.5938"/><text fill="#000000" font-family="sans-serif" font-size="14" lengthAdjust="spacing" textLength="51" x="13" y="420.5889">begin()</text><text fill="#000000" font-family="sans-serif" font-size="14" lengthAdjust="spacing" textLength="37" x="13" y="436.8857">end()</text></g><!--class Customer--><g id="elem_Customer"><rect codeLine="11" fill="#F1F1F1" height="48" id="Customer" rx="2.5" ry="2.5" style="stroke:#181818;stroke-width:0.5;" width="102" x="174.5" y="223"/><ellipse cx="189.5" cy="239" fill="#ADD1B2" rx="11" ry="11" style="stroke:#181818;stroke-width:1.0;"/><path d="M191.8438,234.6719 C190.9063,234.2344 190.3125,234.0938 189.4375,234.0938 C186.8125,234.0938 184.8125,236.1719 184.8125,238.8906 L184.8125,240.0156 C184.8125,242.5938 186.9219,244.4844 189.8125,244.4844 C191.0313,244.4844 192.1875,244.1875 192.9375,243.6406 C193.5156,243.2344 193.8438,242.7813 193.8438,242.3906 C193.8438,241.9375 193.4531,241.5469 192.9844,241.5469 C192.7656,241.5469 192.5625,241.625 192.375,241.8125 C191.9219,242.2969 191.9219,242.2969 191.7344,242.3906 C191.3125,242.6563 190.625,242.7813 189.8594,242.7813 C187.8125,242.7813 186.5156,241.6875 186.5156,239.9844 L186.5156,238.8906 C186.5156,237.1094 187.7656,235.7969 189.5,235.7969 C190.0781,235.7969 190.6875,235.9531 191.1563,236.2031 C191.6406,236.4844 191.8125,236.7031 191.9063,237.1094 C191.9688,237.5156 192,237.6406 192.1406,237.7656 C192.2813,237.9063 192.5156,238.0156 192.7344,238.0156 C193,238.0156 193.2656,237.875 193.4375,237.6563 C193.5469,237.5 193.5781,237.3125 193.5781,236.8906 L193.5781,235.4688 C193.5781,235.0313 193.5625,234.9063 193.4688,234.75 C193.3125,234.4844 193.0313,234.3438 192.7344,234.3438 C192.4375,234.3438 192.2344,234.4375 192.0156,234.75 L191.8438,234.6719 Z " fill="#000000"/><text fill="#000000" font-family="sans-serif" font-size="14" lengthAdjust="spacing" textLength="70" x="203.5" y="243.8467">Customer</text><line style="stroke:#181818;stroke-width:0.5;" x1="175.5" x2="275.5" y1="255" y2="255"/><line style="stroke:#181818;stroke-width:0.5;" x1="175.5" x2="275.5" y1="263" y2="263"/></g><!--link TimeRegister to User--><g id="link_TimeRegister_User"><path codeLine="13" d="M121.5,67 C121.5,84.658 121.5,90.941 121.5,108.678 " fill="none" id="TimeRegister-User" style="stroke:#181818;stroke-width:1.0;"/><polygon fill="#181818" points="121.5,55,117.5,61,121.5,67,125.5,61,121.5,55" style="stroke:#181818;stroke-width:1.0;"/><polygon fill="#181818" points="121.5,114.678,125.5,105.678,121.5,109.678,117.5,105.678,121.5,114.678" style="stroke:#181818;stroke-width:1.0;"/><text fill="#000000" font-family="sans-serif" font-size="13" lengthAdjust="spacing" textLength="8" x="112.525" y="104.0045">n</text></g><!--link User to Project--><g id="link_User_Project"><path codeLine="14" d="M128.5893,174.9505 C138.1183,221.9315 156.0303,310.2327 165.5793,357.3116 " fill="none" id="User-Project" style="stroke:#181818;stroke-width:1.0;"/><polygon fill="#181818" points="126.204,163.19,123.4765,169.8654,128.5893,174.9505,131.3169,168.2751,126.204,163.19" style="stroke:#181818;stroke-width:1.0;"/><polygon fill="#181818" points="166.772,363.1919,168.9031,353.5764,165.7781,358.2917,161.0628,355.1666,166.772,363.1919" style="stroke:#181818;stroke-width:1.0;"/><text fill="#000000" font-family="sans-serif" font-size="13" lengthAdjust="spacing" textLength="8" x="156.6445" y="352.5218">n</text></g><!--link User to Customer--><g id="link_User_Customer"><path codeLine="15" d="M152.4701,171.5657 C169.7951,189.2237 181.0129,200.6582 198.4159,218.3952 " fill="none" id="User-Customer" style="stroke:#181818;stroke-width:1.0;"/><polygon fill="#181818" points="144.066,163,145.4128,170.0842,152.4701,171.5657,151.1233,164.4815,144.066,163" style="stroke:#181818;stroke-width:1.0;"/><polygon fill="#181818" points="202.618,222.678,199.17,213.4524,199.1162,219.109,193.4596,219.0553,202.618,222.678" style="stroke:#181818;stroke-width:1.0;"/><text fill="#000000" font-family="sans-serif" font-size="13" lengthAdjust="spacing" textLength="8" x="188.0655" y="212.0045">n</text></g><!--link Customer to Project--><g id="link_Customer_Project"><path codeLine="16" d="M212.1029,282.3623 C202.1349,307.9283 192.7276,332.0559 182.7476,357.6525 " fill="none" id="Customer-Project" style="stroke:#181818;stroke-width:1.0;"/><polygon fill="#181818" points="216.462,271.182,210.5557,275.3191,212.1029,282.3623,218.0092,278.2252,216.462,271.182" style="stroke:#181818;stroke-width:1.0;"/><polygon fill="#181818" points="180.568,363.2426,187.5641,356.3105,182.3843,358.5842,180.1106,353.4044,180.568,363.2426" style="stroke:#181818;stroke-width:1.0;"/><text fill="#000000" font-family="sans-serif" font-size="13" lengthAdjust="spacing" textLength="8" x="173.8033" y="352.5848">n</text></g><!--link User to Interval--><g id="link_User_Interval"><path codeLine="17" d="M111.4988,174.7212 C100.5563,212.7132 83.4894,271.9664 68.2818,324.7644 " fill="none" id="User-Interval" style="stroke:#181818;stroke-width:1.0;"/><polygon fill="#181818" points="114.82,163.19,109.3156,167.8485,111.4988,174.7212,117.0031,170.0627,114.82,163.19" style="stroke:#181818;stroke-width:1.0;"/><polygon fill="#181818" points="66.6211,330.53,72.9559,322.9887,68.005,325.7253,65.2684,320.7745,66.6211,330.53" style="stroke:#181818;stroke-width:1.0;"/><text fill="#000000" font-family="sans-serif" font-size="13" lengthAdjust="spacing" textLength="8" x="60.0984" y="319.7363">n</text></g><!--link Interval to Project--><g id="link_Interval_Project"><path codeLine="18" d="M106.457,387.5 C118.0937,387.5 111.73,387.5 123.367,387.5 " fill="none" id="Interval-Project" style="stroke:#181818;stroke-width:1.0;"/><polygon fill="#181818" points="94.457,387.5,100.457,391.5,106.457,387.5,100.457,383.5,94.457,387.5" style="stroke:#181818;stroke-width:1.0;"/><polygon fill="#181818" points="129.367,387.5,120.367,383.5,124.367,387.5,120.367,391.5,129.367,387.5" style="stroke:#181818;stroke-width:1.0;"/><text fill="#000000" font-family="sans-serif" font-size="13" lengthAdjust="spacing" textLength="8" x="113.4379" y="383.2892">1</text></g><!--SRC=[Iyv9B2vM2CdCJGrAJSyiBaajuae62uKMmva1HVbPgSab2b2kPnvGLLbYZa8rbu92SKbYKGb8Ev2TcfS2PIK1pShJq8I80UbQBgXUvzBYalnSeCbSo5OgQEccv9VdwTefAEKfGMm64QZ2K5TWaO4R2cCGgn7c4owubxH0CePmFG00]--></g></svg>