<?xml version="1.0" encoding="us-ascii" standalone="no"?><svg xmlns="http://www.w3.org/2000/svg" xmlns:xlink="http://www.w3.org/1999/xlink" contentStyleType="text/css" height="683px" preserveAspectRatio="none" style="width:247px;height:683px;background:#FFFFFF;" version="1.1" viewBox="0 0 247 683" width="247px" zoomAndPan="magnify"><defs/><g><!--class TimeRegister--><g id="elem_TimeRegister"><rect codeLine="1" fill="#F1F1F1" height="48" id="TimeRegister" rx="2.5" ry="2.5" style="stroke:#181818;stroke-width:0.5;" width="129" x="7" y="7"/><ellipse cx="22" cy="23" fill="#ADD1B2" rx="11" ry="11" style="stroke:#181818;stroke-width:1.0;"/><path d="M24.3438,18.6719 C23.4063,18.2344 22.8125,18.0938 21.9375,18.0938 C19.3125,18.0938 17.3125,20.1719 17.3125,22.8906 L17.3125,24.0156 C17.3125,26.5938 19.4219,28.4844 22.3125,28.4844 C23.5313,28.4844 24.6875,28.1875 25.4375,27.6406 C26.0156,27.2344 26.3438,26.7813 26.3438,26.3906 C26.3438,25.9375 25.9531,25.5469 25.4844,25.5469 C25.2656,25.5469 25.0625,25.625 24.875,25.8125 C24.4219,26.2969 24.4219,26.2969 24.2344,26.3906 C23.8125,26.6563 23.125,26.7813 22.3594,26.7813 C20.3125,26.7813 19.0156,25.6875 19.0156,23.9844 L19.0156,22.8906 C19.0156,21.1094 20.2656,19.7969 22,19.7969 C22.5781,19.7969 23.1875,19.9531 23.6563,20.2031 C24.1406,20.4844 24.3125,20.7031 24.4063,21.1094 C24.4688,21.5156 24.5,21.6406 24.6406,21.7656 C24.7813,21.9063 25.0156,22.0156 25.2344,22.0156 C25.5,22.0156 25.7656,21.875 25.9375,21.6563 C26.0469,21.5 26.0781,21.3125 26.0781,20.8906 L26.0781,19.4688 C26.0781,19.0313 26.0625,18.9063 25.9688,18.75 C25.8125,18.4844 25.5313,18.3438 25.2344,18.3438 C24.9375,18.3438 24.7344,18.4375 24.5156,18.75 L24.3438,18.6719 Z " fill="#000000"/><text fill="#000000" font-family="sans-serif" font-size="14" lengthAdjust="spacing" textLength="97" x="36" y="27.8467">TimeRegister</text><line style="stroke:#181818;stroke-width:0.5;" x1="8" x2="135" y1="39" y2="39"/><line style="stroke:#181818;stroke-width:0.5;" x1="8" x2="135" y1="47" y2="47"/></g><!--class User--><g id="elem_User"><rect codeLine="2" fill="#F1F1F1" height="48" id="User" rx="2.5" ry="2.5" style="stroke:#181818;stroke-width:0.5;" width="63" x="40" y="115"/><ellipse cx="55" cy="131" fill="#ADD1B2" rx="11" ry="11" style="stroke:#181818;stroke-width:1.0;"/><path d="M57.3438,126.6719 C56.4063,126.2344 55.8125,126.0938 54.9375,126.0938 C52.3125,126.0938 50.3125,128.1719 50.3125,130.8906 L50.3125,132.0156 C50.3125,134.5938 52.4219,136.4844 55.3125,136.4844 C56.5313,136.4844 57.6875,136.1875 58.4375,135.6406 C59.0156,135.2344 59.3438,134.7813 59.3438,134.3906 C59.3438,133.9375 58.9531,133.5469 58.4844,133.5469 C58.2656,133.5469 58.0625,133.625 57.875,133.8125 C57.4219,134.2969 57.4219,134.2969 57.2344,134.3906 C56.8125,134.6563 56.125,134.7813 55.3594,134.7813 C53.3125,134.7813 52.0156,133.6875 52.0156,131.9844 L52.0156,130.8906 C52.0156,129.1094 53.2656,127.7969 55,127.7969 C55.5781,127.7969 56.1875,127.9531 56.6563,128.2031 C57.1406,128.4844 57.3125,128.7031 57.4063,129.1094 C57.4688,129.5156 57.5,129.6406 57.6406,129.7656 C57.7813,129.9063 58.0156,130.0156 58.2344,130.0156 C58.5,130.0156 58.7656,129.875 58.9375,129.6563 C59.0469,129.5 59.0781,129.3125 59.0781,128.8906 L59.0781,127.4688 C59.0781,127.0313 59.0625,126.9063 58.9688,126.75 C58.8125,126.4844 58.5313,126.3438 58.2344,126.3438 C57.9375,126.3438 57.7344,126.4375 57.5156,126.75 L57.3438,126.6719 Z " fill="#000000"/><text fill="#000000" font-family="sans-serif" font-size="14" lengthAdjust="spacing" textLength="31" x="69" y="135.8467">User</text><line style="stroke:#181818;stroke-width:0.5;" x1="41" x2="102" y1="147" y2="147"/><line style="stroke:#181818;stroke-width:0.5;" x1="41" x2="102" y1="155" y2="155"/></g><!--class Project--><g id="elem_Project"><rect codeLine="3" fill="#F1F1F1" height="48" id="Project" rx="2.5" ry="2.5" style="stroke:#181818;stroke-width:0.5;" width="84" x="103.5" y="331"/><ellipse cx="118.5" cy="347" fill="#ADD1B2" rx="11" ry="11" style="stroke:#181818;stroke-width:1.0;"/><path d="M120.8438,342.6719 C119.9063,342.2344 119.3125,342.0938 118.4375,342.0938 C115.8125,342.0938 113.8125,344.1719 113.8125,346.8906 L113.8125,348.0156 C113.8125,350.5938 115.9219,352.4844 118.8125,352.4844 C120.0313,352.4844 121.1875,352.1875 121.9375,351.6406 C122.5156,351.2344 122.8438,350.7813 122.8438,350.3906 C122.8438,349.9375 122.4531,349.5469 121.9844,349.5469 C121.7656,349.5469 121.5625,349.625 121.375,349.8125 C120.9219,350.2969 120.9219,350.2969 120.7344,350.3906 C120.3125,350.6563 119.625,350.7813 118.8594,350.7813 C116.8125,350.7813 115.5156,349.6875 115.5156,347.9844 L115.5156,346.8906 C115.5156,345.1094 116.7656,343.7969 118.5,343.7969 C119.0781,343.7969 119.6875,343.9531 120.1563,344.2031 C120.6406,344.4844 120.8125,344.7031 120.9063,345.1094 C120.9688,345.5156 121,345.6406 121.1406,345.7656 C121.2813,345.9063 121.5156,346.0156 121.7344,346.0156 C122,346.0156 122.2656,345.875 122.4375,345.6563 C122.5469,345.5 122.5781,345.3125 122.5781,344.8906 L122.5781,343.4688 C122.5781,343.0313 122.5625,342.9063 122.4688,342.75 C122.3125,342.4844 122.0313,342.3438 121.7344,342.3438 C121.4375,342.3438 121.2344,342.4375 121.0156,342.75 L120.8438,342.6719 Z " fill="#000000"/><text fill="#000000" font-family="sans-serif" font-size="14" lengthAdjust="spacing" textLength="52" x="132.5" y="351.8467">Project</text><line style="stroke:#181818;stroke-width:0.5;" x1="104.5" x2="186.5" y1="363" y2="363"/><line style="stroke:#181818;stroke-width:0.5;" x1="104.5" x2="186.5" y1="371" y2="371"/></g><!--class Category--><g id="elem_Category"><rect codeLine="4" fill="#F1F1F1" height="48" id="Category" rx="2.5" ry="2.5" style="stroke:#181818;stroke-width:0.5;" width="98" x="35.5" y="628"/><ellipse cx="50.5" cy="644" fill="#ADD1B2" rx="11" ry="11" style="stroke:#181818;stroke-width:1.0;"/><path d="M52.8438,639.6719 C51.9063,639.2344 51.3125,639.0938 50.4375,639.0938 C47.8125,639.0938 45.8125,641.1719 45.8125,643.8906 L45.8125,645.0156 C45.8125,647.5938 47.9219,649.4844 50.8125,649.4844 C52.0313,649.4844 53.1875,649.1875 53.9375,648.6406 C54.5156,648.2344 54.8438,647.7813 54.8438,647.3906 C54.8438,646.9375 54.4531,646.5469 53.9844,646.5469 C53.7656,646.5469 53.5625,646.625 53.375,646.8125 C52.9219,647.2969 52.9219,647.2969 52.7344,647.3906 C52.3125,647.6563 51.625,647.7813 50.8594,647.7813 C48.8125,647.7813 47.5156,646.6875 47.5156,644.9844 L47.5156,643.8906 C47.5156,642.1094 48.7656,640.7969 50.5,640.7969 C51.0781,640.7969 51.6875,640.9531 52.1563,641.2031 C52.6406,641.4844 52.8125,641.7031 52.9063,642.1094 C52.9688,642.5156 53,642.6406 53.1406,642.7656 C53.2813,642.9063 53.5156,643.0156 53.7344,643.0156 C54,643.0156 54.2656,642.875 54.4375,642.6563 C54.5469,642.5 54.5781,642.3125 54.5781,641.8906 L54.5781,640.4688 C54.5781,640.0313 54.5625,639.9063 54.4688,639.75 C54.3125,639.4844 54.0313,639.3438 53.7344,639.3438 C53.4375,639.3438 53.2344,639.4375 53.0156,639.75 L52.8438,639.6719 Z " fill="#000000"/><text fill="#000000" font-family="sans-serif" font-size="14" lengthAdjust="spacing" textLength="66" x="64.5" y="648.8467">Category</text><line style="stroke:#181818;stroke-width:0.5;" x1="36.5" x2="132.5" y1="660" y2="660"/><line style="stroke:#181818;stroke-width:0.5;" x1="36.5" x2="132.5" y1="668" y2="668"/></g><!--class Interval--><g id="elem_Interval"><rect codeLine="5" fill="#F1F1F1" height="129.4844" id="Interval" rx="2.5" ry="2.5" style="stroke:#181818;stroke-width:0.5;" width="172" x="68.5" y="439"/><ellipse cx="122.75" cy="455" fill="#ADD1B2" rx="11" ry="11" style="stroke:#181818;stroke-width:1.0;"/><path d="M125.0938,450.6719 C124.1563,450.2344 123.5625,450.0938 122.6875,450.0938 C120.0625,450.0938 118.0625,452.1719 118.0625,454.8906 L118.0625,456.0156 C118.0625,458.5938 120.1719,460.4844 123.0625,460.4844 C124.2813,460.4844 125.4375,460.1875 126.1875,459.6406 C126.7656,459.2344 127.0938,458.7813 127.0938,458.3906 C127.0938,457.9375 126.7031,457.5469 126.2344,457.5469 C126.0156,457.5469 125.8125,457.625 125.625,457.8125 C125.1719,458.2969 125.1719,458.2969 124.9844,458.3906 C124.5625,458.6563 123.875,458.7813 123.1094,458.7813 C121.0625,458.7813 119.7656,457.6875 119.7656,455.9844 L119.7656,454.8906 C119.7656,453.1094 121.0156,451.7969 122.75,451.7969 C123.3281,451.7969 123.9375,451.9531 124.4063,452.2031 C124.8906,452.4844 125.0625,452.7031 125.1563,453.1094 C125.2188,453.5156 125.25,453.6406 125.3906,453.7656 C125.5313,453.9063 125.7656,454.0156 125.9844,454.0156 C126.25,454.0156 126.5156,453.875 126.6875,453.6563 C126.7969,453.5 126.8281,453.3125 126.8281,452.8906 L126.8281,451.4688 C126.8281,451.0313 126.8125,450.9063 126.7188,450.75 C126.5625,450.4844 126.2813,450.3438 125.9844,450.3438 C125.6875,450.3438 125.4844,450.4375 125.2656,450.75 L125.0938,450.6719 Z " fill="#000000"/><text fill="#000000" font-family="sans-serif" font-size="14" lengthAdjust="spacing" textLength="55" x="143.25" y="459.8467">Interval</text><line style="stroke:#181818;stroke-width:0.5;" x1="69.5" x2="239.5" y1="471" y2="471"/><text fill="#000000" font-family="sans-serif" font-size="14" lengthAdjust="spacing" textLength="71" x="74.5" y="487.9951">startTime</text><text fill="#000000" font-family="sans-serif" font-size="14" lengthAdjust="spacing" textLength="63" x="74.5" y="504.292">endTime</text><line style="stroke:#181818;stroke-width:0.5;" x1="69.5" x2="239.5" y1="511.5938" y2="511.5938"/><text fill="#000000" font-family="sans-serif" font-size="14" lengthAdjust="spacing" textLength="160" x="74.5" y="528.5889">begin(project Project)</text><text fill="#000000" font-family="sans-serif" font-size="14" lengthAdjust="spacing" textLength="51" x="74.5" y="544.8857">begin()</text><text fill="#000000" font-family="sans-serif" font-size="14" lengthAdjust="spacing" textLength="37" x="74.5" y="561.1826">end()</text></g><!--class Customer--><g id="elem_Customer"><rect codeLine="12" fill="#F1F1F1" height="48" id="Customer" rx="2.5" ry="2.5" style="stroke:#181818;stroke-width:0.5;" width="102" x="77.5" y="223"/><ellipse cx="92.5" cy="239" fill="#ADD1B2" rx="11" ry="11" style="stroke:#181818;stroke-width:1.0;"/><path d="M94.8438,234.6719 C93.9063,234.2344 93.3125,234.0938 92.4375,234.0938 C89.8125,234.0938 87.8125,236.1719 87.8125,238.8906 L87.8125,240.0156 C87.8125,242.5938 89.9219,244.4844 92.8125,244.4844 C94.0313,244.4844 95.1875,244.1875 95.9375,243.6406 C96.5156,243.2344 96.8438,242.7813 96.8438,242.3906 C96.8438,241.9375 96.4531,241.5469 95.9844,241.5469 C95.7656,241.5469 95.5625,241.625 95.375,241.8125 C94.9219,242.2969 94.9219,242.2969 94.7344,242.3906 C94.3125,242.6563 93.625,242.7813 92.8594,242.7813 C90.8125,242.7813 89.5156,241.6875 89.5156,239.9844 L89.5156,238.8906 C89.5156,237.1094 90.7656,235.7969 92.5,235.7969 C93.0781,235.7969 93.6875,235.9531 94.1563,236.2031 C94.6406,236.4844 94.8125,236.7031 94.9063,237.1094 C94.9688,237.5156 95,237.6406 95.1406,237.7656 C95.2813,237.9063 95.5156,238.0156 95.7344,238.0156 C96,238.0156 96.2656,237.875 96.4375,237.6563 C96.5469,237.5 96.5781,237.3125 96.5781,236.8906 L96.5781,235.4688 C96.5781,235.0313 96.5625,234.9063 96.4688,234.75 C96.3125,234.4844 96.0313,234.3438 95.7344,234.3438 C95.4375,234.3438 95.2344,234.4375 95.0156,234.75 L94.8438,234.6719 Z " fill="#000000"/><text fill="#000000" font-family="sans-serif" font-size="14" lengthAdjust="spacing" textLength="70" x="106.5" y="243.8467">Customer</text><line style="stroke:#181818;stroke-width:0.5;" x1="78.5" x2="178.5" y1="255" y2="255"/><line style="stroke:#181818;stroke-width:0.5;" x1="78.5" x2="178.5" y1="263" y2="263"/></g><!--link TimeRegister to User--><g id="link_TimeRegister_User"><path codeLine="14" d="M71.5,67 C71.5,84.658 71.5,90.941 71.5,108.678 " fill="none" id="TimeRegister-User" style="stroke:#181818;stroke-width:1.0;"/><polygon fill="#181818" points="71.5,55,67.5,61,71.5,67,75.5,61,71.5,55" style="stroke:#181818;stroke-width:1.0;"/><polygon fill="#181818" points="71.5,114.678,75.5,105.678,71.5,109.678,67.5,105.678,71.5,114.678" style="stroke:#181818;stroke-width:1.0;"/><text fill="#000000" font-family="sans-serif" font-size="13" lengthAdjust="spacing" textLength="8" x="62.525" y="104.0045">n</text></g><!--link User to Customer--><g id="link_User_Customer"><path codeLine="15" d="M89.5514,173.5689 C99.0467,191.2269 103.5793,199.6566 113.1173,217.3936 " fill="none" id="User-Customer" style="stroke:#181818;stroke-width:1.0;"/><polygon fill="#181818" points="83.8682,163,83.1869,170.1788,89.5514,173.5689,90.2328,166.39,83.8682,163" style="stroke:#181818;stroke-width:1.0;"/><polygon fill="#181818" points="115.959,222.678,115.2194,212.8569,113.5909,218.2743,108.1736,216.6458,115.959,222.678" style="stroke:#181818;stroke-width:1.0;"/><text fill="#000000" font-family="sans-serif" font-size="13" lengthAdjust="spacing" textLength="8" x="103.9271" y="212.0045">n</text></g><!--link Customer to Project--><g id="link_Customer_Project"><path codeLine="16" d="M134.0893,282.8486 C136.9213,300.5066 137.9648,307.0167 140.8098,324.7537 " fill="none" id="Customer-Project" style="stroke:#181818;stroke-width:1.0;"/><polygon fill="#181818" points="132.189,271,129.1896,277.5577,134.0893,282.8486,137.0887,276.2909,132.189,271" style="stroke:#181818;stroke-width:1.0;"/><polygon fill="#181818" points="141.76,330.678,144.2841,321.1581,140.9681,325.7411,136.3851,322.4251,141.76,330.678" style="stroke:#181818;stroke-width:1.0;"/><text fill="#000000" font-family="sans-serif" font-size="13" lengthAdjust="spacing" textLength="8" x="131.8734" y="320.0045">n</text></g><!--link User to Category--><g id="link_User_Category"><path codeLine="17" d="M64.3545,174.7771 C51.6189,239.3381 22.3285,415.672 51.5,568 C55.525,589.0176 62.2327,606.0714 69.9279,622.3268 " fill="none" id="User-Category" style="stroke:#181818;stroke-width:1.0;"/><polygon fill="#181818" points="66.6769,163.004,61.5913,168.1164,64.3545,174.7771,69.4401,169.6647,66.6769,163.004" style="stroke:#181818;stroke-width:1.0;"/><polygon fill="#181818" points="72.4951,627.7498,72.2596,617.9038,70.3557,623.2306,65.0289,621.3267,72.4951,627.7498" style="stroke:#181818;stroke-width:1.0;"/><text fill="#000000" font-family="sans-serif" font-size="13" lengthAdjust="spacing" textLength="8" x="60.5939" y="617.0938">n</text></g><!--link Project to Interval--><g id="link_Project_Interval"><path codeLine="18" d="M147.6616,391.1904 C148.6526,407.3274 148.922,411.7033 150.227,432.9403 " fill="none" id="Project-Interval" style="stroke:#181818;stroke-width:1.0;"/><polygon fill="#181818" points="146.926,379.213,143.3013,385.4469,147.6616,391.1904,151.2863,384.9565,146.926,379.213" style="stroke:#181818;stroke-width:1.0;"/><polygon fill="#181818" points="150.595,438.929,154.0355,429.7006,150.2883,433.9384,146.0505,430.1913,150.595,438.929" style="stroke:#181818;stroke-width:1.0;"/><text fill="#000000" font-family="sans-serif" font-size="13" lengthAdjust="spacing" textLength="8" x="141.7304" y="428.0939">n</text></g><!--link Interval to Category--><g id="link_Interval_Category"><path codeLine="19" d="M118.8274,579.1585 C108.7324,600.2857 105.8896,606.2346 98.2136,622.2995 " fill="none" id="Interval-Category" style="stroke:#181818;stroke-width:1.0;"/><polygon fill="none" points="124.001,568.331,117.8051,572.0202,118.8274,579.1585,125.0234,575.4693,124.001,568.331" style="stroke:#181818;stroke-width:1.0;"/><polygon fill="#181818" points="95.6268,627.7133,103.1161,621.3172,97.7824,623.2018,95.8978,617.8682,95.6268,627.7133" style="stroke:#181818;stroke-width:1.0;"/><text fill="#000000" font-family="sans-serif" font-size="13" lengthAdjust="spacing" textLength="8" x="112.0121" y="588.7408">n</text><text fill="#000000" font-family="sans-serif" font-size="13" lengthAdjust="spacing" textLength="8" x="89.364" y="617.0484">n</text></g><!--SRC=[Iyv9B2vM2CdCJGrAJSyiBaajuae62uKMmva1HVbPgSab2b2kSs99Qdf-KIMKwva7r5IMcADGpQMWK5oIM5G2CWt8JirBWRAIW4RdQHH0ZO4QfmcNq8Ge1jArC2jAYqloSu4Eu49scOAMRaf-UPwkdO9IdXB4WI02LHYk5SP0bOPQZaqZp5imxwB8mdp91VSkI3GVcm40]--></g></svg>