<?xml version="1.0" encoding="us-ascii" standalone="no"?><svg xmlns="http://www.w3.org/2000/svg" xmlns:xlink="http://www.w3.org/1999/xlink" contentStyleType="text/css" height="554px" preserveAspectRatio="none" style="width:594px;height:554px;background:#FFFFFF;" version="1.1" viewBox="0 0 594 554" width="594px" zoomAndPan="magnify"><defs/><g><!--entity Frontend--><g id="elem_Frontend"><ellipse cx="39" cy="237" fill="#F1F1F1" rx="8" ry="8" style="stroke:#181818;stroke-width:0.5;"/><path d="M39,245 L39,272 M26,253 L52,253 M39,272 L26,287 M39,272 L52,287 " fill="none" style="stroke:#181818;stroke-width:0.5;"/><text fill="#000000" font-family="sans-serif" font-size="14" lengthAdjust="spacing" textLength="66" x="6" y="301.4951">Frontend</text></g><g id="elem_List"><ellipse cx="236.7655" cy="21.5531" fill="#F1F1F1" rx="65.7655" ry="15.5531" style="stroke:#181818;stroke-width:0.5;"/><text fill="#000000" font-family="sans-serif" font-size="14" lengthAdjust="spacing" textLength="81" x="193.2655" y="25.3007">IntervalList</text></g><g id="elem_Show"><ellipse cx="518.0634" cy="195.4127" fill="#F1F1F1" rx="70.0634" ry="16.4127" style="stroke:#181818;stroke-width:0.5;"/><text fill="#000000" font-family="sans-serif" font-size="14" lengthAdjust="spacing" textLength="93" x="468.5634" y="199.1602">IntervalShow</text></g><g id="elem_Open"><ellipse cx="236.9333" cy="160.4867" fill="#F1F1F1" rx="70.4333" ry="16.4867" style="stroke:#181818;stroke-width:0.5;"/><text fill="#000000" font-family="sans-serif" font-size="14" lengthAdjust="spacing" textLength="94" x="186.9333" y="164.2342">IntervalOpen</text></g><g id="elem_Close"><ellipse cx="236.9333" cy="228.4867" fill="#F1F1F1" rx="70.4333" ry="16.4867" style="stroke:#181818;stroke-width:0.5;"/><text fill="#000000" font-family="sans-serif" font-size="14" lengthAdjust="spacing" textLength="94" x="186.9333" y="232.2342">IntervalClose</text></g><g id="elem_Update"><ellipse cx="236.8844" cy="297.4769" fill="#F1F1F1" rx="75.3844" ry="17.4769" style="stroke:#181818;stroke-width:0.5;"/><text fill="#000000" font-family="sans-serif" font-size="14" lengthAdjust="spacing" textLength="107" x="180.3844" y="301.2244">IntervalUpdate</text></g><g id="elem_Delete"><ellipse cx="236.8536" cy="368.3707" fill="#F1F1F1" rx="77.3536" ry="17.8707" style="stroke:#181818;stroke-width:0.5;"/><text fill="#000000" font-family="sans-serif" font-size="14" lengthAdjust="spacing" textLength="112" x="178.1333" y="372.0454">IntervalDestroy</text></g><g id="elem_Attach"><ellipse cx="237.2042" cy="444.4408" fill="#F1F1F1" rx="102.7042" ry="22.9408" style="stroke:#181818;stroke-width:0.5;"/><text fill="#000000" font-family="sans-serif" font-size="14" lengthAdjust="spacing" textLength="170" x="152.2042" y="447.2875">IntervalAttachCategory</text></g><g id="elem_Detach"><ellipse cx="237.0751" cy="525.715" fill="#F1F1F1" rx="104.0751" ry="23.215" style="stroke:#181818;stroke-width:0.5;"/><text fill="#000000" font-family="sans-serif" font-size="14" lengthAdjust="spacing" textLength="173" x="150.5751" y="528.5617">IntervalDetachCategory</text></g><!--link Frontend to List--><g id="link_Frontend_List"><path d="M41.4553,228.451 C45.2203,183.393 58.1838,108.877 102,64.5 C121.741,44.506 144.9276,35.0902 170.9346,29.3592 " fill="none" id="Frontend-to-List" style="stroke:#181818;stroke-width:1.0;"/><polygon fill="#181818" points="176.794,28.068,167.1441,26.0985,171.9112,29.144,168.8657,33.9111,176.794,28.068" style="stroke:#181818;stroke-width:1.0;"/></g><!--link Frontend to Show--><g id="link_Frontend_Show"><path d="M53.3925,228.301 C67.4556,194.689 93.1409,147.874 133,126.5 C254.774,61.199 421.0812,140.8532 485.7442,177.0992 " fill="none" id="Frontend-to-Show" style="stroke:#181818;stroke-width:1.0;"/><polygon fill="#181818" points="490.978,180.033,485.0831,172.1431,486.6165,177.5882,481.1714,179.1216,490.978,180.033" style="stroke:#181818;stroke-width:1.0;"/></g><!--link Frontend to Open--><g id="link_Frontend_Open"><path d="M72.1122,237.229 C89.217,222.822 111.186,206.102 133,194.5 C150.291,185.304 164.7928,179.7176 182.7328,174.2486 " fill="none" id="Frontend-to-Open" style="stroke:#181818;stroke-width:1.0;"/><polygon fill="#181818" points="188.472,172.499,178.6967,171.2972,183.6893,173.957,181.0295,178.9496,188.472,172.499" style="stroke:#181818;stroke-width:1.0;"/></g><!--link Frontend to Close--><g id="link_Frontend_Close"><path d="M72.3654,260.225 C102.1573,254.449 141.0357,246.9109 176.2197,240.0899 " fill="none" id="Frontend-to-Close" style="stroke:#181818;stroke-width:1.0;"/><polygon fill="#181818" points="182.11,238.948,172.5132,236.734,177.2014,239.8996,174.0358,244.5878,182.11,238.948" style="stroke:#181818;stroke-width:1.0;"/></g><!--link Frontend to Update--><g id="link_Frontend_Update"><path d="M72.3654,271.619 C99.9827,275.987 134.5436,281.4538 168.3356,286.7978 " fill="none" id="Frontend-to-Update" style="stroke:#181818;stroke-width:1.0;"/><polygon fill="#181818" points="174.262,287.735,165.9973,282.3783,169.3234,286.954,164.7477,290.2801,174.262,287.735" style="stroke:#181818;stroke-width:1.0;"/></g><!--link Frontend to Delete--><g id="link_Frontend_Delete"><path d="M72.1269,292.708 C89.4115,305.908 111.539,321.416 133,332.5 C150.083,341.323 164.1159,346.9227 181.7059,352.7447 " fill="none" id="Frontend-to-Delete" style="stroke:#181818;stroke-width:1.0;"/><polygon fill="#181818" points="187.402,354.63,180.1147,348.0046,182.6552,353.0589,177.601,355.5994,187.402,354.63" style="stroke:#181818;stroke-width:1.0;"/></g><!--link Frontend to Attach--><g id="link_Frontend_Attach"><path d="M57.5332,304.589 C73.3814,335.289 99.3685,377.63 133,404.5 C144.465,413.66 152.7308,418.6264 166.4608,424.3004 " fill="none" id="Frontend-to-Attach" style="stroke:#181818;stroke-width:1.0;"/><polygon fill="#181818" points="172.006,426.592,165.216,419.4579,167.385,424.6824,162.1606,426.8514,172.006,426.592" style="stroke:#181818;stroke-width:1.0;"/></g><!--link Frontend to Detach--><g id="link_Frontend_Detach"><path d="M46.7172,304.532 C57.1153,352.758 81.54,435.619 133,485.5 C142.917,495.1131 149.9097,500.0719 162.7347,505.6998 " fill="none" id="Frontend-to-Detach" style="stroke:#181818;stroke-width:1.0;"/><polygon fill="#181818" points="168.229,508.1108,161.5949,500.8314,163.6504,506.1016,158.3803,508.1571,168.229,508.1108" style="stroke:#181818;stroke-width:1.0;"/></g><!--link Open to Show--><g id="link_Open_Show"><path d="M299.573,168.224 C345.95,174.042 403.2927,181.235 449.6307,187.049 " fill="none" id="Open-to-Show" style="stroke:#181818;stroke-width:1.0;stroke-dasharray:7.0,7.0;"/><polygon fill="#181818" points="455.584,187.796,447.152,182.7067,450.6229,187.1735,446.156,190.6444,455.584,187.796" style="stroke:#181818;stroke-width:1.0;"/><text fill="#000000" font-family="sans-serif" font-size="13" lengthAdjust="spacing" textLength="45" x="372" y="173.5669">include</text></g><!--link Close to Show--><g id="link_Close_Show"><path d="M306.334,231.796 C340.126,232.303 381.41,231.234 418,225.5 C438.936,222.219 455.921,217.5075 474.278,211.3125 " fill="none" id="Close-to-Show" style="stroke:#181818;stroke-width:1.0;stroke-dasharray:7.0,7.0;"/><polygon fill="#181818" points="479.963,209.394,470.1565,208.4818,475.2255,210.9928,472.7145,216.0618,479.963,209.394" style="stroke:#181818;stroke-width:1.0;"/><text fill="#000000" font-family="sans-serif" font-size="13" lengthAdjust="spacing" textLength="45" x="372" y="221.5669">include</text></g><!--link Update to Show--><g id="link_Update_Show"><path d="M299.425,287.611 C334.9,280.732 379.9,269.982 418,254.5 C446.175,243.051 470.84,227.783 490.255,214.517 " fill="none" id="Update-to-Show" style="stroke:#181818;stroke-width:1.0;stroke-dasharray:7.0,7.0;"/><polygon fill="#181818" points="495.209,211.132,485.5214,212.9068,491.0807,213.9528,490.0347,219.5121,495.209,211.132" style="stroke:#181818;stroke-width:1.0;"/><text fill="#000000" font-family="sans-serif" font-size="13" lengthAdjust="spacing" textLength="45" x="372" y="250.5669">include</text></g><!--SRC=[RP112i8m44NtESNGVNi05uAq28BWGZn0ICOs49AIJ1LlRvEfYvZkVjx_xSmVYqy2yX3CE15e4r2HyKu8gSW7E0Vl29qMIqGb8q9pMT_X9UtLH6f0HaYYjk-JVsSxYTg-pUYodKHjzzP7p7vMTU0nQqcSO5b71emK_2Td1hIubpaHIJNrw_UZ3nnbjFUxAif8YD-He6sFV8w2f0j0YNBhWd3F0ct52hOLATYsyL-ELqk3eEjuYGCOf-oYKUHfEvn7riON]--></g></svg>