<?xml version="1.0" encoding="us-ascii" standalone="no"?><svg xmlns="http://www.w3.org/2000/svg" xmlns:xlink="http://www.w3.org/1999/xlink" contentStyleType="text/css" height="540px" preserveAspectRatio="none" style="width:517px;height:540px;background:#FFFFFF;" version="1.1" viewBox="0 0 517 540" width="517px" zoomAndPan="magnify"><defs/><g><!--entity User--><g id="elem_User"><ellipse cx="21.5" cy="241" fill="#F1F1F1" rx="8" ry="8" style="stroke:#181818;stroke-width:0.5;"/><path d="M21.5,249 L21.5,276 M8.5,257 L34.5,257 M21.5,276 L8.5,291 M21.5,276 L34.5,291 " fill="none" style="stroke:#181818;stroke-width:0.5;"/><text fill="#000000" font-family="sans-serif" font-size="14" lengthAdjust="spacing" textLength="31" x="6" y="305.4951">User</text></g><g id="elem_List"><ellipse cx="179.6952" cy="22.339" fill="#F1F1F1" rx="69.6952" ry="16.339" style="stroke:#181818;stroke-width:0.5;"/><text fill="#000000" font-family="sans-serif" font-size="14" lengthAdjust="spacing" textLength="92" x="130.6952" y="26.0866">List intervals</text></g><g id="elem_Show"><ellipse cx="439.5529" cy="198.7106" fill="#F1F1F1" rx="71.5529" ry="16.7106" style="stroke:#181818;stroke-width:0.5;"/><text fill="#000000" font-family="sans-serif" font-size="14" lengthAdjust="spacing" textLength="97" x="388.0529" y="202.4581">Show interval</text></g><g id="elem_Open"><ellipse cx="179.4293" cy="162.2859" fill="#F1F1F1" rx="71.9293" ry="16.7859" style="stroke:#181818;stroke-width:0.5;"/><text fill="#000000" font-family="sans-serif" font-size="14" lengthAdjust="spacing" textLength="98" x="127.4293" y="166.0334">Open interval</text></g><g id="elem_Close"><ellipse cx="179.4293" cy="231.2859" fill="#F1F1F1" rx="71.9293" ry="16.7859" style="stroke:#181818;stroke-width:0.5;"/><text fill="#000000" font-family="sans-serif" font-size="14" lengthAdjust="spacing" textLength="98" x="127.4293" y="235.0334">Close interval</text></g><g id="elem_Update"><ellipse cx="179.4563" cy="301.2913" fill="#F1F1F1" rx="76.9563" ry="17.7913" style="stroke:#181818;stroke-width:0.5;"/><text fill="#000000" font-family="sans-serif" font-size="14" lengthAdjust="spacing" textLength="111" x="121.0675" y="305.0101">Update Interval</text></g><g id="elem_Delete"><ellipse cx="179.2754" cy="372.5551" fill="#F1F1F1" rx="75.7754" ry="17.5551" style="stroke:#181818;stroke-width:0.5;"/><text fill="#000000" font-family="sans-serif" font-size="14" lengthAdjust="spacing" textLength="108" x="122.2754" y="376.3026">Delete Interval</text></g><g id="elem_Attach"><ellipse cx="179.6963" cy="443.4393" fill="#F1F1F1" rx="80.1963" ry="18.4393" style="stroke:#181818;stroke-width:0.5;"/><text fill="#000000" font-family="sans-serif" font-size="14" lengthAdjust="spacing" textLength="119" x="118.6039" y="446.7979">Attach Category</text></g><g id="elem_Detach"><ellipse cx="179.4455" cy="515.6891" fill="#F1F1F1" rx="81.4455" ry="18.6891" style="stroke:#181818;stroke-width:0.5;"/><text fill="#000000" font-family="sans-serif" font-size="14" lengthAdjust="spacing" textLength="122" x="117.3109" y="518.909">Detach Category</text></g><!--link User to List--><g id="link_User_List"><path d="M26.5543,232.07 C32.7481,180.101 46.0967,91.074 67,66.5 C81.4948,49.46 97.7497,40.7587 118.3762,34.3247 " fill="none" id="User-to-List" style="stroke:#181818;stroke-width:1.0;"/><polygon fill="#181818" points="124.104,32.538,114.3212,31.3995,119.3308,34.0269,116.7034,39.0365,124.104,32.538" style="stroke:#181818;stroke-width:1.0;"/></g><!--link User to Show--><g id="link_User_Show"><path d="M30.8914,232.437 C40.6614,198.266 60.4927,150.111 98,127.5 C203.241,64.056 351.2367,143.1667 409.6007,179.5857 " fill="none" id="User-to-Show" style="stroke:#181818;stroke-width:1.0;"/><polygon fill="#181818" points="414.691,182.762,409.1731,174.604,410.4491,180.1151,404.938,181.391,414.691,182.762" style="stroke:#181818;stroke-width:1.0;"/></g><!--link User to Open--><g id="link_User_Open"><path d="M37.2371,253.022 C51.4915,236.959 74.3552,213.309 98,197.5 C110.415,189.199 119.5801,184.4235 133.0041,178.8535 " fill="none" id="User-to-Open" style="stroke:#181818;stroke-width:1.0;"/><polygon fill="#181818" points="138.546,176.554,128.7002,176.3086,133.9278,178.4702,131.7662,183.6978,138.546,176.554" style="stroke:#181818;stroke-width:1.0;"/></g><!--link User to Close--><g id="link_User_Close"><path d="M37.1761,266.831 C58.1101,261.597 91.7209,253.1952 123.6242,245.2192 " fill="none" id="User-to-Close" style="stroke:#181818;stroke-width:1.0;"/><polygon fill="#181818" points="129.445,243.764,119.7436,242.0663,124.5943,244.9767,121.6839,249.8274,129.445,243.764" style="stroke:#181818;stroke-width:1.0;"/></g><!--link User to Update--><g id="link_User_Update"><path d="M37.1761,273.416 C56.138,277.184 84.3918,282.7984 114.3651,288.7554 " fill="none" id="User-to-Update" style="stroke:#181818;stroke-width:1.0;"/><polygon fill="#181818" points="120.25,289.925,112.2024,284.2474,115.3459,288.9503,110.6429,292.0939,120.25,289.925" style="stroke:#181818;stroke-width:1.0;"/></g><!--link User to Delete--><g id="link_User_Delete"><path d="M37.2344,286.17 C51.6644,300.853 74.8062,322.7 98,337.5 C110.333,345.37 119.204,349.9358 132.391,355.4738 " fill="none" id="User-to-Delete" style="stroke:#181818;stroke-width:1.0;"/><polygon fill="#181818" points="137.923,357.797,131.1738,350.6242,133.313,355.861,128.0762,358.0002,137.923,357.797" style="stroke:#181818;stroke-width:1.0;"/></g><!--link User to Attach--><g id="link_User_Attach"><path d="M35.6819,308.545 C47.8098,338.748 68.4225,380.285 98,407.5 C107.576,416.311 114.1928,420.786 126.0738,426.111 " fill="none" id="User-to-Attach" style="stroke:#181818;stroke-width:1.0;"/><polygon fill="#181818" points="131.549,428.565,124.9721,421.2339,126.9863,426.52,121.7002,428.5342,131.549,428.565" style="stroke:#181818;stroke-width:1.0;"/></g><!--link User to Detach--><g id="link_User_Detach"><path d="M27.1603,308.738 C34.6096,354.598 53.237,431.302 98,479.5 C106.439,488.5865 112.1533,493.0038 123.4643,498.2466 " fill="none" id="User-to-Detach" style="stroke:#181818;stroke-width:1.0;"/><polygon fill="#181818" points="128.908,500.7698,122.4247,493.3559,124.3716,498.6671,119.0604,500.6141,128.908,500.7698" style="stroke:#181818;stroke-width:1.0;"/></g><!--link Open to Show--><g id="link_Open_Show"><path d="M241.97,171.077 C283.106,176.817 331.0596,183.5077 372.0046,189.2217 " fill="none" id="Open-to-Show" style="stroke:#181818;stroke-width:1.0;stroke-dasharray:7.0,7.0;"/><polygon fill="#181818" points="377.947,190.051,369.5862,184.8455,372.995,189.3599,368.4805,192.7687,377.947,190.051" style="stroke:#181818;stroke-width:1.0;"/><text fill="#000000" font-family="sans-serif" font-size="13" lengthAdjust="spacing" textLength="45" x="292" y="173.5669">include</text></g><!--link Close to Show--><g id="link_Close_Show"><path d="M250.632,234.214 C278.032,234.22 309.626,232.921 338,228.5 C359.05,225.22 376.1551,220.558 394.7101,214.414 " fill="none" id="Close-to-Show" style="stroke:#181818;stroke-width:1.0;stroke-dasharray:7.0,7.0;"/><polygon fill="#181818" points="400.406,212.528,390.6048,211.5598,395.6594,214.0997,393.1196,219.1543,400.406,212.528" style="stroke:#181818;stroke-width:1.0;"/><text fill="#000000" font-family="sans-serif" font-size="13" lengthAdjust="spacing" textLength="45" x="292" y="224.5669">include</text></g><!--link Update to Show--><g id="link_Update_Show"><path d="M237.095,289.446 C267.632,282.016 305.597,271.262 338,257.5 C366.12,245.557 391.0249,230.4804 410.8319,217.4114 " fill="none" id="Update-to-Show" style="stroke:#181818;stroke-width:1.0;stroke-dasharray:7.0,7.0;"/><polygon fill="#181818" points="415.84,214.107,406.1249,215.7249,411.6666,216.8607,410.5308,222.4023,415.84,214.107" style="stroke:#181818;stroke-width:1.0;"/><text fill="#000000" font-family="sans-serif" font-size="13" lengthAdjust="spacing" textLength="45" x="292" y="253.5669">include</text></g><!--SRC=[PP112iCW44NtdcB8FZb05uMIRWg5BaeE86QQ21A3Jbfw-qP7D6bMylz_EkCt-28W2quF8q6l7IhITX92Ah8EEezEB1wLz0ZLNNi2FH6wjpI-0kaXM0LuZlQJWPW7f-IF6QTz7foIjyQknmw8LY6wkPU4SDiYx1NcYWR_6VOASo6IQeHslJXOzuqCUzjtZWnxGeHYeAxFN41MiO0Yu- -ougzacTREEgsOTLfda_FeM6BJyB3JsfOoIu-2kplwgR53y0C0]--></g></svg>