<?xml version="1.0" encoding="us-ascii" standalone="no"?><svg xmlns="http://www.w3.org/2000/svg" xmlns:xlink="http://www.w3.org/1999/xlink" contentStyleType="text/css" height="270px" preserveAspectRatio="none" style="width:918px;height:270px;background:#FFFFFF;" version="1.1" viewBox="0 0 918 270" width="918px" zoomAndPan="magnify"><defs/><g><g id="Initial"><rect fill="#F1F1F1" height="50.2656" rx="12.5" ry="12.5" style="stroke:#181818;stroke-width:0.5;" width="178" x="733.5" y="87"/><line style="stroke:#181818;stroke-width:0.5;" x1="733.5" x2="911.5" y1="113.2969" y2="113.2969"/><text fill="#000000" font-family="sans-serif" font-size="14" lengthAdjust="spacing" textLength="40" x="802.5" y="104.9951">Initial</text><text fill="#000000" font-family="sans-serif" font-size="12" lengthAdjust="spacing" textLength="158" x="738.5" y="129.4355">No hay intervalos abiertos</text></g><g id="Opened"><rect fill="#F1F1F1" height="50.2656" rx="12.5" ry="12.5" style="stroke:#181818;stroke-width:0.5;" width="160" x="256.5" y="214"/><line style="stroke:#181818;stroke-width:0.5;" x1="256.5" x2="416.5" y1="240.2969" y2="240.2969"/><text fill="#000000" font-family="sans-serif" font-size="14" lengthAdjust="spacing" textLength="57" x="308" y="231.9951">Opened</text><text fill="#000000" font-family="sans-serif" font-size="12" lengthAdjust="spacing" textLength="140" x="261.5" y="256.4355">Se trabaja en una tarea</text></g><g id="Closed"><rect fill="#F1F1F1" height="50.2656" rx="12.5" ry="12.5" style="stroke:#181818;stroke-width:0.5;" width="224" x="96.5" y="87"/><line style="stroke:#181818;stroke-width:0.5;" x1="96.5" x2="320.5" y1="113.2969" y2="113.2969"/><text fill="#000000" font-family="sans-serif" font-size="14" lengthAdjust="spacing" textLength="48" x="184.5" y="104.9951">Closed</text><text fill="#000000" font-family="sans-serif" font-size="12" lengthAdjust="spacing" textLength="204" x="101.5" y="129.4355">Se ha cerrado el intervalo abierto</text></g><ellipse cx="822.5" cy="16" fill="#222222" rx="10" ry="10" style="stroke:#222222;stroke-width:1.0;"/><g id="elem_GMN12"><path d="M6,219 L6,259.2656 A0,0 0 0 0 6,259.2656 L221,259.2656 A0,0 0 0 0 221,259.2656 L221,243 L256.247,239 L221,235 L221,229 L211,219 L6,219 A0,0 0 0 0 6,219 " fill="#FEFFDD" style="stroke:#181818;stroke-width:0.5;"/><path d="M211,219 L211,229 L221,229 L211,219 " fill="#FEFFDD" style="stroke:#181818;stroke-width:0.5;"/><text fill="#000000" font-family="sans-serif" font-size="13" lengthAdjust="spacing" textLength="133" x="12" y="236.0669">Solo es posible tener</text><text fill="#000000" font-family="sans-serif" font-size="13" lengthAdjust="spacing" textLength="194" x="12" y="251.1997">un intervalo de trabajo abierto</text></g><!--link *start* to Initial--><g id="link_*start*_Initial"><path d="M822.5,26.013 C822.5,39.891 822.5,60.965 822.5,80.84 " fill="none" id="*start*-to-Initial" style="stroke:#181818;stroke-width:1.0;"/><polygon fill="#181818" points="822.5,86.84,826.5,77.84,822.5,81.84,818.5,77.84,822.5,86.84" style="stroke:#181818;stroke-width:1.0;"/></g><!--link Initial to Opened--><g id="link_Initial_Opened"><path d="M733.36,135.927 C642.793,159.221 509.5959,193.4793 422.4239,215.9003 " fill="none" id="Initial-to-Opened" style="stroke:#181818;stroke-width:1.0;"/><polygon fill="#181818" points="416.613,217.3949,426.3257,219.0269,421.4554,216.1494,424.3329,211.2791,416.613,217.3949" style="stroke:#181818;stroke-width:1.0;"/><text fill="#000000" font-family="sans-serif" font-size="13" lengthAdjust="spacing" textLength="86" x="609.5" y="180.0669">Open interval</text></g><!--link Opened to Opened--><g id="link_Opened_Opened"><path d="M416.577,227.5346 C436.562,228.3364 451.5,232.1582 451.5,239 C451.5,245.8418 442.5572,249.4231 422.5722,250.2249 " fill="none" id="Opened-to-Opened" style="stroke:#181818;stroke-width:1.0;"/><polygon fill="#181818" points="416.577,250.4654,425.7301,254.1014,421.573,250.265,425.4094,246.1078,416.577,250.4654" style="stroke:#181818;stroke-width:1.0;"/><text fill="#000000" font-family="sans-serif" font-size="13" lengthAdjust="spacing" textLength="353" x="457.5" y="243.5669">Open interval (falla porque ya hay un intervalo abierto)</text></g><!--link Opened to Closed--><g id="link_Opened_Closed"><path d="M327.102,213.9338 C320.46,199.1439 310.438,180.5078 297.5,167 C286.374,155.384 277.3792,148.3929 263.6562,140.2029 " fill="none" id="Opened-to-Closed" style="stroke:#181818;stroke-width:1.0;"/><polygon fill="#181818" points="258.504,137.128,264.1824,145.1751,262.7975,139.6904,268.2822,138.3055,258.504,137.128" style="stroke:#181818;stroke-width:1.0;"/><text fill="#000000" font-family="sans-serif" font-size="13" lengthAdjust="spacing" textLength="87" x="310.5" y="180.0669">Close interval</text></g><!--link Closed to Opened--><g id="link_Closed_Opened"><path d="M200.694,137.311 C197.521,152.013 196.441,170.467 205.5,184 C217.405,201.7846 230.7845,211.4712 250.6075,219.4763 " fill="none" id="Closed-to-Opened" style="stroke:#181818;stroke-width:1.0;"/><polygon fill="#181818" points="256.171,221.723,249.3236,214.644,251.5348,219.8508,246.328,222.0619,256.171,221.723" style="stroke:#181818;stroke-width:1.0;"/><text fill="#000000" font-family="sans-serif" font-size="13" lengthAdjust="spacing" textLength="86" x="206.5" y="180.0669">Open interval</text></g><!--link Closed to Closed--><g id="link_Closed_Closed"><path d="M320.662,102.431 C341.139,103.642 355.5,106.832 355.5,112 C355.5,117.168 347.1285,120.0038 326.6515,121.2148 " fill="none" id="Closed-to-Closed" style="stroke:#181818;stroke-width:1.0;"/><polygon fill="#181818" points="320.662,121.569,329.8824,125.0307,325.6533,121.2738,329.4102,117.0446,320.662,121.569" style="stroke:#181818;stroke-width:1.0;"/><text fill="#000000" font-family="sans-serif" font-size="13" lengthAdjust="spacing" textLength="348" x="361.5" y="116.5669">Close interval (falla porque no hay intervalos abiertos)</text></g><!--SRC=[VL6xJWD13EptAwOaIFa12Xegcb2aH1I-d8zRjF86hmyfVn_Vcn0TbQtHU6Pi5oDZl4gqI2bC5KyuPBHqGHHZ_Q6K2wYAh9PBACF8svc5wp0M7pWoJAcYBm8BEY4OATF4Vd45Puzb8BU44wjIdS5fzPbjGdX__C1-_toNhSSMrxvPXkSmsmmyD9GIuPprksDSQ5Yoatl_tM-nCRQB3StgD-7_KFuOokPLTukOni_MjdSCGR8VD75ZoCty1k2OFJmNTognIluCnzNnc-Ng-KdhdLbgz8fN]--></g></svg>