<?xml version="1.0" encoding="us-ascii" standalone="no"?><svg xmlns="http://www.w3.org/2000/svg" xmlns:xlink="http://www.w3.org/1999/xlink" contentStyleType="text/css" height="473px" preserveAspectRatio="none" style="width:594px;height:473px;background:#FFFFFF;" version="1.1" viewBox="0 0 594 473" width="594px" zoomAndPan="magnify"><defs/><g><!--entity Frontend--><g id="elem_Frontend"><ellipse cx="39" cy="199" fill="#F1F1F1" rx="8" ry="8" style="stroke:#181818;stroke-width:0.5;"/><path d="M39,207 L39,234 M26,215 L52,215 M39,234 L26,249 M39,234 L52,249 " fill="none" style="stroke:#181818;stroke-width:0.5;"/><text fill="#000000" font-family="sans-serif" font-size="14" lengthAdjust="spacing" textLength="66" x="6" y="263.4951">Frontend</text></g><g id="elem_List"><ellipse cx="236.7655" cy="21.5531" fill="#F1F1F1" rx="65.7655" ry="15.5531" style="stroke:#181818;stroke-width:0.5;"/><text fill="#000000" font-family="sans-serif" font-size="14" lengthAdjust="spacing" textLength="81" x="193.2655" y="25.3007">IntervalList</text></g><g id="elem_Show"><ellipse cx="518.0634" cy="195.4127" fill="#F1F1F1" rx="70.0634" ry="16.4127" style="stroke:#181818;stroke-width:0.5;"/><text fill="#000000" font-family="sans-serif" font-size="14" lengthAdjust="spacing" textLength="93" x="468.5634" y="199.1602">IntervalShow</text></g><g id="elem_Open"><ellipse cx="236.9333" cy="160.4867" fill="#F1F1F1" rx="70.4333" ry="16.4867" style="stroke:#181818;stroke-width:0.5;"/><text fill="#000000" font-family="sans-serif" font-size="14" lengthAdjust="spacing" textLength="94" x="186.9333" y="164.2342">IntervalOpen</text></g><g id="elem_Close"><ellipse cx="236.9333" cy="228.4867" fill="#F1F1F1" rx="70.4333" ry="16.4867" style="stroke:#181818;stroke-width:0.5;"/><text fill="#000000" font-family="sans-serif" font-size="14" lengthAdjust="spacing" textLength="94" x="186.9333" y="232.2342">IntervalClose</text></g><g id="elem_Update"><ellipse cx="236.8844" cy="297.4769" fill="#F1F1F1" rx="75.3844" ry="17.4769" style="stroke:#181818;stroke-width:0.5;"/><text fill="#000000" font-family="sans-serif" font-size="14" lengthAdjust="spacing" textLength="107" x="180.3844" y="301.2244">IntervalUpdate</text></g><g id="elem_Delete"><ellipse cx="236.8536" cy="368.3707" fill="#F1F1F1" rx="77.3536" ry="17.8707" style="stroke:#181818;stroke-width:0.5;"/><text fill="#000000" font-family="sans-serif" font-size="14" lengthAdjust="spacing" textLength="112" x="178.1333" y="372.0454">IntervalDestroy</text></g><g id="elem_UpdateIntervalCategory"><ellipse cx="237.0751" cy="444.715" fill="#F1F1F1" rx="104.0751" ry="23.215" style="stroke:#181818;stroke-width:0.5;"/><text fill="#000000" font-family="sans-serif" font-size="14" lengthAdjust="spacing" textLength="173" x="150.5751" y="447.5617">UpdateIntervalCategory</text></g><!--link Frontend to List--><g id="link_Frontend_List"><path d="M44.7855,190.415 C51.4001,153.377 66.807,97.945 102,64.5 C122.544,44.976 146.1273,35.6248 172.1823,29.8058 " fill="none" id="Frontend-to-List" style="stroke:#181818;stroke-width:1.0;"/><polygon fill="#181818" points="178.038,28.498,168.3825,26.5559,173.1582,29.5878,170.1263,34.3635,178.038,28.498" style="stroke:#181818;stroke-width:1.0;"/></g><!--link Frontend to Show--><g id="link_Frontend_Show"><path d="M62.8542,190.437 C79.1606,167.217 103.4046,139.566 133,126.5 C258.167,71.239 419.5805,143.3553 484.3475,177.4153 " fill="none" id="Frontend-to-Show" style="stroke:#181818;stroke-width:1.0;"/><polygon fill="#181818" points="489.658,180.208,483.5541,172.4787,485.2326,177.8808,479.8305,179.5593,489.658,180.208" style="stroke:#181818;stroke-width:1.0;"/></g><!--link Frontend to Open--><g id="link_Frontend_Open"><path d="M72.2734,214.295 C81.7767,210.295 92.2431,206.066 102,202.5 C131.653,191.662 159.8465,182.7566 186.1505,174.9076 " fill="none" id="Frontend-to-Open" style="stroke:#181818;stroke-width:1.0;"/><polygon fill="#181818" points="191.9,173.192,182.132,171.9324,187.1088,174.6217,184.4195,179.5984,191.9,173.192" style="stroke:#181818;stroke-width:1.0;"/></g><!--link Frontend to Close--><g id="link_Frontend_Close"><path d="M72.3654,228.5 C97.8081,228.5 128.174,228.5 160.165,228.5 " fill="none" id="Frontend-to-Close" style="stroke:#181818;stroke-width:1.0;"/><polygon fill="#181818" points="166.165,228.5,157.165,224.5,161.165,228.5,157.165,232.5,166.165,228.5" style="stroke:#181818;stroke-width:1.0;"/></g><!--link Frontend to Update--><g id="link_Frontend_Update"><path d="M72.2145,240.483 C90.0865,247.08 112.734,255.353 133,262.5 C152.681,269.441 168.8772,274.991 187.3922,281.241 " fill="none" id="Frontend-to-Update" style="stroke:#181818;stroke-width:1.0;"/><polygon fill="#181818" points="193.077,283.16,185.8291,276.4916,188.3396,281.5608,183.2704,284.0714,193.077,283.16" style="stroke:#181818;stroke-width:1.0;"/></g><!--link Frontend to Delete--><g id="link_Frontend_Delete"><path d="M66.3787,266.574 C83.2395,288.469 106.813,315.015 133,332.5 C147.966,342.493 160.3099,348.1506 177.0849,353.6736 " fill="none" id="Frontend-to-Delete" style="stroke:#181818;stroke-width:1.0;"/><polygon fill="#181818" points="182.784,355.55,175.4863,348.9361,178.0348,353.9864,172.9845,356.5348,182.784,355.55" style="stroke:#181818;stroke-width:1.0;"/></g><!--link Frontend to UpdateIntervalCategory--><g id="link_Frontend_UpdateIntervalCategory"><path d="M51.3718,266.837 C64.8923,306.303 91.0606,367.152 133,404.5 C143.601,413.9406 151.1607,418.9126 164.3987,424.5563 " fill="none" id="Frontend-to-UpdateIntervalCategory" style="stroke:#181818;stroke-width:1.0;"/><polygon fill="#181818" points="169.918,426.9093,163.2077,419.7002,165.3185,424.9484,160.0703,427.0593,169.918,426.9093" style="stroke:#181818;stroke-width:1.0;"/></g><!--link Open to Show--><g id="link_Open_Show"><path d="M299.573,168.224 C345.95,174.042 403.2927,181.235 449.6307,187.049 " fill="none" id="Open-to-Show" style="stroke:#181818;stroke-width:1.0;stroke-dasharray:7.0,7.0;"/><polygon fill="#181818" points="455.584,187.796,447.152,182.7067,450.6229,187.1735,446.156,190.6444,455.584,187.796" style="stroke:#181818;stroke-width:1.0;"/><text fill="#000000" font-family="sans-serif" font-size="13" lengthAdjust="spacing" textLength="45" x="372" y="173.5669">include</text></g><!--link Close to Show--><g id="link_Close_Show"><path d="M306.334,231.796 C340.126,232.303 381.41,231.234 418,225.5 C438.936,222.219 455.921,217.5075 474.278,211.3125 " fill="none" id="Close-to-Show" style="stroke:#181818;stroke-width:1.0;stroke-dasharray:7.0,7.0;"/><polygon fill="#181818" points="479.963,209.394,470.1565,208.4818,475.2255,210.9928,472.7145,216.0618,479.963,209.394" style="stroke:#181818;stroke-width:1.0;"/><text fill="#000000" font-family="sans-serif" font-size="13" lengthAdjust="spacing" textLength="45" x="372" y="221.5669">include</text></g><!--link Update to Show--><g id="link_Update_Show"><path d="M299.425,287.611 C334.9,280.732 379.9,269.982 418,254.5 C446.175,243.051 470.84,227.783 490.255,214.517 " fill="none" id="Update-to-Show" style="stroke:#181818;stroke-width:1.0;stroke-dasharray:7.0,7.0;"/><polygon fill="#181818" points="495.209,211.132,485.5214,212.9068,491.0807,213.9528,490.0347,219.5121,495.209,211.132" style="stroke:#181818;stroke-width:1.0;"/><text fill="#000000" font-family="sans-serif" font-size="13" lengthAdjust="spacing" textLength="45" x="372" y="250.5669">include</text></g><!--SRC=[RO_12i8m44Jl-Ogbz_O3F7Yn28BWGVo0aAmr4B8bsIhzUvkaYZ6zJUPDkpCMxmnCuCtmOD36es93JWYfc3mSFJb6fyKKKCc0q9oMjtzAUpQ16v01egZnzK6lXAEeyML4bt0KDJvO2fXuKdNWDch9EP5b7UaniASvPNgq-9l9ttolBNeWFpT2VFP2s-xpiiA9Ow2qqe32oPKBQ-rOU6kdZTn_Bo7Y4UYwN607nYaxQHJfqeQVVrE3Dm00]--></g></svg>