<?xml version="1.0" encoding="us-ascii" standalone="no"?><svg xmlns="http://www.w3.org/2000/svg" xmlns:xlink="http://www.w3.org/1999/xlink" contentStyleType="text/css" height="323px" preserveAspectRatio="none" style="width:535px;height:323px;background:#FFFFFF;" version="1.1" viewBox="0 0 535 323" width="535px" zoomAndPan="magnify"><defs/><g><!--entity Frontend--><g id="elem_Frontend"><ellipse cx="39" cy="131" fill="#F1F1F1" rx="8" ry="8" style="stroke:#181818;stroke-width:0.5;"/><path d="M39,139 L39,166 M26,147 L52,147 M39,166 L26,181 M39,166 L52,181 " fill="none" style="stroke:#181818;stroke-width:0.5;"/><text fill="#000000" font-family="sans-serif" font-size="14" lengthAdjust="spacing" textLength="66" x="6" y="195.4951">Frontend</text></g><g id="elem_List"><ellipse cx="209.2353" cy="21.3471" fill="#F1F1F1" rx="64.7353" ry="15.3471" style="stroke:#181818;stroke-width:0.5;"/><text fill="#000000" font-family="sans-serif" font-size="14" lengthAdjust="spacing" textLength="78" x="167.2353" y="25.0946">ProjectList</text></g><g id="elem_Show"><ellipse cx="460.964" cy="160.6928" fill="#F1F1F1" rx="68.964" ry="16.1928" style="stroke:#181818;stroke-width:0.5;"/><text fill="#000000" font-family="sans-serif" font-size="14" lengthAdjust="spacing" textLength="90" x="412.964" y="164.4404">ProjectShow</text></g><g id="elem_Store"><ellipse cx="209.1952" cy="160.339" fill="#F1F1F1" rx="69.6952" ry="16.339" style="stroke:#181818;stroke-width:0.5;"/><text fill="#000000" font-family="sans-serif" font-size="14" lengthAdjust="spacing" textLength="92" x="160.1952" y="164.0866">ProjectStore</text></g><g id="elem_Update"><ellipse cx="209.2198" cy="229.744" fill="#F1F1F1" rx="74.2198" ry="17.244" style="stroke:#181818;stroke-width:0.5;"/><text fill="#000000" font-family="sans-serif" font-size="14" lengthAdjust="spacing" textLength="104" x="154.2198" y="233.4915">ProjectUpdate</text></g><g id="elem_Delete"><ellipse cx="209.1676" cy="299.6335" fill="#F1F1F1" rx="76.1676" ry="17.6335" style="stroke:#181818;stroke-width:0.5;"/><text fill="#000000" font-family="sans-serif" font-size="14" lengthAdjust="spacing" textLength="109" x="151.6676" y="303.3811">ProjectDestroy</text></g><!--link Frontend to List--><g id="link_Frontend_List"><path d="M57.5924,122.288 C68.153,102.829 83.2,80.06 102,64.5 C119.9,49.685 137.8832,41.3162 158.3202,34.5482 " fill="none" id="Frontend-to-List" style="stroke:#181818;stroke-width:1.0;"/><polygon fill="#181818" points="164.016,32.662,154.2148,31.6942,159.2695,34.2339,156.7298,39.2886,164.016,32.662" style="stroke:#181818;stroke-width:1.0;"/></g><!--link Frontend to Show--><g id="link_Frontend_Show"><path d="M72.2377,144.661 C89.735,137.116 112.023,129.163 133,126.5 C234.045,113.672 261.846,116.958 362,135.5 C380.129,138.856 394.0725,142.1268 411.0575,146.6318 " fill="none" id="Frontend-to-Show" style="stroke:#181818;stroke-width:1.0;"/><polygon fill="#181818" points="416.857,148.17,409.1833,141.9964,412.0241,146.8882,407.1323,149.729,416.857,148.17" style="stroke:#181818;stroke-width:1.0;"/></g><!--link Frontend to Store--><g id="link_Frontend_Store"><path d="M72.3921,160.5 C91.3666,160.5 110.077,160.5 133.198,160.5 " fill="none" id="Frontend-to-Store" style="stroke:#181818;stroke-width:1.0;"/><polygon fill="#181818" points="139.198,160.5,130.198,156.5,134.198,160.5,130.198,164.5,139.198,160.5" style="stroke:#181818;stroke-width:1.0;"/></g><!--link Frontend to Update--><g id="link_Frontend_Update"><path d="M72.3921,173.804 C100.9015,185.513 136.8099,200.2615 166.3709,212.4025 " fill="none" id="Frontend-to-Update" style="stroke:#181818;stroke-width:1.0;"/><polygon fill="#181818" points="171.921,214.682,165.1155,207.5627,167.2959,212.7824,162.0761,214.9628,171.921,214.682" style="stroke:#181818;stroke-width:1.0;"/></g><!--link Frontend to Delete--><g id="link_Frontend_Delete"><path d="M67.8338,198.634 C84.8617,220.012 108.112,246.012 133,264.5 C143.612,272.3829 150.8204,276.6383 162.6994,282.0354 " fill="none" id="Frontend-to-Delete" style="stroke:#181818;stroke-width:1.0;"/><polygon fill="#181818" points="168.162,284.5173,161.6227,277.1527,163.6098,282.4491,158.3135,284.4362,168.162,284.5173" style="stroke:#181818;stroke-width:1.0;"/></g><!--link Store to Show--><g id="link_Store_Show"><path d="M278.644,160.5 C313.915,160.5 350.756,160.5 385.942,160.5 " fill="none" id="Store-to-Show" style="stroke:#181818;stroke-width:1.0;stroke-dasharray:7.0,7.0;"/><polygon fill="#181818" points="391.942,160.5,382.942,156.5,386.942,160.5,382.942,164.5,391.942,160.5" style="stroke:#181818;stroke-width:1.0;"/><text fill="#000000" font-family="sans-serif" font-size="13" lengthAdjust="spacing" textLength="45" x="316" y="156.5669">include</text></g><!--link Update to Show--><g id="link_Update_Show"><path d="M257.023,216.522 C302.568,203.951 365.3243,186.6303 409.9213,174.3213 " fill="none" id="Update-to-Show" style="stroke:#181818;stroke-width:1.0;stroke-dasharray:7.0,7.0;"/><polygon fill="#181818" points="415.705,172.725,405.9652,171.2637,410.8852,174.0553,408.0936,178.9753,415.705,172.725" style="stroke:#181818;stroke-width:1.0;"/><text fill="#000000" font-family="sans-serif" font-size="13" lengthAdjust="spacing" textLength="45" x="316" y="184.5669">include</text></g><!--SRC=[POwn3i8m34JtV8NLlVq01gQAYG49yG5HOcXG52F75UBlIM8wb6odksVVHRmB2067noBW0wEJGCaOwuGOJan9C7cpPdGs8mmNfcTXpY7B03P35LrwNUZTqYhwj7n6ZQlgyjlBMr50PKVCc8Nfqv0P8nR4R5DX78-wQkVK9V1djVQTzUlRULj1ms6QzDS1Gd9nzMZqfW- -]--></g></svg>