<?xml version="1.0" encoding="us-ascii" standalone="no"?><svg xmlns="http://www.w3.org/2000/svg" xmlns:xlink="http://www.w3.org/1999/xlink" contentStyleType="text/css" height="1910px" preserveAspectRatio="none" style="width:625px;height:1910px;background:#FFFFFF;" version="1.1" viewBox="0 0 625 1910" width="625px" zoomAndPan="magnify"><defs/><g><!--cluster Auth--><g id="cluster_Auth"><path d="M170,6 L210,6 A3.75,3.75 0 0 1 212.5,8.5 L219.5,28.2969 L606,28.2969 A2.5,2.5 0 0 1 608.5,30.7969 L608.5,212.5 A2.5,2.5 0 0 1 606,215 L170,215 A2.5,2.5 0 0 1 167.5,212.5 L167.5,8.5 A2.5,2.5 0 0 1 170,6 " fill="none" style="stroke:#000000;stroke-width:1.5;"/><line style="stroke:#000000;stroke-width:1.5;" x1="167.5" x2="219.5" y1="28.2969" y2="28.2969"/><text fill="#000000" font-family="sans-serif" font-size="14" font-weight="bold" lengthAdjust="spacing" textLength="39" x="171.5" y="20.9951">Auth</text></g><!--cluster Customer--><g id="cluster_Customer"><path d="M142,270 L221,270 A3.75,3.75 0 0 1 223.5,272.5 L230.5,292.2969 L615.5,292.2969 A2.5,2.5 0 0 1 618,294.7969 L618,567.5 A2.5,2.5 0 0 1 615.5,570 L142,570 A2.5,2.5 0 0 1 139.5,567.5 L139.5,272.5 A2.5,2.5 0 0 1 142,270 " fill="none" style="stroke:#000000;stroke-width:1.5;"/><line style="stroke:#000000;stroke-width:1.5;" x1="139.5" x2="230.5" y1="292.2969" y2="292.2969"/><text fill="#000000" font-family="sans-serif" font-size="14" font-weight="bold" lengthAdjust="spacing" textLength="78" x="143.5" y="284.9951">Customer</text></g><!--cluster Project--><g id="cluster_Project"><path d="M149.5,594 L208.5,594 A3.75,3.75 0 0 1 211,596.5 L218,616.2969 L608.5,616.2969 A2.5,2.5 0 0 1 611,618.7969 L611,881.5 A2.5,2.5 0 0 1 608.5,884 L149.5,884 A2.5,2.5 0 0 1 147,881.5 L147,596.5 A2.5,2.5 0 0 1 149.5,594 " fill="none" style="stroke:#000000;stroke-width:1.5;"/><line style="stroke:#000000;stroke-width:1.5;" x1="147" x2="218" y1="616.2969" y2="616.2969"/><text fill="#000000" font-family="sans-serif" font-size="14" font-weight="bold" lengthAdjust="spacing" textLength="58" x="151" y="608.9951">Project</text></g><!--cluster Category--><g id="cluster_Category"><path d="M143.5,955 L217.5,955 A3.75,3.75 0 0 1 220,957.5 L227,977.2969 L613.5,977.2969 A2.5,2.5 0 0 1 616,979.7969 L616,1252.5 A2.5,2.5 0 0 1 613.5,1255 L143.5,1255 A2.5,2.5 0 0 1 141,1252.5 L141,957.5 A2.5,2.5 0 0 1 143.5,955 " fill="none" style="stroke:#000000;stroke-width:1.5;"/><line style="stroke:#000000;stroke-width:1.5;" x1="141" x2="227" y1="977.2969" y2="977.2969"/><text fill="#000000" font-family="sans-serif" font-size="14" font-weight="bold" lengthAdjust="spacing" textLength="73" x="145" y="969.9951">Category</text></g><!--cluster Interval--><g id="cluster_Interval"><path d="M121.5,1381 L185.5,1381 A3.75,3.75 0 0 1 188,1383.5 L195,1403.2969 L609.5,1403.2969 A2.5,2.5 0 0 1 612,1405.7969 L612,1900.5 A2.5,2.5 0 0 1 609.5,1903 L121.5,1903 A2.5,2.5 0 0 1 119,1900.5 L119,1383.5 A2.5,2.5 0 0 1 121.5,1381 " fill="none" style="stroke:#000000;stroke-width:1.5;"/><line style="stroke:#000000;stroke-width:1.5;" x1="119" x2="195" y1="1403.2969" y2="1403.2969"/><text fill="#000000" font-family="sans-serif" font-size="14" font-weight="bold" lengthAdjust="spacing" textLength="63" x="123" y="1395.9951">Interval</text></g><g id="elem_Login"><ellipse cx="239.1869" cy="184.0634" fill="#F1F1F1" rx="39.1869" ry="14.5634" style="stroke:#181818;stroke-width:0.5;"/><text fill="#000000" font-family="sans-serif" font-size="14" lengthAdjust="spacing" textLength="39" x="217.5666" y="187.5876">Login</text></g><g id="elem_Register"><ellipse cx="239.0868" cy="56.2397" fill="#F1F1F1" rx="55.5868" ry="14.7397" style="stroke:#181818;stroke-width:0.5;"/><text fill="#000000" font-family="sans-serif" font-size="14" lengthAdjust="spacing" textLength="61" x="205.5868" y="59.9873">Register</text></g><g id="elem_Logout"><ellipse cx="238.8761" cy="120.1644" fill="#F1F1F1" rx="47.3761" ry="14.6644" style="stroke:#181818;stroke-width:0.5;"/><text fill="#000000" font-family="sans-serif" font-size="14" lengthAdjust="spacing" textLength="50" x="210.8761" y="123.9119">Logout</text></g><g id="elem_Token"><ellipse cx="525.9626" cy="106.1925" fill="#F1F1F1" rx="66.4626" ry="15.6925" style="stroke:#181818;stroke-width:0.5;"/><text fill="#000000" font-family="sans-serif" font-size="14" lengthAdjust="spacing" textLength="83" x="481.4626" y="109.9401">Send token</text></g><g id="elem_CustomerList"><ellipse cx="239.1781" cy="395.1356" fill="#F1F1F1" rx="71.1781" ry="16.6356" style="stroke:#181818;stroke-width:0.5;"/><text fill="#000000" font-family="sans-serif" font-size="14" lengthAdjust="spacing" textLength="96" x="188.1781" y="398.8832">CustomerList</text></g><g id="elem_CustomerShow"><ellipse cx="525.7754" cy="462.0551" fill="#F1F1F1" rx="75.7754" ry="17.5551" style="stroke:#181818;stroke-width:0.5;"/><text fill="#000000" font-family="sans-serif" font-size="14" lengthAdjust="spacing" textLength="108" x="468.7754" y="465.8026">CustomerShow</text></g><g id="elem_CustomerStore"><ellipse cx="239.0612" cy="464.2122" fill="#F1F1F1" rx="76.5612" ry="17.7122" style="stroke:#181818;stroke-width:0.5;"/><text fill="#000000" font-family="sans-serif" font-size="14" lengthAdjust="spacing" textLength="110" x="181.0612" y="467.9598">CustomerStore</text></g><g id="elem_CustomerUpdate"><ellipse cx="238.9455" cy="535.1891" fill="#F1F1F1" rx="81.4455" ry="18.6891" style="stroke:#181818;stroke-width:0.5;"/><text fill="#000000" font-family="sans-serif" font-size="14" lengthAdjust="spacing" textLength="122" x="176.8109" y="538.409">CustomerUpdate</text></g><g id="elem_CustomerDestroy"><ellipse cx="239.0656" cy="324.1131" fill="#F1F1F1" rx="83.5656" ry="19.1131" style="stroke:#181818;stroke-width:0.5;"/><text fill="#000000" font-family="sans-serif" font-size="14" lengthAdjust="spacing" textLength="127" x="175.1623" y="327.0974">CustomerDestroy</text></g><g id="elem_ProjectList"><ellipse cx="239.2353" cy="714.8471" fill="#F1F1F1" rx="64.7353" ry="15.3471" style="stroke:#181818;stroke-width:0.5;"/><text fill="#000000" font-family="sans-serif" font-size="14" lengthAdjust="spacing" textLength="78" x="197.2353" y="718.5946">ProjectList</text></g><g id="elem_ProjectShow"><ellipse cx="525.964" cy="833.1928" fill="#F1F1F1" rx="68.964" ry="16.1928" style="stroke:#181818;stroke-width:0.5;"/><text fill="#000000" font-family="sans-serif" font-size="14" lengthAdjust="spacing" textLength="90" x="477.964" y="836.9404">ProjectShow</text></g><g id="elem_ProjectStore"><ellipse cx="239.1952" cy="781.839" fill="#F1F1F1" rx="69.6952" ry="16.339" style="stroke:#181818;stroke-width:0.5;"/><text fill="#000000" font-family="sans-serif" font-size="14" lengthAdjust="spacing" textLength="92" x="190.1952" y="785.5866">ProjectStore</text></g><g id="elem_ProjectUpdate"><ellipse cx="239.2198" cy="851.244" fill="#F1F1F1" rx="74.2198" ry="17.244" style="stroke:#181818;stroke-width:0.5;"/><text fill="#000000" font-family="sans-serif" font-size="14" lengthAdjust="spacing" textLength="104" x="184.2198" y="854.9915">ProjectUpdate</text></g><g id="elem_ProjectDestroy"><ellipse cx="239.1676" cy="647.1335" fill="#F1F1F1" rx="76.1676" ry="17.6335" style="stroke:#181818;stroke-width:0.5;"/><text fill="#000000" font-family="sans-serif" font-size="14" lengthAdjust="spacing" textLength="109" x="181.6676" y="650.8811">ProjectDestroy</text></g><g id="elem_CategoryList"><ellipse cx="239.1952" cy="1079.839" fill="#F1F1F1" rx="69.6952" ry="16.339" style="stroke:#181818;stroke-width:0.5;"/><text fill="#000000" font-family="sans-serif" font-size="14" lengthAdjust="spacing" textLength="92" x="190.1952" y="1083.5866">CategoryList</text></g><g id="elem_CategoryShow"><ellipse cx="526.2198" cy="1204.244" fill="#F1F1F1" rx="74.2198" ry="17.244" style="stroke:#181818;stroke-width:0.5;"/><text fill="#000000" font-family="sans-serif" font-size="14" lengthAdjust="spacing" textLength="104" x="471.2198" y="1207.9915">CategoryShow</text></g><g id="elem_CategoryStore"><ellipse cx="238.9948" cy="1148.899" fill="#F1F1F1" rx="74.9948" ry="17.399" style="stroke:#181818;stroke-width:0.5;"/><text fill="#000000" font-family="sans-serif" font-size="14" lengthAdjust="spacing" textLength="106" x="182.9948" y="1152.6465">CategoryStore</text></g><g id="elem_CategoryUpdate"><ellipse cx="238.7839" cy="1219.8568" fill="#F1F1F1" rx="79.7839" ry="18.3568" style="stroke:#181818;stroke-width:0.5;"/><text fill="#000000" font-family="sans-serif" font-size="14" lengthAdjust="spacing" textLength="118" x="178.0356" y="1223.2613">CategoryUpdate</text></g><g id="elem_CategoryDestroy"><ellipse cx="238.8658" cy="1008.7732" fill="#F1F1F1" rx="81.8658" ry="18.7732" style="stroke:#181818;stroke-width:0.5;"/><text fill="#000000" font-family="sans-serif" font-size="14" lengthAdjust="spacing" textLength="123" x="176.3805" y="1011.9463">CategoryDestroy</text></g><g id="elem_IntervalList"><ellipse cx="238.7655" cy="1594.0531" fill="#F1F1F1" rx="65.7655" ry="15.5531" style="stroke:#181818;stroke-width:0.5;"/><text fill="#000000" font-family="sans-serif" font-size="14" lengthAdjust="spacing" textLength="81" x="195.2655" y="1597.8007">IntervalList</text></g><g id="elem_IntervalShow"><ellipse cx="526.0634" cy="1695.9127" fill="#F1F1F1" rx="70.0634" ry="16.4127" style="stroke:#181818;stroke-width:0.5;"/><text fill="#000000" font-family="sans-serif" font-size="14" lengthAdjust="spacing" textLength="93" x="476.5634" y="1699.6602">IntervalShow</text></g><g id="elem_IntervalOpen"><ellipse cx="238.9333" cy="1660.9867" fill="#F1F1F1" rx="70.4333" ry="16.4867" style="stroke:#181818;stroke-width:0.5;"/><text fill="#000000" font-family="sans-serif" font-size="14" lengthAdjust="spacing" textLength="94" x="188.9333" y="1664.7342">IntervalOpen</text></g><g id="elem_IntervalClose"><ellipse cx="238.9333" cy="1728.9867" fill="#F1F1F1" rx="70.4333" ry="16.4867" style="stroke:#181818;stroke-width:0.5;"/><text fill="#000000" font-family="sans-serif" font-size="14" lengthAdjust="spacing" textLength="94" x="188.9333" y="1732.7342">IntervalClose</text></g><g id="elem_IntervalUpdate"><ellipse cx="238.8844" cy="1797.9769" fill="#F1F1F1" rx="75.3844" ry="17.4769" style="stroke:#181818;stroke-width:0.5;"/><text fill="#000000" font-family="sans-serif" font-size="14" lengthAdjust="spacing" textLength="107" x="182.3844" y="1801.7244">IntervalUpdate</text></g><g id="elem_IntervalDestroy"><ellipse cx="238.8536" cy="1868.8707" fill="#F1F1F1" rx="77.3536" ry="17.8707" style="stroke:#181818;stroke-width:0.5;"/><text fill="#000000" font-family="sans-serif" font-size="14" lengthAdjust="spacing" textLength="112" x="180.1333" y="1872.5454">IntervalDestroy</text></g><g id="elem_IntervalAttachCategory"><ellipse cx="239.2042" cy="1438.9408" fill="#F1F1F1" rx="102.7042" ry="22.9408" style="stroke:#181818;stroke-width:0.5;"/><text fill="#000000" font-family="sans-serif" font-size="14" lengthAdjust="spacing" textLength="170" x="154.2042" y="1441.7875">IntervalAttachCategory</text></g><g id="elem_IntervalDetachCategory"><ellipse cx="239.0751" cy="1520.215" fill="#F1F1F1" rx="104.0751" ry="23.215" style="stroke:#181818;stroke-width:0.5;"/><text fill="#000000" font-family="sans-serif" font-size="14" lengthAdjust="spacing" textLength="173" x="152.5751" y="1523.0617">IntervalDetachCategory</text></g><!--entity Frontend--><g id="elem_Frontend"><ellipse cx="39" cy="924.5" fill="#F1F1F1" rx="8" ry="8" style="stroke:#181818;stroke-width:0.5;"/><path d="M39,932.5 L39,959.5 M26,940.5 L52,940.5 M39,959.5 L26,974.5 M39,959.5 L52,974.5 " fill="none" style="stroke:#181818;stroke-width:0.5;"/><text fill="#000000" font-family="sans-serif" font-size="14" lengthAdjust="spacing" textLength="66" x="6" y="988.9951">Frontend</text></g><!--link Frontend to Login--><g id="link_Frontend_Login"><path d="M40.792,915.68 C44.0662,773.28 58.4831,280.02 102,226 C125.408,196.94 162.5418,188.0843 193.9688,185.2743 " fill="none" id="Frontend-to-Login" style="stroke:#181818;stroke-width:1.0;"/><polygon fill="#181818" points="199.945,184.74,190.6245,181.5574,194.9649,185.1853,191.337,189.5256,199.945,184.74" style="stroke:#181818;stroke-width:1.0;"/></g><!--link Frontend to Register--><g id="link_Frontend_Register"><path d="M41.6162,915.73 C46.8231,799.02 65.0147,437.47 102,140 C104.8939,116.72 95.0523,105.2 111,88 C129.32,68.24 151.9402,60.679 177.3472,57.439 " fill="none" id="Frontend-to-Register" style="stroke:#181818;stroke-width:1.0;"/><polygon fill="#181818" points="183.299,56.68,173.8653,53.8506,178.3392,57.3125,174.8773,61.7864,183.299,56.68" style="stroke:#181818;stroke-width:1.0;"/></g><!--link Frontend to Logout--><g id="link_Frontend_Logout"><path d="M40.6619,915.77 C43.6536,763.82 58.1551,208.2 111,152 C131.405,130.3 158.2075,122.9824 185.3525,120.4724 " fill="none" id="Frontend-to-Logout" style="stroke:#181818;stroke-width:1.0;"/><polygon fill="#181818" points="191.327,119.92,181.9969,116.7657,186.3482,120.3804,182.7335,124.7317,191.327,119.92" style="stroke:#181818;stroke-width:1.0;"/></g><!--link Register to Token--><g id="link_Register_Token"><path d="M285.474,63.98 C336.392,72.91 412.8762,86.3333 466.5182,95.7433 " fill="none" id="Register-to-Token" style="stroke:#181818;stroke-width:1.0;stroke-dasharray:7.0,7.0;"/><polygon fill="#181818" points="472.428,96.78,464.2545,91.2851,467.5032,95.9161,462.8722,99.1648,472.428,96.78" style="stroke:#181818;stroke-width:1.0;"/><text fill="#000000" font-family="sans-serif" font-size="13" lengthAdjust="spacing" textLength="45" x="374" y="76.0669">include</text></g><!--link Login to Token--><g id="link_Login_Token"><path d="M270.771,175.58 C321.724,161.63 417.9639,135.2943 476.0809,119.3843 " fill="none" id="Login-to-Token" style="stroke:#181818;stroke-width:1.0;stroke-dasharray:7.0,7.0;"/><polygon fill="#181818" points="481.868,117.8,472.1312,116.3183,477.0454,119.1202,474.2436,124.0344,481.868,117.8" style="stroke:#181818;stroke-width:1.0;"/><text fill="#000000" font-family="sans-serif" font-size="13" lengthAdjust="spacing" textLength="45" x="374" y="131.0669">include</text></g><!--link Frontend to CustomerList--><g id="link_Frontend_CustomerList"><path d="M39.7861,915.8 C39.9831,807.31 46.3669,500.6 111,429 C125.988,412.4 142.2453,404.7775 163.8453,400.1475 " fill="none" id="Frontend-to-CustomerList" style="stroke:#181818;stroke-width:1.0;"/><polygon fill="#181818" points="169.712,398.89,160.0735,396.8652,164.8231,399.938,161.7503,404.6875,169.712,398.89" style="stroke:#181818;stroke-width:1.0;"/></g><!--link Frontend to CustomerShow--><g id="link_Frontend_CustomerShow"><path d="M41.1052,915.68 C45.4097,780.15 63.2429,329.33 111,288 C188.972,220.53 247.3,249.61 343,288 C423.535,320.3 485.2505,402.1533 510.4165,439.5233 " fill="none" id="Frontend-to-CustomerShow" style="stroke:#181818;stroke-width:1.0;"/><polygon fill="#181818" points="513.768,444.5,512.0586,434.8006,510.9751,440.3527,505.423,439.2692,513.768,444.5" style="stroke:#181818;stroke-width:1.0;"/></g><!--link Frontend to CustomerStore--><g id="link_Frontend_CustomerStore"><path d="M40.7945,915.74 C43.6146,817.63 56.187,560.45 111,499 C125.082,483.21 139.7394,475.684 160.1634,470.694 " fill="none" id="Frontend-to-CustomerStore" style="stroke:#181818;stroke-width:1.0;"/><polygon fill="#181818" points="165.992,469.27,156.2998,467.5203,161.1349,470.4567,158.1985,475.2918,165.992,469.27" style="stroke:#181818;stroke-width:1.0;"/></g><!--link Frontend to CustomerUpdate--><g id="link_Frontend_CustomerUpdate"><path d="M44.1175,915.78 C53.1675,837.39 76.7485,661.73 111,613 C131.608,583.68 161.6095,565.7022 189.8395,553.1222 " fill="none" id="Frontend-to-CustomerUpdate" style="stroke:#181818;stroke-width:1.0;"/><polygon fill="#181818" points="195.32,550.68,185.4711,550.6897,190.7529,552.7152,188.7275,557.997,195.32,550.68" style="stroke:#181818;stroke-width:1.0;"/></g><!--link Frontend to CustomerDestroy--><g id="link_Frontend_CustomerDestroy"><path d="M42.0767,915.57 C49.1621,790.78 74.0138,402.52 111,361 C124.29,346.08 137.4431,338.6688 156.6381,333.2188 " fill="none" id="Frontend-to-CustomerDestroy" style="stroke:#181818;stroke-width:1.0;"/><polygon fill="#181818" points="162.41,331.58,152.6597,330.1903,157.6001,332.9457,154.8447,337.8861,162.41,331.58" style="stroke:#181818;stroke-width:1.0;"/></g><!--link CustomerStore to CustomerShow--><g id="link_CustomerStore_CustomerShow"><path d="M315.627,463.47 C357.183,463.18 402.5531,462.862 444.0091,462.572 " fill="none" id="CustomerStore-to-CustomerShow" style="stroke:#181818;stroke-width:1.0;stroke-dasharray:7.0,7.0;"/><polygon fill="#181818" points="450.009,462.53,440.9812,458.5931,445.0091,462.565,441.0372,466.5929,450.009,462.53" style="stroke:#181818;stroke-width:1.0;"/><text fill="#000000" font-family="sans-serif" font-size="13" lengthAdjust="spacing" textLength="45" x="374" y="458.0669">include</text></g><!--link CustomerUpdate to CustomerShow--><g id="link_CustomerUpdate_CustomerShow"><path d="M293.941,521.18 C345.904,507.87 418.0848,489.3895 468.8138,476.3895 " fill="none" id="CustomerUpdate-to-CustomerShow" style="stroke:#181818;stroke-width:1.0;stroke-dasharray:7.0,7.0;"/><polygon fill="#181818" points="474.626,474.9,464.9147,473.2594,469.7825,476.1412,466.9007,481.009,474.626,474.9" style="stroke:#181818;stroke-width:1.0;"/><text fill="#000000" font-family="sans-serif" font-size="13" lengthAdjust="spacing" textLength="45" x="374" y="485.0669">include</text></g><!--link Frontend to ProjectList--><g id="link_Frontend_ProjectList"><path d="M42.5348,915.89 C47.6982,869.54 63.3789,792.06 111,748 C128.642,731.68 147.4159,724.3118 170.3249,719.9918 " fill="none" id="Frontend-to-ProjectList" style="stroke:#181818;stroke-width:1.0;"/><polygon fill="#181818" points="176.221,718.88,166.6356,716.617,171.3076,719.8065,168.1181,724.4785,176.221,718.88" style="stroke:#181818;stroke-width:1.0;"/></g><!--link Frontend to ProjectShow--><g id="link_Frontend_ProjectShow"><path d="M72.0026,947.506 C127.446,936.102 244.847,911.28 343,886 C391.761,873.44 441.5074,858.7118 478.2624,847.4918 " fill="none" id="Frontend-to-ProjectShow" style="stroke:#181818;stroke-width:1.0;"/><polygon fill="#181818" points="484.001,845.74,474.2253,844.542,479.2189,847.1998,476.561,852.1934,484.001,845.74" style="stroke:#181818;stroke-width:1.0;"/></g><!--link Frontend to ProjectStore--><g id="link_Frontend_ProjectStore"><path d="M50.377,915.99 C60.7652,884.98 79.7742,842.29 111,817 C129.217,802.25 147.348,794.9922 169.567,790.0522 " fill="none" id="Frontend-to-ProjectStore" style="stroke:#181818;stroke-width:1.0;"/><polygon fill="#181818" points="175.424,788.75,165.7704,786.7986,170.5432,789.8352,167.5067,794.608,175.424,788.75" style="stroke:#181818;stroke-width:1.0;"/></g><!--link Frontend to ProjectUpdate--><g id="link_Frontend_ProjectUpdate"><path d="M72.1539,918.22 C81.1583,909.73 91.4016,901.31 102,895 C127.165,880.03 152.2324,871.0701 178.1914,864.0801 " fill="none" id="Frontend-to-ProjectUpdate" style="stroke:#181818;stroke-width:1.0;"/><polygon fill="#181818" points="183.985,862.52,174.2545,860.9977,179.157,863.82,176.3346,868.7225,183.985,862.52" style="stroke:#181818;stroke-width:1.0;"/></g><!--link Frontend to ProjectDestroy--><g id="link_Frontend_ProjectDestroy"><path d="M45.1926,915.93 C55.0395,849.2 78.3961,715.05 111,682 C126.018,666.78 141.1764,659.4155 161.7714,654.4155 " fill="none" id="Frontend-to-ProjectDestroy" style="stroke:#181818;stroke-width:1.0;"/><polygon fill="#181818" points="167.602,653,157.9124,651.2362,162.7431,654.1796,159.7998,659.0104,167.602,653" style="stroke:#181818;stroke-width:1.0;"/></g><!--link ProjectStore to ProjectShow--><g id="link_ProjectStore_ProjectShow"><path d="M294.951,791.83 C345.58,800.89 414.3748,813.2034 464.7958,822.2234 " fill="none" id="ProjectStore-to-ProjectShow" style="stroke:#181818;stroke-width:1.0;stroke-dasharray:7.0,7.0;"/><polygon fill="#181818" points="470.702,823.28,462.547,817.7576,465.7801,822.3995,461.1383,825.6326,470.702,823.28" style="stroke:#181818;stroke-width:1.0;"/><text fill="#000000" font-family="sans-serif" font-size="13" lengthAdjust="spacing" textLength="45" x="374" y="801.0669">include</text></g><!--link ProjectUpdate to ProjectShow--><g id="link_ProjectUpdate_ProjectShow"><path d="M310.449,846.55 C355.945,843.68 408.7479,840.3378 453.2809,837.5278 " fill="none" id="ProjectUpdate-to-ProjectShow" style="stroke:#181818;stroke-width:1.0;stroke-dasharray:7.0,7.0;"/><polygon fill="#181818" points="459.269,837.15,450.035,833.7247,454.2789,837.4649,450.5388,841.7088,459.269,837.15" style="stroke:#181818;stroke-width:1.0;"/><text fill="#000000" font-family="sans-serif" font-size="13" lengthAdjust="spacing" textLength="45" x="374" y="835.0669">include</text></g><!--link Frontend to CategoryList--><g id="link_Frontend_CategoryList"><path d="M61.1553,992.017 C73.4284,1010.822 90.5137,1032.356 111,1046 C130.757,1059.159 149.5646,1065.9368 171.8876,1070.8918 " fill="none" id="Frontend-to-CategoryList" style="stroke:#181818;stroke-width:1.0;"/><polygon fill="#181818" points="177.745,1072.192,169.8256,1066.3368,172.8638,1071.1085,168.0921,1074.1467,177.745,1072.192" style="stroke:#181818;stroke-width:1.0;"/></g><!--link Frontend to CategoryShow--><g id="link_Frontend_CategoryShow"><path d="M43.2154,992.282 C50.2889,1066.045 69.9425,1223.476 111,1256 C227.972,1348.661 419.4757,1261.3546 491.8867,1222.6106 " fill="none" id="Frontend-to-CategoryShow" style="stroke:#181818;stroke-width:1.0;"/><polygon fill="#181818" points="497.177,1219.78,487.3544,1220.4991,492.7684,1222.1389,491.1286,1227.5528,497.177,1219.78" style="stroke:#181818;stroke-width:1.0;"/></g><!--link Frontend to CategoryStore--><g id="link_Frontend_CategoryStore"><path d="M47.1699,992.268 C55.9833,1028.722 74.5037,1082.565 111,1114 C127.549,1128.254 143.592,1135.3382 164.517,1140.3812 " fill="none" id="Frontend-to-CategoryStore" style="stroke:#181818;stroke-width:1.0;"/><polygon fill="#181818" points="170.35,1141.787,162.5377,1135.7897,165.4892,1140.6155,160.6633,1143.567,170.35,1141.787" style="stroke:#181818;stroke-width:1.0;"/></g><!--link Frontend to CategoryUpdate--><g id="link_Frontend_CategoryUpdate"><path d="M41.0549,992.286 C44.5617,1043.163 58.3925,1132.599 111,1184 C125.753,1198.414 140.0294,1205.6052 159.8634,1210.8642 " fill="none" id="Frontend-to-CategoryUpdate" style="stroke:#181818;stroke-width:1.0;"/><polygon fill="#181818" points="165.663,1212.402,157.9888,1206.229,160.83,1211.1205,155.9384,1213.9617,165.663,1212.402" style="stroke:#181818;stroke-width:1.0;"/></g><!--link Frontend to CategoryDestroy--><g id="link_Frontend_CategoryDestroy"><path d="M72.2528,962.959 C102.9356,971.482 143.8479,982.8472 179.8649,992.8512 " fill="none" id="Frontend-to-CategoryDestroy" style="stroke:#181818;stroke-width:1.0;"/><polygon fill="#181818" points="185.646,994.457,178.0448,988.1943,180.8284,993.1189,175.9038,995.9025,185.646,994.457" style="stroke:#181818;stroke-width:1.0;"/></g><!--link CategoryStore to CategoryShow--><g id="link_CategoryStore_CategoryShow"><path d="M297.331,1160.064 C347.233,1169.694 413.2547,1182.4351 462.8407,1192.0041 " fill="none" id="CategoryStore-to-CategoryShow" style="stroke:#181818;stroke-width:1.0;stroke-dasharray:7.0,7.0;"/><polygon fill="#181818" points="468.732,1193.141,460.653,1187.5081,463.8226,1192.1936,459.1371,1195.3632,468.732,1193.141" style="stroke:#181818;stroke-width:1.0;"/><text fill="#000000" font-family="sans-serif" font-size="13" lengthAdjust="spacing" textLength="45" x="374" y="1170.0669">include</text></g><!--link CategoryUpdate to CategoryShow--><g id="link_CategoryUpdate_CategoryShow"><path d="M317.125,1215.67 C359.657,1213.282 406.1174,1210.6743 447.6924,1208.3403 " fill="none" id="CategoryUpdate-to-CategoryShow" style="stroke:#181818;stroke-width:1.0;stroke-dasharray:7.0,7.0;"/><polygon fill="#181818" points="453.683,1208.004,444.4729,1204.5147,448.6909,1208.2843,444.9214,1212.5022,453.683,1208.004" style="stroke:#181818;stroke-width:1.0;"/><text fill="#000000" font-family="sans-serif" font-size="13" lengthAdjust="spacing" textLength="45" x="374" y="1206.0669">include</text></g><!--link Frontend to IntervalList--><g id="link_Frontend_IntervalList"><path d="M43.8759,992.121 C57.3101,1123.524 101.5712,1550.174 111,1561 C126.56,1578.866 144.5333,1586.5914 167.4023,1590.7384 " fill="none" id="Frontend-to-IntervalList" style="stroke:#181818;stroke-width:1.0;"/><polygon fill="#181818" points="173.306,1591.809,165.1641,1586.2673,168.3862,1590.9169,163.7367,1594.139,173.306,1591.809" style="stroke:#181818;stroke-width:1.0;"/></g><!--link Frontend to IntervalShow--><g id="link_Frontend_IntervalShow"><path d="M43.2285,992.168 C50.7454,1072.734 71.825,1256.645 111,1304 C182.022,1389.852 258.129,1326.809 343,1399 C440.195,1481.673 498.7289,1624.2001 517.0359,1673.7311 " fill="none" id="Frontend-to-IntervalShow" style="stroke:#181818;stroke-width:1.0;"/><polygon fill="#181818" points="519.116,1679.359,519.7478,1669.5304,517.3826,1674.6691,512.2439,1672.3039,519.116,1679.359" style="stroke:#181818;stroke-width:1.0;"/></g><!--link Frontend to IntervalOpen--><g id="link_Frontend_IntervalOpen"><path d="M43.4531,992.307 C56.2234,1133.154 100.5762,1614.803 111,1627 C125.681,1644.178 142.126,1651.932 163.98,1656.482 " fill="none" id="Frontend-to-IntervalOpen" style="stroke:#181818;stroke-width:1.0;"/><polygon fill="#181818" points="169.854,1657.705,161.8583,1651.9545,164.959,1656.6859,160.2276,1659.7866,169.854,1657.705" style="stroke:#181818;stroke-width:1.0;"/></g><!--link Frontend to IntervalClose--><g id="link_Frontend_IntervalClose"><path d="M41.1402,992.084 C45.7827,1135.953 65.2373,1640.929 111,1695 C125.598,1712.248 142.0245,1720.0203 163.8865,1724.5633 " fill="none" id="Frontend-to-IntervalClose" style="stroke:#181818;stroke-width:1.0;"/><polygon fill="#181818" points="169.761,1725.784,161.7631,1720.0366,164.8656,1724.7667,160.1354,1727.8692,169.761,1725.784" style="stroke:#181818;stroke-width:1.0;"/></g><!--link Frontend to IntervalUpdate--><g id="link_Frontend_IntervalUpdate"><path d="M40.7774,992.176 C44.2229,1144.567 60.2597,1703.953 111,1763 C124.937,1779.219 139.7996,1786.8631 160.4596,1791.8051 " fill="none" id="Frontend-to-IntervalUpdate" style="stroke:#181818;stroke-width:1.0;"/><polygon fill="#181818" points="166.295,1793.201,158.4725,1787.217,161.4322,1792.0378,156.6114,1794.9975,166.295,1793.201" style="stroke:#181818;stroke-width:1.0;"/></g><!--link Frontend to IntervalDestroy--><g id="link_Frontend_IntervalDestroy"><path d="M40.4991,992.155 C42.9416,1152.711 55.8605,1768.161 111,1833 C124.659,1849.0615 139.0859,1856.7541 159.4179,1861.9073 " fill="none" id="Frontend-to-IntervalDestroy" style="stroke:#181818;stroke-width:1.0;"/><polygon fill="#181818" points="165.234,1863.3814,157.4926,1857.2928,160.3873,1862.153,155.5271,1865.0476,165.234,1863.3814" style="stroke:#181818;stroke-width:1.0;"/></g><!--link Frontend to IntervalAttachCategory--><g id="link_Frontend_IntervalAttachCategory"><path d="M41.2311,992.177 C44.8931,1085.212 58.3415,1320.654 102,1384 C115.514,1403.608 131.663,1414.1682 153.874,1422.2912 " fill="none" id="Frontend-to-IntervalAttachCategory" style="stroke:#181818;stroke-width:1.0;"/><polygon fill="#181818" points="159.509,1424.352,152.4304,1417.5041,154.8132,1422.6346,149.6826,1425.0174,159.509,1424.352" style="stroke:#181818;stroke-width:1.0;"/></g><!--link Frontend to IntervalDetachCategory--><g id="link_Frontend_IntervalDetachCategory"><path d="M40.0193,992.064 C40.8438,1100.181 48.7488,1406.081 111,1480 C121.647,1492.642 130.6534,1499.1878 146.1774,1505.1628 " fill="none" id="Frontend-to-IntervalDetachCategory" style="stroke:#181818;stroke-width:1.0;"/><polygon fill="#181818" points="151.777,1507.318,144.8145,1500.3522,147.1107,1505.522,141.9409,1507.8182,151.777,1507.318" style="stroke:#181818;stroke-width:1.0;"/></g><!--link IntervalOpen to IntervalShow--><g id="link_IntervalOpen_IntervalShow"><path d="M301.841,1668.594 C349.645,1674.465 409.5507,1681.8217 457.3247,1687.6887 " fill="none" id="IntervalOpen-to-IntervalShow" style="stroke:#181818;stroke-width:1.0;stroke-dasharray:7.0,7.0;"/><polygon fill="#181818" points="463.28,1688.42,454.8347,1683.3528,458.3173,1687.8105,453.8595,1691.2931,463.28,1688.42" style="stroke:#181818;stroke-width:1.0;"/><text fill="#000000" font-family="sans-serif" font-size="13" lengthAdjust="spacing" textLength="45" x="374" y="1673.0669">include</text></g><!--link IntervalClose to IntervalShow--><g id="link_IntervalClose_IntervalShow"><path d="M308.296,1732.044 C342.079,1732.489 383.366,1731.442 420,1726 C442.316,1722.685 460.8563,1717.791 480.4283,1711.553 " fill="none" id="IntervalClose-to-IntervalShow" style="stroke:#181818;stroke-width:1.0;stroke-dasharray:7.0,7.0;"/><polygon fill="#181818" points="486.145,1709.731,476.3553,1708.6529,481.3811,1711.2493,478.7847,1716.2751,486.145,1709.731" style="stroke:#181818;stroke-width:1.0;"/><text fill="#000000" font-family="sans-serif" font-size="13" lengthAdjust="spacing" textLength="45" x="374" y="1722.0669">include</text></g><!--link IntervalUpdate to IntervalShow--><g id="link_IntervalUpdate_IntervalShow"><path d="M300.864,1787.828 C336.354,1780.829 381.556,1770.053 420,1755 C449.595,1743.412 476.0077,1728.0167 496.6907,1714.7947 " fill="none" id="IntervalUpdate-to-IntervalShow" style="stroke:#181818;stroke-width:1.0;stroke-dasharray:7.0,7.0;"/><polygon fill="#181818" points="501.746,1711.563,492.0086,1713.0403,497.5332,1714.2561,496.3175,1719.7808,501.746,1711.563" style="stroke:#181818;stroke-width:1.0;"/><text fill="#000000" font-family="sans-serif" font-size="13" lengthAdjust="spacing" textLength="45" x="374" y="1751.0669">include</text></g><!--SRC=[ZPJ1QiCm38RlUGgJU_i0EmnAns1Gs5Yt1p29bsJDuc8h6sNqtUVOSIixKXdauFYJfL-IvLvzW00jJDUq8EhEg0ewFHIo0ct4ez43gA4kYgEi3h9HOZD2AtuB8KQhAccLA7UwwOPII2ly2gDNrNGMbF4q_cHdzGZni5jYk7U1dRI32jxVffNZxekon6frVucQRCPWb7K8uxwBqNfz7zpVYMwe-h5MZdg_53fVgr5kHmlwQyemgKdStZd_fQ38ljK_3765LpHwFzOI6FQWB1XzyZ1F6ilXs2I8FUWrSJ2eukYiAwXA_FdQul2u-gdp6wQu6oz6VxhxcpLZtlMz8FPz9wXztmS2p5qWIEm1qG8aWa5a0x0MXj7bJnK5GTYPhoYAZ6kVEEODpvFNwoGusqQRKpu9ypOn2JCX9Y6IHGSY8LeGqOqUO2qSeyS02-8WCmQfh7aCiBzmjr7uP0mIvpTCyHWykV3cM_PPA-BsOX0YM7OYakVZz0XJPDjhgqXlr6CL6Nwi5d038AlsSf_eyua9zURXR3b6DXldp36VDGVfYv2bpk4qUTv9PkK-hDjV59mblbD94l-oHBUFDZt_0G00]--></g></svg>