<?xml version="1.0" encoding="us-ascii" standalone="no"?><svg xmlns="http://www.w3.org/2000/svg" xmlns:xlink="http://www.w3.org/1999/xlink" contentStyleType="text/css" height="1831px" preserveAspectRatio="none" style="width:625px;height:1831px;background:#FFFFFF;" version="1.1" viewBox="0 0 625 1831" width="625px" zoomAndPan="magnify"><defs/><g><!--cluster Auth--><g id="cluster_Auth"><path d="M170,6 L210,6 A3.75,3.75 0 0 1 212.5,8.5 L219.5,28.2969 L606,28.2969 A2.5,2.5 0 0 1 608.5,30.7969 L608.5,212.5 A2.5,2.5 0 0 1 606,215 L170,215 A2.5,2.5 0 0 1 167.5,212.5 L167.5,8.5 A2.5,2.5 0 0 1 170,6 " fill="none" style="stroke:#000000;stroke-width:1.5;"/><line style="stroke:#000000;stroke-width:1.5;" x1="167.5" x2="219.5" y1="28.2969" y2="28.2969"/><text fill="#000000" font-family="sans-serif" font-size="14" font-weight="bold" lengthAdjust="spacing" textLength="39" x="171.5" y="20.9951">Auth</text></g><!--cluster Customer--><g id="cluster_Customer"><path d="M142,270 L221,270 A3.75,3.75 0 0 1 223.5,272.5 L230.5,292.2969 L615.5,292.2969 A2.5,2.5 0 0 1 618,294.7969 L618,567.5 A2.5,2.5 0 0 1 615.5,570 L142,570 A2.5,2.5 0 0 1 139.5,567.5 L139.5,272.5 A2.5,2.5 0 0 1 142,270 " fill="none" style="stroke:#000000;stroke-width:1.5;"/><line style="stroke:#000000;stroke-width:1.5;" x1="139.5" x2="230.5" y1="292.2969" y2="292.2969"/><text fill="#000000" font-family="sans-serif" font-size="14" font-weight="bold" lengthAdjust="spacing" textLength="78" x="143.5" y="284.9951">Customer</text></g><!--cluster Project--><g id="cluster_Project"><path d="M149.5,594 L208.5,594 A3.75,3.75 0 0 1 211,596.5 L218,616.2969 L608.5,616.2969 A2.5,2.5 0 0 1 611,618.7969 L611,882.5 A2.5,2.5 0 0 1 608.5,885 L149.5,885 A2.5,2.5 0 0 1 147,882.5 L147,596.5 A2.5,2.5 0 0 1 149.5,594 " fill="none" style="stroke:#000000;stroke-width:1.5;"/><line style="stroke:#000000;stroke-width:1.5;" x1="147" x2="218" y1="616.2969" y2="616.2969"/><text fill="#000000" font-family="sans-serif" font-size="14" font-weight="bold" lengthAdjust="spacing" textLength="58" x="151" y="608.9951">Project</text></g><!--cluster Category--><g id="cluster_Category"><path d="M143.5,956 L217.5,956 A3.75,3.75 0 0 1 220,958.5 L227,978.2969 L613.5,978.2969 A2.5,2.5 0 0 1 616,980.7969 L616,1253.5 A2.5,2.5 0 0 1 613.5,1256 L143.5,1256 A2.5,2.5 0 0 1 141,1253.5 L141,958.5 A2.5,2.5 0 0 1 143.5,956 " fill="none" style="stroke:#000000;stroke-width:1.5;"/><line style="stroke:#000000;stroke-width:1.5;" x1="141" x2="227" y1="978.2969" y2="978.2969"/><text fill="#000000" font-family="sans-serif" font-size="14" font-weight="bold" lengthAdjust="spacing" textLength="73" x="145" y="970.9951">Category</text></g><!--cluster Interval--><g id="cluster_Interval"><path d="M121.5,1382 L185.5,1382 A3.75,3.75 0 0 1 188,1384.5 L195,1404.2969 L609.5,1404.2969 A2.5,2.5 0 0 1 612,1406.7969 L612,1821.5 A2.5,2.5 0 0 1 609.5,1824 L121.5,1824 A2.5,2.5 0 0 1 119,1821.5 L119,1384.5 A2.5,2.5 0 0 1 121.5,1382 " fill="none" style="stroke:#000000;stroke-width:1.5;"/><line style="stroke:#000000;stroke-width:1.5;" x1="119" x2="195" y1="1404.2969" y2="1404.2969"/><text fill="#000000" font-family="sans-serif" font-size="14" font-weight="bold" lengthAdjust="spacing" textLength="63" x="123" y="1396.9951">Interval</text></g><g id="elem_Login"><ellipse cx="239.1869" cy="120.0634" fill="#F1F1F1" rx="39.1869" ry="14.5634" style="stroke:#181818;stroke-width:0.5;"/><text fill="#000000" font-family="sans-serif" font-size="14" lengthAdjust="spacing" textLength="39" x="217.5666" y="123.5876">Login</text></g><g id="elem_Register"><ellipse cx="239.0868" cy="184.2397" fill="#F1F1F1" rx="55.5868" ry="14.7397" style="stroke:#181818;stroke-width:0.5;"/><text fill="#000000" font-family="sans-serif" font-size="14" lengthAdjust="spacing" textLength="61" x="205.5868" y="187.9873">Register</text></g><g id="elem_Logout"><ellipse cx="238.8761" cy="56.1644" fill="#F1F1F1" rx="47.3761" ry="14.6644" style="stroke:#181818;stroke-width:0.5;"/><text fill="#000000" font-family="sans-serif" font-size="14" lengthAdjust="spacing" textLength="50" x="210.8761" y="59.9119">Logout</text></g><g id="elem_Token"><ellipse cx="525.9626" cy="136.1925" fill="#F1F1F1" rx="66.4626" ry="15.6925" style="stroke:#181818;stroke-width:0.5;"/><text fill="#000000" font-family="sans-serif" font-size="14" lengthAdjust="spacing" textLength="83" x="481.4626" y="139.9401">Send token</text></g><g id="elem_CustomerList"><ellipse cx="239.1781" cy="322.1356" fill="#F1F1F1" rx="71.1781" ry="16.6356" style="stroke:#181818;stroke-width:0.5;"/><text fill="#000000" font-family="sans-serif" font-size="14" lengthAdjust="spacing" textLength="96" x="188.1781" y="325.8832">CustomerList</text></g><g id="elem_CustomerShow"><ellipse cx="525.7754" cy="391.0551" fill="#F1F1F1" rx="75.7754" ry="17.5551" style="stroke:#181818;stroke-width:0.5;"/><text fill="#000000" font-family="sans-serif" font-size="14" lengthAdjust="spacing" textLength="108" x="468.7754" y="394.8026">CustomerShow</text></g><g id="elem_CustomerStore"><ellipse cx="239.0612" cy="391.2122" fill="#F1F1F1" rx="76.5612" ry="17.7122" style="stroke:#181818;stroke-width:0.5;"/><text fill="#000000" font-family="sans-serif" font-size="14" lengthAdjust="spacing" textLength="110" x="181.0612" y="394.9598">CustomerStore</text></g><g id="elem_CustomerUpdate"><ellipse cx="238.9455" cy="462.1891" fill="#F1F1F1" rx="81.4455" ry="18.6891" style="stroke:#181818;stroke-width:0.5;"/><text fill="#000000" font-family="sans-serif" font-size="14" lengthAdjust="spacing" textLength="122" x="176.8109" y="465.409">CustomerUpdate</text></g><g id="elem_CustomerDestroy"><ellipse cx="239.0656" cy="535.1131" fill="#F1F1F1" rx="83.5656" ry="19.1131" style="stroke:#181818;stroke-width:0.5;"/><text fill="#000000" font-family="sans-serif" font-size="14" lengthAdjust="spacing" textLength="127" x="175.1623" y="538.0974">CustomerDestroy</text></g><g id="elem_ProjectList"><ellipse cx="239.2353" cy="644.8471" fill="#F1F1F1" rx="64.7353" ry="15.3471" style="stroke:#181818;stroke-width:0.5;"/><text fill="#000000" font-family="sans-serif" font-size="14" lengthAdjust="spacing" textLength="78" x="197.2353" y="648.5946">ProjectList</text></g><g id="elem_ProjectShow"><ellipse cx="525.964" cy="781.1928" fill="#F1F1F1" rx="68.964" ry="16.1928" style="stroke:#181818;stroke-width:0.5;"/><text fill="#000000" font-family="sans-serif" font-size="14" lengthAdjust="spacing" textLength="90" x="477.964" y="784.9404">ProjectShow</text></g><g id="elem_ProjectStore"><ellipse cx="239.1952" cy="711.839" fill="#F1F1F1" rx="69.6952" ry="16.339" style="stroke:#181818;stroke-width:0.5;"/><text fill="#000000" font-family="sans-serif" font-size="14" lengthAdjust="spacing" textLength="92" x="190.1952" y="715.5866">ProjectStore</text></g><g id="elem_ProjectUpdate"><ellipse cx="239.2198" cy="781.244" fill="#F1F1F1" rx="74.2198" ry="17.244" style="stroke:#181818;stroke-width:0.5;"/><text fill="#000000" font-family="sans-serif" font-size="14" lengthAdjust="spacing" textLength="104" x="184.2198" y="784.9915">ProjectUpdate</text></g><g id="elem_ProjectDestroy"><ellipse cx="239.1676" cy="851.1335" fill="#F1F1F1" rx="76.1676" ry="17.6335" style="stroke:#181818;stroke-width:0.5;"/><text fill="#000000" font-family="sans-serif" font-size="14" lengthAdjust="spacing" textLength="109" x="181.6676" y="854.8811">ProjectDestroy</text></g><g id="elem_CategoryList"><ellipse cx="239.1952" cy="1007.839" fill="#F1F1F1" rx="69.6952" ry="16.339" style="stroke:#181818;stroke-width:0.5;"/><text fill="#000000" font-family="sans-serif" font-size="14" lengthAdjust="spacing" textLength="92" x="190.1952" y="1011.5866">CategoryList</text></g><g id="elem_CategoryShow"><ellipse cx="526.2198" cy="1148.244" fill="#F1F1F1" rx="74.2198" ry="17.244" style="stroke:#181818;stroke-width:0.5;"/><text fill="#000000" font-family="sans-serif" font-size="14" lengthAdjust="spacing" textLength="104" x="471.2198" y="1151.9915">CategoryShow</text></g><g id="elem_CategoryStore"><ellipse cx="238.9948" cy="1076.899" fill="#F1F1F1" rx="74.9948" ry="17.399" style="stroke:#181818;stroke-width:0.5;"/><text fill="#000000" font-family="sans-serif" font-size="14" lengthAdjust="spacing" textLength="106" x="182.9948" y="1080.6465">CategoryStore</text></g><g id="elem_CategoryUpdate"><ellipse cx="238.7839" cy="1147.8568" fill="#F1F1F1" rx="79.7839" ry="18.3568" style="stroke:#181818;stroke-width:0.5;"/><text fill="#000000" font-family="sans-serif" font-size="14" lengthAdjust="spacing" textLength="118" x="178.0356" y="1151.2613">CategoryUpdate</text></g><g id="elem_CategoryDestroy"><ellipse cx="238.8658" cy="1220.7732" fill="#F1F1F1" rx="81.8658" ry="18.7732" style="stroke:#181818;stroke-width:0.5;"/><text fill="#000000" font-family="sans-serif" font-size="14" lengthAdjust="spacing" textLength="123" x="176.3805" y="1223.9463">CategoryDestroy</text></g><g id="elem_IntervalList"><ellipse cx="238.7655" cy="1724.0531" fill="#F1F1F1" rx="65.7655" ry="15.5531" style="stroke:#181818;stroke-width:0.5;"/><text fill="#000000" font-family="sans-serif" font-size="14" lengthAdjust="spacing" textLength="81" x="195.2655" y="1727.8007">IntervalList</text></g><g id="elem_IntervalShow"><ellipse cx="526.0634" cy="1469.9127" fill="#F1F1F1" rx="70.0634" ry="16.4127" style="stroke:#181818;stroke-width:0.5;"/><text fill="#000000" font-family="sans-serif" font-size="14" lengthAdjust="spacing" textLength="93" x="476.5634" y="1473.6602">IntervalShow</text></g><g id="elem_IntervalOpen"><ellipse cx="238.9333" cy="1790.9867" fill="#F1F1F1" rx="70.4333" ry="16.4867" style="stroke:#181818;stroke-width:0.5;"/><text fill="#000000" font-family="sans-serif" font-size="14" lengthAdjust="spacing" textLength="94" x="188.9333" y="1794.7342">IntervalOpen</text></g><g id="elem_IntervalClose"><ellipse cx="238.9333" cy="1433.9867" fill="#F1F1F1" rx="70.4333" ry="16.4867" style="stroke:#181818;stroke-width:0.5;"/><text fill="#000000" font-family="sans-serif" font-size="14" lengthAdjust="spacing" textLength="94" x="188.9333" y="1437.7342">IntervalClose</text></g><g id="elem_IntervalUpdate"><ellipse cx="238.8844" cy="1502.9769" fill="#F1F1F1" rx="75.3844" ry="17.4769" style="stroke:#181818;stroke-width:0.5;"/><text fill="#000000" font-family="sans-serif" font-size="14" lengthAdjust="spacing" textLength="107" x="182.3844" y="1506.7244">IntervalUpdate</text></g><g id="elem_IntervalDestroy"><ellipse cx="238.8536" cy="1573.8707" fill="#F1F1F1" rx="77.3536" ry="17.8707" style="stroke:#181818;stroke-width:0.5;"/><text fill="#000000" font-family="sans-serif" font-size="14" lengthAdjust="spacing" textLength="112" x="180.1333" y="1577.5454">IntervalDestroy</text></g><g id="elem_UpdateIntervalCategory"><ellipse cx="239.0751" cy="1650.215" fill="#F1F1F1" rx="104.0751" ry="23.215" style="stroke:#181818;stroke-width:0.5;"/><text fill="#000000" font-family="sans-serif" font-size="14" lengthAdjust="spacing" textLength="173" x="152.5751" y="1653.0617">UpdateIntervalCategory</text></g><!--entity Frontend--><g id="elem_Frontend"><ellipse cx="39" cy="892.5" fill="#F1F1F1" rx="8" ry="8" style="stroke:#181818;stroke-width:0.5;"/><path d="M39,900.5 L39,927.5 M26,908.5 L52,908.5 M39,927.5 L26,942.5 M39,927.5 L52,942.5 " fill="none" style="stroke:#181818;stroke-width:0.5;"/><text fill="#000000" font-family="sans-serif" font-size="14" lengthAdjust="spacing" textLength="66" x="6" y="956.9951">Frontend</text></g><!--link Frontend to Login--><g id="link_Frontend_Login"><path d="M40.8165,883.793 C44.3389,735.79 60.4193,205.79 111,152 C133.586,127.98 165.3398,121.2528 193.8248,119.6228 " fill="none" id="Frontend-to-Login" style="stroke:#181818;stroke-width:1.0;"/><polygon fill="#181818" points="199.815,119.28,190.6012,115.8007,194.8232,119.5656,191.0582,123.7876,199.815,119.28" style="stroke:#181818;stroke-width:1.0;"/></g><!--link Frontend to Register--><g id="link_Frontend_Register"><path d="M40.9445,883.944 C44.6975,745.97 60.4246,277.41 102,226 C121.735,201.6 149.4288,191.9758 178.3058,187.5658 " fill="none" id="Frontend-to-Register" style="stroke:#181818;stroke-width:1.0;"/><polygon fill="#181818" points="184.237,186.66,174.7363,184.0645,179.2943,187.4148,175.944,191.9729,184.237,186.66" style="stroke:#181818;stroke-width:1.0;"/></g><!--link Frontend to Logout--><g id="link_Frontend_Logout"><path d="M40.5398,883.857 C43.1003,728.26 56.2868,147.01 111,88 C131.253,66.16 158.0586,58.8329 185.2426,56.3629 " fill="none" id="Frontend-to-Logout" style="stroke:#181818;stroke-width:1.0;"/><polygon fill="#181818" points="191.218,55.82,181.893,52.6508,186.2385,56.2724,182.6169,60.618,191.218,55.82" style="stroke:#181818;stroke-width:1.0;"/></g><!--link Register to Token--><g id="link_Register_Token"><path d="M286.253,176.35 C322.617,170.32 374.549,161.68 420,154 C436.96,151.13 449.5403,148.9842 466.2173,146.1242 " fill="none" id="Register-to-Token" style="stroke:#181818;stroke-width:1.0;stroke-dasharray:7.0,7.0;"/><polygon fill="#181818" points="472.131,145.11,462.5844,142.6888,467.2029,145.9551,463.9366,150.5737,472.131,145.11" style="stroke:#181818;stroke-width:1.0;"/><text fill="#000000" font-family="sans-serif" font-size="13" lengthAdjust="spacing" textLength="45" x="374" y="150.0669">include</text></g><!--link Login to Token--><g id="link_Login_Token"><path d="M277.846,122.12 C324.558,124.75 398.7174,128.914 455.0524,132.074 " fill="none" id="Login-to-Token" style="stroke:#181818;stroke-width:1.0;stroke-dasharray:7.0,7.0;"/><polygon fill="#181818" points="461.043,132.41,452.2811,127.9122,456.0508,132.13,451.8331,135.8997,461.043,132.41" style="stroke:#181818;stroke-width:1.0;"/><text fill="#000000" font-family="sans-serif" font-size="13" lengthAdjust="spacing" textLength="45" x="374" y="123.0669">include</text></g><!--link Frontend to CustomerList--><g id="link_Frontend_CustomerList"><path d="M39.319,883.677 C38.1034,769.32 40.7156,433.64 111,356 C126.012,339.42 142.2743,331.8077 163.8723,327.1777 " fill="none" id="Frontend-to-CustomerList" style="stroke:#181818;stroke-width:1.0;"/><polygon fill="#181818" points="169.739,325.92,160.1005,323.8953,164.8501,326.968,161.7774,331.7176,169.739,325.92" style="stroke:#181818;stroke-width:1.0;"/></g><!--link Frontend to CustomerShow--><g id="link_Frontend_CustomerShow"><path d="M41.2949,883.684 C46.1303,752.4 65.2526,326.63 111,288 C230.964,186.69 431.3511,320.2152 498.3421,370.3452 " fill="none" id="Frontend-to-CustomerShow" style="stroke:#181818;stroke-width:1.0;"/><polygon fill="#181818" points="503.146,373.94,498.3367,365.3452,499.1428,370.9443,493.5436,371.7504,503.146,373.94" style="stroke:#181818;stroke-width:1.0;"/></g><!--link Frontend to CustomerStore--><g id="link_Frontend_CustomerStore"><path d="M40.1993,883.726 C41.5356,779.45 50.7378,493.62 111,426 C125.075,410.21 139.7304,402.684 160.1554,397.694 " fill="none" id="Frontend-to-CustomerStore" style="stroke:#181818;stroke-width:1.0;"/><polygon fill="#181818" points="165.984,396.27,156.2918,394.5202,161.1269,397.4566,158.1904,402.2917,165.984,396.27" style="stroke:#181818;stroke-width:1.0;"/></g><!--link Frontend to CustomerUpdate--><g id="link_Frontend_CustomerUpdate"><path d="M41.3511,883.757 C45.4108,790.67 60.5298,555.76 111,499 C124.581,483.73 138.2843,476.193 157.9303,470.783 " fill="none" id="Frontend-to-CustomerUpdate" style="stroke:#181818;stroke-width:1.0;"/><polygon fill="#181818" points="163.715,469.19,153.976,467.723,158.8944,470.5175,156.0999,475.4359,163.715,469.19" style="stroke:#181818;stroke-width:1.0;"/></g><!--link Frontend to CustomerDestroy--><g id="link_Frontend_CustomerDestroy"><path d="M39.6244,883.976 C40.8538,821.59 51.2684,696.15 111,613 C131.682,584.21 161.1328,566.374 189.1268,553.704 " fill="none" id="Frontend-to-CustomerDestroy" style="stroke:#181818;stroke-width:1.0;"/><polygon fill="#181818" points="194.593,551.23,184.7444,551.2968,190.0378,553.2917,188.043,558.5851,194.593,551.23" style="stroke:#181818;stroke-width:1.0;"/></g><!--link CustomerStore to CustomerShow--><g id="link_CustomerStore_CustomerShow"><path d="M315.627,391 C357.018,391 402.145,391 443.515,391 " fill="none" id="CustomerStore-to-CustomerShow" style="stroke:#181818;stroke-width:1.0;stroke-dasharray:7.0,7.0;"/><polygon fill="#181818" points="449.515,391,440.515,387,444.515,391,440.515,395,449.515,391" style="stroke:#181818;stroke-width:1.0;"/><text fill="#000000" font-family="sans-serif" font-size="13" lengthAdjust="spacing" textLength="45" x="374" y="387.0669">include</text></g><!--link CustomerUpdate to CustomerShow--><g id="link_CustomerUpdate_CustomerShow"><path d="M294.614,448.39 C346.174,435.55 417.096,417.8806 467.628,405.2906 " fill="none" id="CustomerUpdate-to-CustomerShow" style="stroke:#181818;stroke-width:1.0;stroke-dasharray:7.0,7.0;"/><polygon fill="#181818" points="473.45,403.84,463.7499,402.1345,468.5983,405.0488,465.684,409.8972,473.45,403.84" style="stroke:#181818;stroke-width:1.0;"/><text fill="#000000" font-family="sans-serif" font-size="13" lengthAdjust="spacing" textLength="45" x="374" y="414.0669">include</text></g><!--link Frontend to ProjectList--><g id="link_Frontend_ProjectList"><path d="M40.0325,883.99 C42.2131,830.4 54.3566,733.03 111,678 C128.239,661.25 146.9391,653.8068 169.9041,649.5368 " fill="none" id="Frontend-to-ProjectList" style="stroke:#181818;stroke-width:1.0;"/><polygon fill="#181818" points="175.803,648.44,166.2234,646.1526,170.8873,649.354,167.6859,654.0178,175.803,648.44" style="stroke:#181818;stroke-width:1.0;"/></g><!--link Frontend to ProjectShow--><g id="link_Frontend_ProjectShow"><path d="M72.323,922.378 C128.747,922.121 248.237,917.484 343,886 C406.524,864.895 467.6547,823.6497 499.9237,799.9697 " fill="none" id="Frontend-to-ProjectShow" style="stroke:#181818;stroke-width:1.0;"/><polygon fill="#181818" points="504.761,796.42,495.1386,798.5198,500.7299,799.3781,499.8716,804.9695,504.761,796.42" style="stroke:#181818;stroke-width:1.0;"/></g><!--link Frontend to ProjectStore--><g id="link_Frontend_ProjectStore"><path d="M45.4241,883.925 C53.0976,844.134 70.9514,782.63 111,747 C128.342,731.57 146.0374,724.1604 168.1524,719.2904 " fill="none" id="Frontend-to-ProjectStore" style="stroke:#181818;stroke-width:1.0;"/><polygon fill="#181818" points="174.012,718,164.3624,716.0291,169.129,719.0753,166.0828,723.8419,174.012,718" style="stroke:#181818;stroke-width:1.0;"/></g><!--link Frontend to ProjectUpdate--><g id="link_Frontend_ProjectUpdate"><path d="M57.0087,883.779 C69.0126,860.959 87.1957,833.17 111,816 C129.458,802.69 146.9144,795.8223 168.4974,790.7123 " fill="none" id="Frontend-to-ProjectUpdate" style="stroke:#181818;stroke-width:1.0;"/><polygon fill="#181818" points="174.336,789.33,164.6566,787.5111,169.4705,790.482,166.4997,795.2959,174.336,789.33" style="stroke:#181818;stroke-width:1.0;"/></g><!--link Frontend to ProjectDestroy--><g id="link_Frontend_ProjectDestroy"><path d="M72.3098,907.893 C81.8139,903.896 92.2716,899.643 102,896 C132.045,884.749 160.6258,875.2303 187.2628,866.7493 " fill="none" id="Frontend-to-ProjectDestroy" style="stroke:#181818;stroke-width:1.0;"/><polygon fill="#181818" points="192.98,864.929,183.1906,863.848,188.2157,866.4459,185.6177,871.4709,192.98,864.929" style="stroke:#181818;stroke-width:1.0;"/></g><!--link ProjectStore to ProjectShow--><g id="link_ProjectStore_ProjectShow"><path d="M288.346,723.7 C341.072,736.47 419.0936,755.3578 471.5366,768.0578 " fill="none" id="ProjectStore-to-ProjectShow" style="stroke:#181818;stroke-width:1.0;stroke-dasharray:7.0,7.0;"/><polygon fill="#181818" points="477.368,769.47,469.5623,763.4641,472.5085,768.2932,467.6794,771.2393,477.368,769.47" style="stroke:#181818;stroke-width:1.0;"/><text fill="#000000" font-family="sans-serif" font-size="13" lengthAdjust="spacing" textLength="45" x="374" y="740.0669">include</text></g><!--link ProjectUpdate to ProjectShow--><g id="link_ProjectUpdate_ProjectShow"><path d="M313.024,781 C357.224,781 407.231,781 450.574,781 " fill="none" id="ProjectUpdate-to-ProjectShow" style="stroke:#181818;stroke-width:1.0;stroke-dasharray:7.0,7.0;"/><polygon fill="#181818" points="456.574,781,447.574,777,451.574,781,447.574,785,456.574,781" style="stroke:#181818;stroke-width:1.0;"/><text fill="#000000" font-family="sans-serif" font-size="13" lengthAdjust="spacing" textLength="45" x="374" y="777.0669">include</text></g><!--link Frontend to CategoryList--><g id="link_Frontend_CategoryList"><path d="M72.2528,936.009 C108.743,951.858 162.3767,975.1536 199.2657,991.1766 " fill="none" id="Frontend-to-CategoryList" style="stroke:#181818;stroke-width:1.0;"/><polygon fill="#181818" points="204.769,993.567,198.1077,986.3126,200.1829,991.575,194.9205,993.6503,204.769,993.567" style="stroke:#181818;stroke-width:1.0;"/></g><!--link Frontend to CategoryShow--><g id="link_Frontend_CategoryShow"><path d="M42.2216,960.202 C47.7521,1040.159 65.1509,1220.827 111,1258 C234.334,1357.995 435.1601,1218.3718 500.0151,1168.0358 " fill="none" id="Frontend-to-CategoryShow" style="stroke:#181818;stroke-width:1.0;"/><polygon fill="#181818" points="504.755,1164.357,495.1926,1166.7152,500.8051,1167.4226,500.0977,1173.0351,504.755,1164.357" style="stroke:#181818;stroke-width:1.0;"/></g><!--link Frontend to CategoryStore--><g id="link_Frontend_CategoryStore"><path d="M53.574,960.058 C64.967,986.729 83.7886,1021.197 111,1042 C128.624,1055.474 145.293,1062.3562 166.446,1067.4542 " fill="none" id="Frontend-to-CategoryStore" style="stroke:#181818;stroke-width:1.0;"/><polygon fill="#181818" points="172.279,1068.86,164.4667,1062.8627,167.4182,1067.6885,162.5923,1070.64,172.279,1068.86" style="stroke:#181818;stroke-width:1.0;"/></g><!--link Frontend to CategoryUpdate--><g id="link_Frontend_CategoryUpdate"><path d="M44.0395,960.089 C50.6183,1003.02 67.63,1072.024 111,1112 C126.25,1126.057 140.7882,1133.1406 160.7132,1138.4076 " fill="none" id="Frontend-to-CategoryUpdate" style="stroke:#181818;stroke-width:1.0;"/><polygon fill="#181818" points="166.514,1139.941,158.8351,1133.7738,161.68,1138.6632,156.7906,1141.5081,166.514,1139.941" style="stroke:#181818;stroke-width:1.0;"/></g><!--link Frontend to CategoryDestroy--><g id="link_Frontend_CategoryDestroy"><path d="M39.318,960.141 C40.442,1016.77 51.0905,1122.95 111,1184 C125.316,1198.588 139.2439,1205.9062 158.8699,1211.3322 " fill="none" id="Frontend-to-CategoryDestroy" style="stroke:#181818;stroke-width:1.0;"/><polygon fill="#181818" points="164.653,1212.931,157.0443,1206.6774,159.8338,1211.5986,154.9125,1214.3881,164.653,1212.931" style="stroke:#181818;stroke-width:1.0;"/></g><!--link CategoryStore to CategoryShow--><g id="link_CategoryStore_CategoryShow"><path d="M290.952,1089.693 C342.988,1102.657 417.445,1121.2056 469.145,1134.0856 " fill="none" id="CategoryStore-to-CategoryShow" style="stroke:#181818;stroke-width:1.0;stroke-dasharray:7.0,7.0;"/><polygon fill="#181818" points="474.967,1135.536,467.2009,1129.479,470.1153,1134.3273,465.267,1137.2417,474.967,1135.536" style="stroke:#181818;stroke-width:1.0;"/><text fill="#000000" font-family="sans-serif" font-size="13" lengthAdjust="spacing" textLength="45" x="374" y="1106.0669">include</text></g><!--link CategoryUpdate to CategoryShow--><g id="link_CategoryUpdate_CategoryShow"><path d="M319.01,1148 C360.523,1148 405.073,1148 445.707,1148 " fill="none" id="CategoryUpdate-to-CategoryShow" style="stroke:#181818;stroke-width:1.0;stroke-dasharray:7.0,7.0;"/><polygon fill="#181818" points="451.707,1148,442.707,1144,446.707,1148,442.707,1152,451.707,1148" style="stroke:#181818;stroke-width:1.0;"/><text fill="#000000" font-family="sans-serif" font-size="13" lengthAdjust="spacing" textLength="45" x="374" y="1144.0669">include</text></g><!--link Frontend to IntervalList--><g id="link_Frontend_IntervalList"><path d="M40.9719,960.022 C45.0754,1107.32 63.0381,1634.987 111,1691 C126.484,1709.083 144.5814,1716.8463 167.5704,1720.9513 " fill="none" id="Frontend-to-IntervalList" style="stroke:#181818;stroke-width:1.0;"/><polygon fill="#181818" points="173.477,1722.006,165.3203,1716.4862,168.5549,1721.1271,163.914,1724.3617,173.477,1722.006" style="stroke:#181818;stroke-width:1.0;"/></g><!--link Frontend to IntervalShow--><g id="link_Frontend_IntervalShow"><path d="M42.4865,960.035 C48.783,1045.359 68.0096,1248.581 111,1300 C158.512,1356.827 351.621,1396.52 420,1425 C443.984,1434.989 465.4095,1444.1584 485.9925,1453.0554 " fill="none" id="Frontend-to-IntervalShow" style="stroke:#181818;stroke-width:1.0;"/><polygon fill="#181818" points="491.5,1455.436,484.8258,1448.1934,486.9104,1453.4521,481.6517,1455.5367,491.5,1455.436" style="stroke:#181818;stroke-width:1.0;"/></g><!--link Frontend to IntervalOpen--><g id="link_Frontend_IntervalOpen"><path d="M40.6399,960.096 C43.5954,1115.51 58.1235,1696.216 111,1757 C125.831,1774.0488 142.3108,1781.7692 164.1508,1786.3314 " fill="none" id="Frontend-to-IntervalOpen" style="stroke:#181818;stroke-width:1.0;"/><polygon fill="#181818" points="170.024,1787.5583,162.0321,1781.8025,165.1296,1786.5359,160.3962,1789.6335,170.024,1787.5583" style="stroke:#181818;stroke-width:1.0;"/></g><!--link Frontend to IntervalClose--><g id="link_Frontend_IntervalClose"><path d="M40.4231,960.159 C42.2319,1058.744 51.7668,1318.911 102,1386 C119.108,1408.849 142.1091,1419.4892 168.8401,1425.7912 " fill="none" id="Frontend-to-IntervalClose" style="stroke:#181818;stroke-width:1.0;"/><polygon fill="#181818" points="174.68,1427.168,166.838,1421.2095,169.8134,1426.0207,165.0023,1428.9961,174.68,1427.168" style="stroke:#181818;stroke-width:1.0;"/></g><!--link Frontend to IntervalUpdate--><g id="link_Frontend_IntervalUpdate"><path d="M39.6766,960.021 C39.5196,1071.087 44.9158,1391.981 111,1468 C125.029,1484.139 139.917,1491.7595 160.572,1496.7065 " fill="none" id="Frontend-to-IntervalUpdate" style="stroke:#181818;stroke-width:1.0;"/><polygon fill="#181818" points="166.407,1498.104,158.5862,1492.1177,161.5445,1496.9394,156.7229,1499.8977,166.407,1498.104" style="stroke:#181818;stroke-width:1.0;"/></g><!--link Frontend to IntervalDestroy--><g id="link_Frontend_IntervalDestroy"><path d="M41.9347,960.068 C48.7453,1087.556 73.2557,1493.965 111,1538 C124.721,1554.008 139.1661,1561.6849 159.4951,1566.8409 " fill="none" id="Frontend-to-IntervalDestroy" style="stroke:#181818;stroke-width:1.0;"/><polygon fill="#181818" points="165.311,1568.316,157.5706,1562.2262,160.4645,1567.0868,155.6038,1569.9806,165.311,1568.316" style="stroke:#181818;stroke-width:1.0;"/></g><!--link Frontend to UpdateIntervalCategory--><g id="link_Frontend_UpdateIntervalCategory"><path d="M41.501,960.107 C47.2255,1097.146 69.4835,1559.509 111,1610 C121.497,1622.767 130.441,1629.3602 145.947,1635.3492 " fill="none" id="Frontend-to-UpdateIntervalCategory" style="stroke:#181818;stroke-width:1.0;"/><polygon fill="#181818" points="151.544,1637.511,144.5896,1630.537,146.8798,1635.7095,141.7073,1637.9997,151.544,1637.511" style="stroke:#181818;stroke-width:1.0;"/></g><!--link IntervalOpen to IntervalShow--><g id="link_IntervalOpen_IntervalShow"><path d="M294.235,1780.6237 C311.071,1775.5181 328.892,1768 343,1757 C440.943,1680.634 498.7827,1541.4332 516.9907,1492.3642 " fill="none" id="IntervalOpen-to-IntervalShow" style="stroke:#181818;stroke-width:1.0;stroke-dasharray:7.0,7.0;"/><polygon fill="#181818" points="519.078,1486.739,512.1968,1493.7853,517.3385,1491.4267,519.6971,1496.5684,519.078,1486.739" style="stroke:#181818;stroke-width:1.0;"/><text fill="#000000" font-family="sans-serif" font-size="13" lengthAdjust="spacing" textLength="45" x="374" y="1672.0669">include</text></g><!--link IntervalClose to IntervalShow--><g id="link_IntervalClose_IntervalShow"><path d="M301.49,1441.767 C349.436,1447.823 409.7503,1455.442 457.6673,1461.495 " fill="none" id="IntervalClose-to-IntervalShow" style="stroke:#181818;stroke-width:1.0;stroke-dasharray:7.0,7.0;"/><polygon fill="#181818" points="463.62,1462.247,455.1923,1457.1506,458.6594,1461.6204,454.1897,1465.0875,463.62,1462.247" style="stroke:#181818;stroke-width:1.0;"/><text fill="#000000" font-family="sans-serif" font-size="13" lengthAdjust="spacing" textLength="45" x="374" y="1446.0669">include</text></g><!--link IntervalUpdate to IntervalShow--><g id="link_IntervalUpdate_IntervalShow"><path d="M313.483,1506.099 C346.248,1506.372 385.221,1505.167 420,1500 C442.316,1496.685 460.8563,1491.791 480.4283,1485.553 " fill="none" id="IntervalUpdate-to-IntervalShow" style="stroke:#181818;stroke-width:1.0;stroke-dasharray:7.0,7.0;"/><polygon fill="#181818" points="486.145,1483.731,476.3553,1482.6529,481.3811,1485.2493,478.7847,1490.2751,486.145,1483.731" style="stroke:#181818;stroke-width:1.0;"/><text fill="#000000" font-family="sans-serif" font-size="13" lengthAdjust="spacing" textLength="45" x="374" y="1496.0669">include</text></g><!--SRC=[ZPJ1QiCm38RlUGgJU_i0EnH6ns1Gs5Yt1p29bsRDuc0x6sNqtUVOKIgxKXdqaFfJf5_whNJgmmcdXMcRWnDrQrJbMjqNidBQY4UZUwVwkYW6MHrbeyJzw0xYjn1YjAgILebofvksBuMq8ZnXzAgQrZfb0eK_sRjwTF2oVyHmxmjxQKSLixzDJvxx7yWIgzLcgPeSGZ4gEfRnloLelTx4z7UYxQjkh9Md8I-5pfTfbDlHElqrTPZC18vtFdyfAB8_w1-6-C4h6hqFjNGCUr3M6NqAC6yQo-7O98XzCMZYO5J5qLbNL9Na2xF5vV7qq-GtGh4RBqP_-lkRcJ6V1Y-8y-04THvy8C3i0a700y829891f05O2yFeyQUAeY2SB4mKLSQpJnBpWUSfwsKJV6oZpIdVXFcOs8IP49i0vCe188G5W6vuWBLmZ5u3B8Y3p1gaikOrmFdYtKRbapL8ajy8nMlmvCkRRzbbLi3nrI80k7O2oFCmVOGfiksqLMGswcC537-i5XXVM1B3VIACn9rmZ3GIzyEnq147QPEpjd9CDnRxmeg2lLW_lWc9l7z5eZj3Xvx_0000]--></g></svg>