<?xml version="1.0" encoding="us-ascii" standalone="no"?><svg xmlns="http://www.w3.org/2000/svg" xmlns:xlink="http://www.w3.org/1999/xlink" contentStyleType="text/css" height="187px" preserveAspectRatio="none" style="width:675px;height:187px;background:#FFFFFF;" version="1.1" viewBox="0 0 675 187" width="675px" zoomAndPan="magnify"><defs/><g><!--entity Auth--><g id="elem_Auth"><path d="M8.5,141.5 L60.5,141.5 A3.75,3.75 0 0 1 63,144 L70,163.7969 L84.5,163.7969 A2.5,2.5 0 0 1 87,166.2969 L87,178.2969 A2.5,2.5 0 0 1 84.5,180.7969 L8.5,180.7969 A2.5,2.5 0 0 1 6,178.2969 L6,144 A2.5,2.5 0 0 1 8.5,141.5 " fill="#F1F1F1" style="stroke:#181818;stroke-width:0.5;"/><line style="stroke:#181818;stroke-width:0.5;" x1="6" x2="70" y1="163.7969" y2="163.7969"/><text fill="#000000" font-family="sans-serif" font-size="14" font-weight="bold" lengthAdjust="spacing" textLength="39" x="16" y="157.4951">Auth</text></g><!--entity Customer--><g id="elem_Customer"><path d="M125,141.5 L216,141.5 A3.75,3.75 0 0 1 218.5,144 L225.5,163.7969 L240,163.7969 A2.5,2.5 0 0 1 242.5,166.2969 L242.5,178.2969 A2.5,2.5 0 0 1 240,180.7969 L125,180.7969 A2.5,2.5 0 0 1 122.5,178.2969 L122.5,144 A2.5,2.5 0 0 1 125,141.5 " fill="#F1F1F1" style="stroke:#181818;stroke-width:0.5;"/><line style="stroke:#181818;stroke-width:0.5;" x1="122.5" x2="225.5" y1="163.7969" y2="163.7969"/><text fill="#000000" font-family="sans-serif" font-size="14" font-weight="bold" lengthAdjust="spacing" textLength="78" x="132.5" y="157.4951">Customer</text></g><!--entity Project--><g id="elem_Project"><path d="M280,141.5 L351,141.5 A3.75,3.75 0 0 1 353.5,144 L360.5,163.7969 L375,163.7969 A2.5,2.5 0 0 1 377.5,166.2969 L377.5,178.2969 A2.5,2.5 0 0 1 375,180.7969 L280,180.7969 A2.5,2.5 0 0 1 277.5,178.2969 L277.5,144 A2.5,2.5 0 0 1 280,141.5 " fill="#F1F1F1" style="stroke:#181818;stroke-width:0.5;"/><line style="stroke:#181818;stroke-width:0.5;" x1="277.5" x2="360.5" y1="163.7969" y2="163.7969"/><text fill="#000000" font-family="sans-serif" font-size="14" font-weight="bold" lengthAdjust="spacing" textLength="58" x="287.5" y="157.4951">Project</text></g><!--entity Category--><g id="elem_Category"><path d="M415.5,141.5 L501.5,141.5 A3.75,3.75 0 0 1 504,144 L511,163.7969 L525.5,163.7969 A2.5,2.5 0 0 1 528,166.2969 L528,178.2969 A2.5,2.5 0 0 1 525.5,180.7969 L415.5,180.7969 A2.5,2.5 0 0 1 413,178.2969 L413,144 A2.5,2.5 0 0 1 415.5,141.5 " fill="#F1F1F1" style="stroke:#181818;stroke-width:0.5;"/><line style="stroke:#181818;stroke-width:0.5;" x1="413" x2="511" y1="163.7969" y2="163.7969"/><text fill="#000000" font-family="sans-serif" font-size="14" font-weight="bold" lengthAdjust="spacing" textLength="73" x="423" y="157.4951">Category</text></g><!--entity Interval--><g id="elem_Interval"><path d="M565.5,141.5 L641.5,141.5 A3.75,3.75 0 0 1 644,144 L651,163.7969 L665.5,163.7969 A2.5,2.5 0 0 1 668,166.2969 L668,178.2969 A2.5,2.5 0 0 1 665.5,180.7969 L565.5,180.7969 A2.5,2.5 0 0 1 563,178.2969 L563,144 A2.5,2.5 0 0 1 565.5,141.5 " fill="#F1F1F1" style="stroke:#181818;stroke-width:0.5;"/><line style="stroke:#181818;stroke-width:0.5;" x1="563" x2="651" y1="163.7969" y2="163.7969"/><text fill="#000000" font-family="sans-serif" font-size="14" font-weight="bold" lengthAdjust="spacing" textLength="63" x="573" y="157.4951">Interval</text></g><!--entity Frontend--><g id="elem_Frontend"><ellipse cx="327.5" cy="14" fill="#F1F1F1" rx="8" ry="8" style="stroke:#181818;stroke-width:0.5;"/><path d="M327.5,22 L327.5,49 M314.5,30 L340.5,30 M327.5,49 L314.5,64 M327.5,49 L340.5,64 " fill="none" style="stroke:#181818;stroke-width:0.5;"/><text fill="#000000" font-family="sans-serif" font-size="14" lengthAdjust="spacing" textLength="66" x="294.5" y="78.4951">Frontend</text></g><!--link Frontend to Auth--><g id="link_Frontend_Auth"><path d="M294.439,58.089 C242.792,79.318 148.6475,118.0142 92.6912,141.014 " fill="none" id="Frontend-to-Auth" style="stroke:#181818;stroke-width:1.0;"/><polygon fill="#181818" points="87.1417,143.295,96.9866,143.5731,91.7663,141.3942,93.9453,136.1738,87.1417,143.295" style="stroke:#181818;stroke-width:1.0;"/></g><!--link Frontend to Customer--><g id="link_Frontend_Customer"><path d="M294.234,70.998 C267.311,92.4435 234.7521,118.3786 210.8111,137.4486 " fill="none" id="Frontend-to-Customer" style="stroke:#181818;stroke-width:1.0;"/><polygon fill="#181818" points="206.118,141.1869,215.6499,138.7082,210.0289,138.0717,210.6655,132.4508,206.118,141.1869" style="stroke:#181818;stroke-width:1.0;"/></g><!--link Frontend to Project--><g id="link_Frontend_Project"><path d="M327.5,81.6807 C327.5,101.5964 327.5,119.2663 327.5,135.3326 " fill="none" id="Frontend-to-Project" style="stroke:#181818;stroke-width:1.0;"/><polygon fill="#181818" points="327.5,141.3326,331.5,132.3326,327.5,136.3326,323.5,132.3326,327.5,141.3326" style="stroke:#181818;stroke-width:1.0;"/></g><!--link Frontend to Category--><g id="link_Frontend_Category"><path d="M360.667,71.288 C387.234,92.7465 419.1583,118.5319 442.6583,137.5124 " fill="none" id="Frontend-to-Category" style="stroke:#181818;stroke-width:1.0;"/><polygon fill="#181818" points="447.326,141.2824,442.8378,132.5156,443.4363,138.1407,437.8112,138.7392,447.326,141.2824" style="stroke:#181818;stroke-width:1.0;"/></g><!--link Frontend to Interval--><g id="link_Frontend_Interval"><path d="M360.537,57.749 C411.881,78.34 505.4092,115.8487 563.7862,139.2606 " fill="none" id="Frontend-to-Interval" style="stroke:#181818;stroke-width:1.0;"/><polygon fill="#181818" points="569.355,141.494,562.4906,134.4314,564.7143,139.6329,559.5128,141.8565,569.355,141.494" style="stroke:#181818;stroke-width:1.0;"/></g><!--SRC=[IqmkoIzIS2lApoj9pKlXuYf8JCvEJ4zLS2mjoL2evgf5Y2WvbnQNvEUc5YcXYGSKvMUb9fT0X1KKa3GabgIcvnTLeclm1DfLL9QO0nM7MQwWgsi7jXTL16OjgYZKKZIbK0jHHM7M0G00]--></g></svg>